<svg xmlns="http://www.w3.org/2000/svg" viewBox="0 0 111.53 111.52"><defs><style>.cls-1{fill:#766592;}</style></defs><title>brief</title><g id="Layer_2" data-name="Layer 2"><g id="_Group_" data-name="&lt;Group&gt;"><path class="cls-1" d="M68.94,51a2.38,2.38,0,0,1-2.38,2.38H44.94a2.38,2.38,0,1,1,0-4.76H66.57A2.38,2.38,0,0,1,68.94,51M66.57,66.36H44.94a2.38,2.38,0,1,1,0-4.76H66.57a2.38,2.38,0,0,1,0,4.76m-5.14-30V30.11H39.5a1.79,1.79,0,0,0-1.79,1.78V79.63a1.79,1.79,0,0,0,1.79,1.79H72a1.79,1.79,0,0,0,1.79-1.79V42.5H67.56a6.14,6.14,0,0,1-6.14-6.13"/><path class="cls-1" d="M82,79.62A10,10,0,0,1,72,89.57H39.5a10,10,0,0,1-9.94-9.95V31.9A10,10,0,0,1,39.5,22H67.66L82,36.27m22.08-8.38h0A55.74,55.74,0,0,0,55.77,0h0A55.74,55.74,0,0,0,7.48,27.88h0a55.72,55.72,0,0,0,0,55.76h0a55.72,55.72,0,0,0,48.29,27.88h0A55.72,55.72,0,0,0,104,83.64h0a55.73,55.73,0,0,0,0-55.76"/></g></g></svg>