<svg xmlns="http://www.w3.org/2000/svg" viewBox="0 0 111.53 111.53"><defs><style>.cls-1{fill:#f15d4f;}</style></defs><title>define</title><g id="Layer_2" data-name="Layer 2"><g id="_Group_" data-name="&lt;Group&gt;"><path class="cls-1" d="M55.76,67.31A12.08,12.08,0,1,1,67.85,55.24,12.07,12.07,0,0,1,55.76,67.31m0-34.68A22.61,22.61,0,1,0,78.37,55.24,22.63,22.63,0,0,0,55.76,32.63"/><path class="cls-1" d="M55.76,88.4A33.16,33.16,0,1,1,88.92,55.24,33.2,33.2,0,0,1,55.76,88.4m48.29-60.51h0A55.72,55.72,0,0,0,55.77,0h0A55.74,55.74,0,0,0,7.48,27.88h0a55.73,55.73,0,0,0,0,55.76h0a55.73,55.73,0,0,0,48.29,27.88h0a55.74,55.74,0,0,0,48.29-27.89h0a55.73,55.73,0,0,0,0-55.76"/></g></g></svg>