<svg xmlns="http://www.w3.org/2000/svg" viewBox="0 0 78.95 82"><defs><style>.cls-1{fill:#eb5d50;}</style></defs><title>define-icon</title><g id="Layer_2" data-name="Layer 2"><g id="_03C_Method_Pop-Up_" data-name="03C_Method (Pop-Up))"><g id="_03C4-BenefitInputOutput" data-name="03C4-BenefitInputOutput"><path class="cls-1" d="M38.82,82h-.75A40.4,40.4,0,0,1,1.63,59.33,3,3,0,0,1,7,56.67,34.44,34.44,0,0,0,38.07,76h.75c19.09,0,34.13-15.53,34.13-34.63v-.75C72.95,21.53,57.91,6,38.82,6h-.75A34.42,34.42,0,0,0,5.8,28.09,3,3,0,0,1,.2,25.91,40.38,40.38,0,0,1,38.07,0h.75A40.25,40.25,0,0,1,78.95,40.63v.75A40.25,40.25,0,0,1,38.82,82Z"/><path class="cls-1" d="M58.06,41.56a3,3,0,0,0-.74-2.36l-12.6-14a3,3,0,1,0-4.46,4L49.08,39H16.45a3,3,0,0,0,0,6h32L40.2,54.28a3,3,0,0,0,4.49,4L57.34,44A3,3,0,0,0,58.06,41.56Z"/></g></g></g></svg>