<svg xmlns="http://www.w3.org/2000/svg" viewBox="0 0 111.53 111.53"><defs><style>.cls-1{fill:#00b59b;}</style></defs><title>deliver</title><g id="Layer_2" data-name="Layer 2"><g id="_Group_" data-name="&lt;Group&gt;"><path class="cls-1" d="M49.77,51.21h12a2.69,2.69,0,0,1,0,5.38h-12a2.69,2.69,0,0,1,0-5.38M37.24,74.9H74.29V44.62H37.24Z"/><path class="cls-1" d="M90.64,41.34a3.28,3.28,0,0,1-3.29,3.28H84.23v33A7.19,7.19,0,0,1,77,84.83H34.49a7.18,7.18,0,0,1-7.18-7.17v-33H24.18a3.28,3.28,0,0,1-3.28-3.28V30.2a3.28,3.28,0,0,1,3.28-3.28H48.09v11l2.56-2.56,2.56,2.56,2.56-2.56,2.56,2.56,2.56-2.56,2.56,2.56v-11H87.36a3.28,3.28,0,0,1,3.29,3.28M104,27.88h0A55.74,55.74,0,0,0,55.76,0h0A55.72,55.72,0,0,0,7.48,27.88h0a55.72,55.72,0,0,0,0,55.76h0a55.73,55.73,0,0,0,48.29,27.88h0A55.73,55.73,0,0,0,104,83.64l-2.66-1.54,2.67,1.54a55.71,55.71,0,0,0,0-55.76"/></g></g></svg>