<svg xmlns="http://www.w3.org/2000/svg" viewBox="0 0 111.53 111.53"><defs><style>.cls-1{fill:#0074b3;}</style></defs><title>develop</title><g id="Layer_2" data-name="Layer 2"><g id="_Group_" data-name="&lt;Group&gt;"><path class="cls-1" d="M55.77,24A15.1,15.1,0,0,0,40.67,39.08c0,4.62,5.06,10.23,6.83,11.83a14.36,14.36,0,0,1,4.38,9.81v6.8h7.76v-6.8A14.36,14.36,0,0,1,64,50.9c1.76-1.59,6.82-7.2,6.82-11.83A15.1,15.1,0,0,0,55.77,24"/><path class="cls-1" d="M70.43,58.06a5.17,5.17,0,0,0-1.19,2.66v7.85a8.56,8.56,0,0,1-8.54,8.55H50.83a8.55,8.55,0,0,1-8.54-8.55V60.73a5.18,5.18,0,0,0-1.19-2.66c-1-.91-10-9.24-10-19a24.69,24.69,0,0,1,49.37,0c0,9.74-9,18.07-10,19M63.2,86.14H48.33a2.7,2.7,0,1,1,0-5.41H63.2a2.7,2.7,0,0,1,0,5.41M62,95.38H49.52a2.7,2.7,0,1,1,0-5.4H62a2.7,2.7,0,1,1,0,5.4m42-67.49h0A55.73,55.73,0,0,0,55.77,0h0A55.72,55.72,0,0,0,7.48,27.88h0a55.74,55.74,0,0,0,0,55.76h0a55.74,55.74,0,0,0,48.3,27.88h0a55.74,55.74,0,0,0,48.28-27.89h0a55.73,55.73,0,0,0,0-55.76"/></g></g></svg>