<svg xmlns="http://www.w3.org/2000/svg" viewBox="0 0 1934 805.25"><defs><style>.cls-1,.cls-8{fill:#ff931e;}.cls-2{font-size:27px;fill:#999;font-family:Kanit-Regular, Kanit Regular;}.cls-3{letter-spacing:-0.04em;}.cls-4{letter-spacing:0em;}.cls-5{letter-spacing:-0.08em;}.cls-6{letter-spacing:-0.07em;}.cls-7{letter-spacing:-0.08em;}.cls-11,.cls-12,.cls-15,.cls-16,.cls-18,.cls-20,.cls-8{font-size:33px;font-family:Kanit-Medium, Kanit Medium;}.cls-9{letter-spacing:-0.02em;}.cls-10{letter-spacing:0em;}.cls-11,.cls-25{fill:#f15d4f;}.cls-12,.cls-28{fill:#0074b3;}.cls-13{letter-spacing:0.01em;}.cls-14{letter-spacing:-0.04em;}.cls-15,.cls-29{fill:#00b59b;}.cls-16,.cls-24{fill:#998675;}.cls-17{letter-spacing:-0.08em;}.cls-18,.cls-30{fill:#848581;}.cls-19{letter-spacing:-0.03em;}.cls-20,.cls-27{fill:#766592;}.cls-21,.cls-22{fill:none;stroke:#666;stroke-miterlimit:10;stroke-width:3px;}.cls-22{stroke-dasharray:12 12;}.cls-23{fill:#333;}.cls-26{fill:#f68e1f;}</style></defs><title>diagram</title><g id="Layer_2" data-name="Layer 2"><g id="_Group_" data-name="&lt;Group&gt;"><polygon class="cls-1" points="524 800.69 524.65 800.96 524 800.34 524 800.69"/><text class="cls-2" transform="translate(377.54 26.77)">DESIGN<tspan class="cls-3" x="86.24" y="0"> </tspan><tspan x="90.85" y="0">THE RIGHT</tspan><tspan class="cls-3" x="210.33" y="0"> </tspan><tspan x="214.94" y="0">THING </tspan></text><text class="cls-2" transform="translate(325.49 798.5)">RESEA<tspan class="cls-4" x="70.93" y="0">R</tspan><tspan x="85.54" y="0">CH</tspan></text><text class="cls-2" transform="translate(619.65 798.5)">SNTHESIS</text><text class="cls-2" transform="translate(1212.13 798.5)">IDE<tspan class="cls-5" x="37.72" y="0">A</tspan><tspan x="52.16" y="0">TION</tspan></text><text class="cls-2" transform="translate(1450.93 798.5)">IMPLEMEN<tspan class="cls-6" x="121.31" y="0">T</tspan><tspan class="cls-7" x="132.7" y="0">A</tspan><tspan x="147.15" y="0">TION</tspan></text><text class="cls-2" transform="translate(1255.54 26.77)">DESIGN<tspan class="cls-3" x="86.24" y="0"> </tspan><tspan x="90.85" y="0">THE</tspan><tspan class="cls-3" x="135.16" y="0"> </tspan><tspan x="139.78" y="0">THING RIGHT </tspan></text><polygon class="cls-1" points="524 800.69 524.65 800.96 524 800.34 524 800.69"/><text class="cls-8" transform="translate(315.02 409.25)">DIS<tspan class="cls-9" x="46.13" y="0">C</tspan><tspan class="cls-10" x="64.58" y="0">OVER</tspan></text><text class="cls-11" transform="translate(623.81 409.25)">DEFINE</text><text class="cls-12" transform="translate(1202.46 409.25)">D<tspan class="cls-13" x="21.98" y="0">E</tspan><tspan x="38.51" y="0">VE</tspan><tspan class="cls-14" x="73.16" y="0">L</tspan><tspan x="87.45" y="0">OP</tspan></text><text class="cls-15" transform="translate(1494.59 409.25)">DELIVER</text><text class="cls-16" transform="translate(60.63 409.25)">INITI<tspan class="cls-17" x="61.78" y="0">A</tspan><tspan x="79.43" y="0">TE</tspan></text><text class="cls-18" transform="translate(1756.47 409.25)">L<tspan class="cls-19" x="15.58" y="0">A</tspan><tspan x="34.85" y="0">UNCH</tspan></text><text class="cls-20" transform="translate(932.25 409.25)">BRIEF</text><line class="cls-21" x1="1696.5" x2="1696.5" y2="6"/><line class="cls-22" x1="1696.5" y1="18" x2="1696.5" y2="789"/><line class="cls-21" x1="1696.5" y1="795" x2="1696.5" y2="801"/><line class="cls-21" x1="1408.5" y1="88" x2="1408.5" y2="94"/><line class="cls-22" x1="1408.5" y1="106" x2="1408.5" y2="787"/><line class="cls-21" x1="1408.5" y1="793" x2="1408.5" y2="799"/><line class="cls-21" x1="1115.5" x2="1115.5" y2="6"/><line class="cls-22" x1="1115.5" y1="18" x2="1115.5" y2="786"/><line class="cls-21" x1="1115.5" y1="793" x2="1115.5" y2="799"/><line class="cls-21" x1="818.5" x2="818.5" y2="6"/><line class="cls-22" x1="818.5" y1="18" x2="818.5" y2="786"/><line class="cls-21" x1="818.5" y1="793" x2="818.5" y2="799"/><line class="cls-21" x1="530.5" y1="88" x2="530.5" y2="94"/><line class="cls-22" x1="530.5" y1="106" x2="530.5" y2="787"/><line class="cls-21" x1="530.5" y1="793" x2="530.5" y2="799"/><line class="cls-21" x1="236.5" x2="236.5" y2="6"/><line class="cls-22" x1="236.5" y1="18" x2="236.5" y2="786"/><line class="cls-21" x1="236.5" y1="793" x2="236.5" y2="799"/><path class="cls-23" d="M1407,84.37a41.76,41.76,0,0,1,29.82,12.19l229.62,231.05C1682,343.16,1712,357,1733.29,357H1882c23.16,0,42,18.62,42,41.5s-18.84,41.5-42,41.5H1733.08c-21.84,0-51.84,11-66.87,26L1436.59,694.57c-7.94,7.94-18.53,11.75-29.82,11.75a41.55,41.55,0,0,1-29.57-12.22L1147.58,466c-15-15-45-26-66.87-26H857.08c-21.84,0-51.84,11-66.87,26L560.59,694.57a42.31,42.31,0,0,1-59.39-.34L271.58,466c-17.29-17.29-41.66-26-66.87-26H52c-23.16,0-42-18.62-42-41.5S28.84,357,52,357H204.92c21.36,0,51.36-13.87,66.87-29.39L501.41,96.94a41.93,41.93,0,0,1,59.4-.34l229.62,231C806,343.18,836,357,857.29,357h223.63c21.36,0,51.36-13.87,66.87-29.39L1377.41,96.94A41.89,41.89,0,0,1,1407,84.37m0-10a51.59,51.59,0,0,0-36.65,15.37L1140.71,320.56c-14.19,14.19-41.58,26.44-59.79,26.44H857.29c-18.21,0-45.59-12.25-59.8-26.46L567.89,89.63a51.93,51.93,0,0,0-73.56.14L264.71,320.57C250.52,334.76,223.13,347,204.92,347H52c-28.67,0-52,23.1-52,51.5S23.33,450,52,450H204.71c23.17,0,45,8.25,59.8,23.08L494.14,701.4a52.3,52.3,0,0,0,73.52.14l229.6-228.43c12.66-12.66,40-23.11,59.81-23.11h223.63c19.8,0,47.19,10.41,59.8,23l229.63,228.26a51.38,51.38,0,0,0,36.63,15c14.28,0,27.39-5.27,36.89-14.78l229.6-228.43c12.66-12.66,40-23.11,59.81-23.11H1882c28.67,0,52-23.1,52-51.5s-23.33-51.5-52-51.5H1733.29c-18.21,0-45.59-12.25-59.8-26.46L1443.89,89.63A51.89,51.89,0,0,0,1407,74.37Z"/><path class="cls-24" d="M233.49,346.65c-.81.33-1.51.65-2.34,1-9.09,3.4-18.65,5.4-26.23,5.4H52c-25.36,0-46,20.41-46,45.5S26.64,444,52,444H204.71a88.48,88.48,0,0,1,29,4.59l2.31.74,0,0V436.6a8.37,8.37,0,0,0-.91-.27l-.28-.09A99.29,99.29,0,0,0,204.71,432H52c-18.75,0-34-15-34-33.5S33.25,365,52,365H204.92A85.77,85.77,0,0,0,236,358.46v-.31l-1.07.47v0l1.08-.45V345.52Z"/><path class="cls-1" d="M530.29,712H530l0-11.9a2.79,2.79,0,0,1-.78,0,14.41,14.41,0,0,1-1.6,0c-.85-.12-1.7-.11-2.55-.25s-1.8-.35-2.7-.55a28.23,28.23,0,0,1-4.22-1.32,33.28,33.28,0,0,1-7.87-4.29,37.37,37.37,0,0,1-3.83-3.31L277,461a101.37,101.37,0,0,0-39.33-24L236,436.6v12.69h0v0l1.41.37v0a88.16,88.16,0,0,1,31,19.85L498,698.89a44.81,44.81,0,0,0,31.73,13.35h.3V712Z"/><path class="cls-25" d="M818.42,440l-.06-.14L815.5,441c-13.15,5.91-24.25,13-31.32,20L554.43,690.22c-6.43,6.43-14.43,9.85-24.43,9.9v.13l3.15-.17.43,11.57,2.08,0a45.09,45.09,0,0,0,27.44-13L792.63,469.59c5.58-5.58,14.36-11.32,24.9-16.34l.41-.19c.27-.12.07-.15.07-.27V440.2Z"/><path class="cls-25" d="M792.75,325.47,563.32,95.61c-.78-.78-1.57-1.5-2.4-2.22s-1.64-1.43-2.51-2.1-1.74-1.3-2.66-1.89-1.84-1.15-2.79-1.67-1.91-1-2.89-1.45-2-.86-3-1.24-2-.72-3-1-2.08-.56-3.13-.78-2.15-.4-3.23-.55c-1.45-.2-2.9-.36-4.35-.51-1.12-.11-2.24-.13-3.36-.13V94.13h.38a34,34,0,0,1,24.39,10L784.51,334c6.76,6.76,16.81,13.54,28.5,19.27l0,.05c.77.38,1.49.75,2.28,1.12l2.65,1.52L818,355V342.56C808,337.38,798.63,331.36,792.75,325.47ZM532.81,94.1V94h0Z"/><path class="cls-26" d="M528.45,82.13c-.5,0-1.45.07-1.45.11v0a5.29,5.29,0,0,0-1.09.11h0a45.24,45.24,0,0,0-27.55,13.1l-230,230c-8,8-19.3,15.08-32.3,20l0,0,0,12.89,1.78-.66c1.16-.49,2.13-.92,3.12-1.3l-.18-.46h0l.18.46C255.13,351,267.92,343.1,277,334L506.78,104a33.32,33.32,0,0,1,22.88-9.81h-.5l.83,0V82.05C529.53,82.06,529,82.09,528.45,82.13Z"/><path class="cls-27" d="M1115,438.89c0-.16-.37-.2-.81-.36l-.29-.13a98.54,98.54,0,0,0-33.19-6.4H857.08c-11.55,0-26.08,3-39.08,8v.68h0V453l2.09-.78c12.12-5.14,26.1-8.21,37-8.21h223.63a87.76,87.76,0,0,1,32,6.64l2.3.87V438.89Z"/><path class="cls-27" d="M1112.49,345.53c-.7.3-1.36.59-2.06.88l-.37.15h0c-10.13,4.06-20.78,6.46-29.14,6.46H857.29c-9.19,0-20.91-2.7-34.36-8-1-.38-1.86-.84-2.83-1.24L818,342.6V356c15,6,28.52,9,39.29,9h223.63c10.21,0,23.08-2.78,34.08-7.67v-.27h0V344.64l0-.17Z"/><polygon class="cls-28" points="1404.76 700 1404.75 700 1404.76 700.19 1404.76 700.19 1404.76 700"/><path class="cls-28" d="M1408,712h0a1,1,0,0,0,0,.17S1408,712,1408,712Z"/><path class="cls-28" d="M1408,712V700.31h0l0-.13c-1.48.06-2.32.05-2.88,0l-.12,0V700h0v.19a35.74,35.74,0,0,1-22.41-9.78L1153,461c-9.07-9.07-21.75-16.5-36.2-21.7l-1.86-.58,0,.22v12.48s3.2,1.15,6.57,2.64l.72.31a79.22,79.22,0,0,1,22.18,15.12L1374,698.89A46.51,46.51,0,0,0,1403.43,712l.21,0c2.55.23,4.36.21,4.36.21V712Z"/><path class="cls-28" d="M1407.94,82.16c-1,0-1.94,0-2.94,0h0a47.16,47.16,0,0,0-30.72,13.32l-230,230A85.73,85.73,0,0,1,1115,344.42v12.91s3.73-1.47,7.73-3.27l0,0c11.85-5.19,22.29-12,30.26-20L1382.75,104a31.59,31.59,0,0,1,17.05-9h0a35.78,35.78,0,0,1,8.18-.82v-12S1408,82.17,1407.94,82.16Z"/><path class="cls-29" d="M1696,356.19v-12.7c-11-5.08-20.82-11.58-27.25-18L1439.13,95.61a45.79,45.79,0,0,0-26.53-13.05h0l-.59-.06-.83-.1v0l-1.67-.13-.21,0-.8,0-.54,0v12h0a33.6,33.6,0,0,1,22.52,9.9l230,229.87c7.42,7.42,18.18,14.54,30.5,20.22l0,0c.82.38,1.58.75,2.41,1.11l2.69,1.2ZM1410.49,94.27v-.06h0Z"/><path class="cls-29" d="M1695.94,439.05l-2.38,1c-13.82,5.77-25.65,13.25-33.45,21L1430.4,690.28a33.64,33.64,0,0,1-22.4,9.89h0v12l.66,0c1,0,2.87-.22,2.87-.22l.18,0a46.26,46.26,0,0,0,27.39-13.13l229.52-229.18c5.69-5.69,14.15-11.26,24.15-16l.55-.26,2-.92v0l.69-.31-.12,0c.07,0,.13-.09.13-.14V439Z"/><path class="cls-30" d="M1882,353H1733.29c-8.88,0-20.23-2.5-32.48-7.23-.92-.36-2-.91-3-1.3l-1.84-.92v13.1c14,5.32,26.89,8.35,37.29,8.35H1882c18.75,0,34,15,34,33.5s-15.25,33.5-34,33.5H1733.08a102.27,102.27,0,0,0-27.6,4.34c-6.22,1.57-9.47,2.66-9.47,2.66h0v13.09l1.91-.64c12.43-4.8,25.08-7.44,35.16-7.44H1882c25.37,0,46-20.41,46-45.5S1907.37,353,1882,353Z"/></g></g></svg>