<svg xmlns="http://www.w3.org/2000/svg" viewBox="0 0 111.53 111.53"><defs><style>.cls-1{fill:#ff931e;}</style></defs><title>discover</title><g id="Layer_2" data-name="Layer 2"><g id="_Group_" data-name="&lt;Group&gt;"><path class="cls-1" d="M36,34.31a13.72,13.72,0,1,0,19.39,0,13.64,13.64,0,0,0-19.39,0"/><path class="cls-1" d="M84.88,83.15a5.27,5.27,0,0,1-7.46,0l-9.67-9.67L75.21,66l9.67,9.67a5.28,5.28,0,0,1,0,7.47M58.76,64.49A24.27,24.27,0,1,1,66.22,57l5.26,5.26L64,69.75Zm45.3-36.6h0A55.74,55.74,0,0,0,55.77,0h0A55.73,55.73,0,0,0,7.48,27.88h0a55.72,55.72,0,0,0,0,55.76h0a55.74,55.74,0,0,0,48.29,27.88h0a55.74,55.74,0,0,0,48.29-27.89h0a55.74,55.74,0,0,0,0-55.76"/></g></g></svg>