<?xml version="1.0" encoding="utf-8"?>
<!-- Generator: Adobe Illustrator 16.0.0, SVG Export Plug-In . SVG Version: 6.00 Build 0)  -->
<!DOCTYPE svg PUBLIC "-//W3C//DTD SVG 1.1//EN" "http://www.w3.org/Graphics/SVG/1.1/DTD/svg11.dtd">
<svg version="1.1" id="Layer_1" xmlns="http://www.w3.org/2000/svg" xmlns:xlink="http://www.w3.org/1999/xlink" x="0px" y="0px"
	 width="2048px" height="989.001px" viewBox="0 0 2048 989.001" enable-background="new 0 0 2048 989.001" xml:space="preserve">
<g>
	<rect fill="#FFFFFF" width="2048" height="989.001"/>
	<path d="M1938.035,434.45h-152.924c-6.512,0-14.986-1.771-23.252-4.859c-0.422-0.158-0.803-0.32-1.193-0.484
		c-0.25-0.106-0.506-0.213-0.77-0.322l-1.766-0.79l-0.262-0.172l-0.766-0.287l-11.264-5.041
		c-7.066-3.727-13.303-8.183-18.139-13.019l-229.99-230.048c-8.01-8.01-18.377-13.3-29.475-15.113l0,0c0,0-4.375-0.816-8.352-0.816
		c-3.975,0-8.35,0.816-8.35,0.816l0,0c-11.1,1.814-21.465,7.104-29.475,15.113l-229.988,230.046
		c-3.27,3.27-7.162,6.358-11.537,9.172v-0.271l-14.271,7.626c-0.393,0.17-0.779,0.346-1.164,0.521
		c-0.377,0.172-0.748,0.346-1.129,0.497c-12.27,4.861-23.068,7.431-31.225,7.431H914.289c-8.157,0-18.955-2.569-31.224-7.431
		c-0.382-0.151-0.753-0.325-1.129-0.497c-0.385-0.176-0.771-0.352-1.165-0.521L866.5,418.64v0.006
		c-4.375-2.813-8.267-5.901-11.536-9.17l-229.99-230.048c-8.008-8.01-18.375-13.299-29.474-15.113v-0.018
		c0,0-2.519-0.798-8.352-0.798s-8.351,0.833-8.351,0.833v-0.017c-11.099,1.813-21.465,7.103-29.475,15.112L319.334,409.475
		c-4.838,4.837-11.075,9.295-18.144,13.021l-14.049,6.287c-0.265,0.109-0.521,0.216-0.772,0.322
		c-0.392,0.165-0.771,0.327-1.195,0.486c-8.264,3.088-16.739,4.859-23.25,4.859H109c-30.051,0-54.5,24.224-54.5,54
		c0,29.775,24.449,54,54.5,54h152.707c9.458,0,18.519,1.423,26.205,4.113l2.515,0.811l1.669,0.452
		c10.388,4.04,19.837,10.137,27.365,17.664l229.502,229.362c8.161,8.163,18.444,13.401,29.526,15.174l0.304,0.071l0.201,0.049
		l0.234,0.031l7.994,0.527l7.943-0.543l0.297-0.062l0.219-0.031l0.274-0.046c11.1-1.777,21.372-7.015,29.524-15.167l229.506-229.366
		c3.434-3.435,7.315-6.598,11.513-9.403l-0.001-0.049l14.274-7.314c0.393-0.17,0.778-0.345,1.161-0.521
		c0.354-0.162,0.705-0.325,1.059-0.469l5.286-1.949l1.386-0.554l0.388-0.111l0.261-0.072c9.284-3.133,17.488-4.772,23.976-4.772
		h218.458c6.48,0,14.674,1.637,23.947,4.763h-0.047l0.443,0.156l0.037,0.04l6.924,2.504c0.354,0.144,0.699,0.305,1.049,0.465
		c0.385,0.176,0.771,0.352,1.164,0.521l14.271,7.354v0.009c4.197,2.806,8.078,5.97,11.514,9.404l229.504,229.363
		c8.16,8.162,18.443,13.4,29.525,15.173l0.033,0.034l0.215,0.023h0.002l0.207,0.047c0,0,5.049,0.574,8.277,0.574
		c3.227,0,8.277-0.574,8.277-0.574v-0.016h0.215v-0.031l0.242-0.047l-0.002-0.015c11.102-1.777,21.373-7.015,29.525-15.167
		l229.506-229.366c7.525-7.525,16.973-13.622,27.361-17.662l1.238-0.326l2.738-0.867l0.209-0.07
		c7.686-2.691,16.748-4.113,26.205-4.113h152.707c30.051,0,54.5-24.225,54.5-54C1992.535,458.674,1968.086,434.45,1938.035,434.45z
		 M1460.035,172.003c0.469,0.009,0.996,0.041,1.549,0.082c0.496,0.033,1.451,0.074,1.451,0.112v0.017
		c1,0.061,1.092,0.111,1.092,0.111l0.021,0.012c10.383,1.048,20.053,5.602,27.551,13.101l229.99,230.048
		c7.977,7.975,19.301,15.081,32.301,19.96l0.043,0.028h0.002l0,0l2.512,1.124c0.814,0.332,1.512,0.647,2.338,0.956
		c9.09,3.396,18.646,5.396,26.227,5.396h152.924c25.363,0,46,20.411,46,45.5s-20.637,45.5-46,45.5h-152.707
		c-10.656,0-20.562,1.632-29.014,4.591l-2.305,0.74l-1.412,0.372l-0.012-0.028c-11.738,4.449-22.426,11.26-31.02,19.854
		l-229.506,229.364c-8.529,8.53-19.641,13.272-31.729,13.354l-0.297,0.004v-0.014h-0.158c0.027,0-0.014-0.001-0.064-0.002
		c-0.053,0.001-0.092,0.002-0.066,0.002h-0.156v0.014l-0.299-0.004c-12.088-0.082-23.199-4.824-31.729-13.354l-229.504-229.364
		c-7.357-7.355-16.254-13.392-26.023-17.772v0.464l-2.1-1.122c-0.973-0.403-1.883-0.868-2.834-1.245
		c-0.354-0.14-0.701-0.271-1.051-0.406l-0.436-0.115l0.002-0.043c-0.01,0-0.016-0.001-0.027-0.001v-0.02
		c-12.814-4.936-23.998-7.443-32.844-7.443h-109.229H914.289c-8.846,0-20.03,2.508-32.844,7.443v0.02
		c-0.012,0-0.018,0.001-0.028,0.001l0.003,0.043l-0.436,0.115c-0.351,0.136-0.697,0.267-1.05,0.406
		c-0.951,0.377-1.862,0.842-2.834,1.245l-2.1,1.122v-0.464c-9.77,4.381-18.667,10.417-26.023,17.772L619.471,788.843
		c-8.529,8.53-19.641,13.272-31.729,13.354l-0.298,0.004l0,0l0.047-0.047l-0.335,0.038L587,802.201l0,0l-0.298-0.004
		c-12.088-0.082-23.199-4.824-31.729-13.354L325.468,559.479c-8.594-8.594-19.282-15.404-31.02-19.854l-0.011,0.028l-1.412-0.372
		l-2.305-0.74c-8.451-2.959-18.358-4.591-29.013-4.591H109c-25.364,0-46-20.411-46-45.5s20.636-45.5,46-45.5h152.924
		c7.579,0,17.135-2,26.226-5.396c0.826-0.309,1.524-0.624,2.338-0.956l2.512-1.124l0,0H293l0.043-0.028
		c13-4.879,24.325-11.985,32.301-19.96l229.99-230.048c7.498-7.499,17.168-12.053,27.552-13.101l0.021-0.012
		c0,0,0.092-0.051,1.092-0.111v-0.017c0-0.038,0.954-0.079,1.45-0.112c0.554-0.041,1.08-0.073,1.55-0.082c0,0,0.084-0.005,0.297,0
		c0.47,0.009,0.996,0.041,1.55,0.082c0.496,0.033,1.45,0.074,1.45,0.112v0.017c1,0.061,1.093,0.111,1.093,0.111l0.021,0.012
		c10.384,1.048,20.054,5.602,27.552,13.101l229.99,230.048c6.667,6.666,15.679,12.719,26.047,17.378v-0.309l2.1,1.122
		c0.972,0.403,1.883,0.868,2.834,1.245c13.449,5.328,25.162,8.028,34.355,8.028h109.229h109.229c9.193,0,20.906-2.7,34.355-8.028
		c0.951-0.377,1.861-0.842,2.834-1.245l2.1-1.122v0.309c10.367-4.659,19.381-10.712,26.047-17.378l229.99-230.048
		c7.498-7.499,17.168-12.053,27.551-13.101l0.021-0.012c0,0,0.092-0.051,1.092-0.111v-0.017c0-0.038,0.955-0.079,1.451-0.112
		c0.553-0.041,1.08-0.073,1.549-0.082H1460.035z M587,802.201c0,0,0.373-0.017,0.46-0.016c0.088-0.001-0.016,0.016-0.016,0.016"/>
	<path fill="#716892" d="M587.014,790.05L587.014,790.05c-0.05,0.012-0.091,0.009-0.138,0.016
		C586.922,790.059,586.963,790.062,587.014,790.05z"/>
	<path fill="#716892" d="M586.876,790.065c-0.083,0.012-0.169,0.027-0.249,0.028c0.123-0.001,0.245-0.011,0.386-0.044l0,0
		C586.963,790.062,586.922,790.059,586.876,790.065z"/>
	<polygon fill="#716892" points="587.014,791.165 587.015,790.05 587.014,791.165 	"/>
	<polygon fill="#716892" points="587.014,790.05 587.015,790.05 587.014,790.05 	"/>
	<polygon fill="#716892" points="587.015,790.05 587.014,790.05 587.014,790.05 	"/>
	<polygon fill="#716892" points="587.014,791.165 587.015,790.05 587.014,790.05 	"/>
	<path fill="#716892" d="M587.157,801.95h0.131c0.026,0-0.013-0.001-0.065-0.002C587.17,801.949,587.13,801.95,587.157,801.95z"/>
	<polygon fill="#716892" points="293.025,526.555 294.648,527.013 293.025,526.555 	"/>
	<polygon fill="#716892" points="293.025,526.548 293,526.548 293.025,526.555 	"/>
	<polygon fill="#716892" points="291.919,448.541 291.927,448.563 292.97,448.107 292.97,448.107 	"/>
	<polygon fill="#716892" points="293,448.357 293,448.407 293,448.49 293,448.357 	"/>
	<polygon fill="#716892" points="876.433,446.415 876.611,445.95 876.609,445.95 	"/>
	<polygon fill="#716892" points="293.028,539.238 293.025,539.238 293.025,539.238 	"/>
	<path fill="#716892" d="M293,539.237l0.025,0.044v-0.043C293.016,539.238,293.01,539.237,293,539.237z"/>
	<path fill="#8D7E70" d="M293,526.917v-0.369h0.025v-2.07v-0.016c-0.106-0.027-0.218-0.056-0.36-0.099l-0.253-0.077
		c-8.991-2.877-19.322-4.336-30.705-4.336H109c-17.645,0-32-14.131-32-31.5s14.355-31.5,32-31.5h152.924
		c9.639,0,21.2-2.388,31.102-6.398l-0.001-0.073L293,450.488v-1.998L293,448.407v-0.05l-0.03,0.011l0-0.261l-1.043,0.456
		l-0.008-0.022l1.051-0.434L293,435.883v-0.409l-2.512,1.124c-0.814,0.332-1.512,0.647-2.338,0.956
		c-9.09,3.396-18.646,5.396-26.226,5.396H109c-25.364,0-46,20.411-46,45.5s20.636,45.5,46,45.5h152.707
		c10.655,0,20.562,1.632,29.013,4.591l2.305,0.74L293,539.237V526.917z"/>
	<polygon fill="#716892" points="293.025,539.238 293.025,539.281 293.028,539.238 	"/>
	<polygon fill="#716892" points="293,526.548 293.025,526.555 293.025,526.555 	"/>
	<path fill="#716892" d="M293.025,539.238L293.025,539.238c-0.009,0-0.015-0.001-0.025-0.001
		C293.01,539.237,293.016,539.238,293.025,539.238z"/>
	<path fill="#F79237" d="M587,801.945l0.014-10.78v-1.115c-0.142,0.033-0.263,0.043-0.386,0.044
		c0.079-0.001,0.165-0.017,0.249-0.028c-0.214,0.03-0.401,0.023-0.643,0.017c-0.536-0.016-1.072,0.053-1.605-0.022
		c-0.848-0.12-1.703-0.112-2.549-0.249c-0.906-0.146-1.801-0.35-2.696-0.55c-1.442-0.323-2.848-0.776-4.221-1.319
		c-2.78-1.102-5.476-2.479-7.866-4.286c-1.336-1.012-2.646-2.127-3.833-3.312L333.979,550.985
		c-10.728-10.729-24.491-19.016-39.33-23.973l-1.624-0.458v12.684c0.001,0,0.002,0,0.003,0l-0.003,0.043l1.412,0.372l0.011-0.028
		c11.738,4.449,22.426,11.26,31.02,19.854l229.505,229.364c8.529,8.53,19.64,13.272,31.729,13.354l0.298,0.004v-0.251h0.157
		c-0.026,0,0.013-0.001,0.065-0.002C587.134,801.947,587,801.945,587,801.945z"/>
	<path fill="#F79237" d="M293.025,526.555l1.624,0.458c14.839,4.957,28.602,13.244,39.33,23.973l229.485,229.358
		c1.187,1.185,2.496,2.3,3.833,3.312c2.39,1.808,5.085,3.185,7.866,4.286c1.373,0.543,2.779,0.996,4.221,1.319
		c0.895,0.2,1.791,0.403,2.696,0.55c0.847,0.137,1.702,0.129,2.549,0.249c0.533,0.075,1.069,0.007,1.605,0.022
		c0.242,0.007,0.429,0.014,0.643-0.017c0.046-0.007,0.087-0.004,0.138-0.016v-2.049l-0.403,0.093l-0.553-0.014
		c-0.158,0-0.715,0.016-0.835,0.016c-0.105,0-0.21-0.002-0.313-0.017c-0.444-0.062-0.891-0.096-1.337-0.127
		c-0.392-0.028-0.784-0.053-1.173-0.116c-0.805-0.13-1.606-0.31-2.455-0.499l-0.124-0.027c-1.271-0.285-2.554-0.687-3.921-1.228
		c-2.938-1.164-5.357-2.479-7.396-4.021c-1.343-1.017-2.563-2.07-3.625-3.132L335.393,549.571
		c-10.861-10.861-24.73-19.318-40.202-24.483l-2.166-0.61v2.07V526.555z"/>
	<path fill="#716892" d="M293,526.917v12.32c0.011,0,0.017,0.001,0.025,0.001v-12.684L293,526.548V526.917z"/>
	<polygon fill="#716892" points="297.687,445.95 297.685,445.95 297.863,446.415 	"/>
	<path fill="#F79237" d="M293,448.49l0.023,1.989l2.499-0.924l0.897-0.381c0.763-0.325,1.458-0.622,2.161-0.892
		c14.574-5.593,27.661-13.733,36.85-22.921l229.767-230.038c5.762-5.762,13.402-9.04,21.513-9.23v-0.006
		c0.033,0,0.148-0.001,0.29-0.002v-2.001v-0.133v-11.947c-0.47,0.009-0.996,0.041-1.55,0.082c-0.496,0.033-1.45,0.074-1.45,0.112
		v0.017c-1,0.061-1.092,0.111-1.092,0.111l-0.021,0.012c-10.384,1.048-20.054,5.602-27.552,13.101l-229.99,230.048
		c-7.976,7.975-19.301,15.081-32.301,19.96L293,435.474v12.883V448.49z M297.687,445.95l0.176,0.465l-0.178-0.465H297.687z"/>
	<polygon fill="#716892" points="293,450.488 293.024,450.479 293,448.49 	"/>
	<polygon fill="#716892" points="293,448.357 293,448.357 293,435.474 293,435.883 293,448.095 	"/>
	<polygon fill="#716892" points="292.97,448.107 292.97,448.107 293,448.095 	"/>
	<polygon fill="#716892" points="293,448.095 293,435.883 292.97,448.107 	"/>
	<polygon fill="#716892" points="292.97,448.107 292.97,448.368 293,448.357 293,448.095 	"/>
	<path fill="#F26557" d="M875,528.753v-2.136c-13.757,5.233-26.093,13.1-35.948,22.954L609.567,778.929
		c-1.062,1.062-2.283,2.115-3.625,3.132c-2.039,1.542-4.458,2.857-7.396,4.021c-1.367,0.541-2.65,0.942-3.921,1.228l-0.124,0.027
		c-0.848,0.189-1.65,0.369-2.455,0.499c-0.389,0.063-0.782,0.088-1.173,0.116c-0.447,0.031-0.893,0.064-1.337,0.127
		c-0.104,0.015-0.208,0.017-0.313,0.017c-0.12,0-0.677-0.016-0.835-0.016l-0.553,0.014l-0.403-0.093v2.049
		c0.142,0.032,0.263,0.043,0.386,0.044c-0.124-0.001-0.246-0.011-0.388-0.044l0.015,11.896c0,0-0.134,0.002-0.222,0.003
		c0.052,0.001,0.092,0.002,0.065,0.002h0.157v0.251l0.298-0.004c12.088-0.082,23.199-4.824,31.729-13.354l229.505-229.364
		c7.356-7.355,16.254-13.392,26.023-17.772v-11.908V528.753z"/>
	<path fill="#F26557" d="M875,444.927v-12.063c-10.369-4.659-19.381-10.712-26.047-17.378l-229.99-230.048
		c-7.498-7.499-17.168-12.053-27.552-13.101l-0.021-0.012c0,0-0.093-0.051-1.093-0.111v-0.017c0-0.038-0.954-0.079-1.45-0.112
		c-0.554-0.041-1.08-0.073-1.55-0.082v11.947v0.133v2.001c0.142,0.001,0.256,0.002,0.29,0.002v0.006
		c8.111,0.19,15.751,3.468,21.513,9.23l229.767,230.038c9.038,9.037,21.848,17.054,36.133,22.637v-2.026V444.927z"/>
	<polygon fill="#716892" points="1754.01,526.555 1752.385,527.013 1754.01,526.555 	"/>
	<polygon fill="#716892" points="1754.01,526.548 1754.035,526.548 1754.01,526.555 	"/>
	<polygon fill="#716892" points="1755.115,448.541 1755.107,448.563 1754.064,448.107 1754.064,448.107 	"/>
	<polygon fill="#716892" points="1754.035,448.357 1754.035,448.407 1754.033,448.49 1754.033,448.357 	"/>
	<polygon fill="#716892" points="1170.602,446.415 1170.422,445.95 1170.424,445.95 	"/>
	<polygon fill="#716892" points="1754.006,539.238 1754.01,539.238 1754.01,539.238 	"/>
	<path fill="#716892" d="M1754.035,539.237l-0.025,0.044v-0.043C1754.018,539.238,1754.023,539.237,1754.035,539.237z"/>
	<path fill="#797E7C" d="M1754.035,526.917v-0.369h-0.025v-2.07v-0.016c0.105-0.027,0.217-0.056,0.359-0.099l0.254-0.077
		c8.99-2.877,19.322-4.336,30.705-4.336h152.707c17.645,0,32-14.131,32-31.5s-14.355-31.5-32-31.5h-152.924
		c-9.639,0-21.201-2.388-31.102-6.398v-0.073l0.023,0.009v-1.998l0.002-0.083v-0.05l0.029,0.011v-0.261l1.043,0.456l0.008-0.022
		l-1.051-0.434l-0.029-12.224v-0.409l2.512,1.124c0.814,0.332,1.512,0.647,2.338,0.956c9.09,3.396,18.646,5.396,26.227,5.396
		h152.924c25.363,0,46,20.411,46,45.5s-20.637,45.5-46,45.5h-152.707c-10.656,0-20.562,1.632-29.014,4.591l-2.305,0.74l0.025-0.044
		V526.917z"/>
	<polygon fill="#716892" points="1754.01,539.238 1754.01,539.281 1754.006,539.238 	"/>
	<polygon fill="#716892" points="1754.035,526.548 1754.01,526.555 1754.01,526.555 	"/>
	<path fill="#716892" d="M1754.01,539.238L1754.01,539.238c0.008,0,0.014-0.001,0.025-0.001
		C1754.023,539.237,1754.018,539.238,1754.01,539.238z"/>
	<path fill="#00B49B" d="M1751.844,525.088c-15.473,5.165-29.342,13.622-40.203,24.483l-229.484,229.357
		c-1.062,1.062-2.283,2.115-3.625,3.132c-2.039,1.542-4.457,2.857-7.396,4.021c-1.365,0.541-2.648,0.942-3.92,1.228l-0.125,0.027
		c-0.848,0.189-1.648,0.369-2.453,0.499c-0.391,0.063-0.783,0.088-1.174,0.116c-0.447,0.031-0.893,0.064-1.338,0.127
		c-0.104,0.015-0.209,0.017-0.312,0.017c-0.121,0-0.678-0.016-0.836-0.016l-0.553,0.014l-0.404-0.093v2.049
		c0.051,0.012,0.092,0.009,0.139,0.016c0.084,0.012,0.17,0.027,0.248,0.028c-0.123-0.001-0.244-0.011-0.387-0.044v1.115l0.016,10.78
		c0,0-0.135,0.002-0.223,0.003c0.051,0.001,0.092,0.002,0.064,0.002h0.158v0.251l0.297-0.004
		c12.088-0.082,23.199-4.824,31.729-13.354l229.506-229.364c8.594-8.594,19.281-15.404,31.02-19.854l0.012,0.028l1.412-0.372
		l-0.004-0.043c0.002,0,0.002,0,0.004,0v-12.684v-0.007v-2.07L1751.844,525.088z"/>
	<path fill="#716892" d="M1754.035,526.917v12.32c-0.012,0-0.018,0.001-0.025,0.001v-12.684l0.025-0.007V526.917z"/>
	<polygon fill="#716892" points="1749.348,445.95 1749.35,445.95 1749.17,446.415 	"/>
	<path fill="#00B49B" d="M1754.033,448.357v-12.883l-0.043-0.028c-13-4.879-24.324-11.985-32.301-19.96l-229.99-230.048
		c-7.498-7.499-17.168-12.053-27.551-13.101l-0.021-0.012c0,0-0.092-0.051-1.092-0.111v-0.017c0-0.038-0.955-0.079-1.451-0.112
		c-0.553-0.041-1.08-0.073-1.549-0.082v11.947v0.133v2.001c0.141,0.001,0.256,0.002,0.289,0.002v0.006
		c8.111,0.19,15.75,3.468,21.514,9.23l229.766,230.038c9.189,9.188,22.275,17.329,36.85,22.921c0.703,0.27,1.398,0.566,2.16,0.892
		l0.898,0.381l2.498,0.924l0.023-1.989V448.357z M1749.35,445.95l-0.18,0.465l0.178-0.465H1749.35z"/>
	<polygon fill="#716892" points="1754.033,450.488 1754.01,450.479 1754.033,448.49 	"/>
	<polygon fill="#716892" points="1754.035,448.357 1754.033,448.357 1754.033,435.474 1754.035,435.883 1754.035,448.095 	"/>
	<polygon fill="#716892" points="1754.064,448.107 1754.064,448.107 1754.035,448.095 	"/>
	<polygon fill="#716892" points="1754.035,448.095 1754.035,435.883 1754.064,448.107 	"/>
	<polygon fill="#716892" points="1754.064,448.107 1754.064,448.368 1754.035,448.357 1754.035,448.095 	"/>
	<path fill="#0074B3" d="M1172.035,528.753v-2.136c13.756,5.233,26.092,13.1,35.947,22.954l229.484,229.357
		c1.062,1.062,2.283,2.115,3.625,3.132c2.039,1.542,4.459,2.857,7.396,4.021c1.367,0.541,2.65,0.942,3.922,1.228l0.123,0.027
		c0.848,0.189,1.65,0.369,2.455,0.499c0.389,0.063,0.781,0.088,1.172,0.116c0.447,0.031,0.895,0.064,1.338,0.127
		c0.104,0.015,0.209,0.017,0.314,0.017c0.119,0,0.676-0.016,0.834-0.016l0.553,0.014l0.404-0.093v2.049
		c-0.143,0.032-0.264,0.043-0.387,0.044c0.123-0.001,0.246-0.011,0.389-0.044l-0.016,11.896c0,0,0.135,0.002,0.223,0.003
		c-0.053,0.001-0.092,0.002-0.066,0.002h-0.156v0.251l-0.299-0.004c-12.088-0.082-23.199-4.824-31.729-13.354l-229.504-229.364
		c-7.357-7.355-16.254-13.392-26.023-17.772v-11.908V528.753z"/>
	<path fill="#0074B3" d="M1172.035,444.927v-12.063c10.367-4.659,19.381-10.712,26.047-17.378l229.99-230.048
		c7.498-7.499,17.168-12.053,27.551-13.101l0.021-0.012c0,0,0.092-0.051,1.092-0.111v-0.017c0-0.038,0.955-0.079,1.451-0.112
		c0.553-0.041,1.08-0.073,1.549-0.082v11.947v0.133v2.001c-0.141,0.001-0.256,0.002-0.289,0.002v0.006
		c-8.111,0.19-15.75,3.468-21.514,9.23l-229.766,230.038c-9.037,9.037-21.848,17.054-36.133,22.637v-2.026V444.927z"/>
	<path fill="#716892" d="M1169.936,433.677c-0.973,0.403-1.883,0.868-2.834,1.245c-13.449,5.328-25.162,8.028-34.355,8.028h-109.229
		H914.289c-9.193,0-20.907-2.7-34.355-8.028c-0.951-0.377-1.862-0.842-2.834-1.245l-2.1-1.122v0.309v12.063v1.045v2.026
		c0.24,0.094,0.476,0.192,0.716,0.285c0.703,0.27,1.398,0.566,2.161,0.892l0.661,0.28l0.236,0.101l2.522,0.933v-0.049
		c12.296,4.266,23.595,6.511,32.993,6.511h109.229h109.229c9.396,0,20.695-2.245,32.992-6.511v0.049l2.521-0.933l0.236-0.101
		l0.662-0.28c0.762-0.325,1.457-0.622,2.16-0.892c0.24-0.092,0.477-0.191,0.717-0.285v-2.026v-1.045v-12.063v-0.309
		L1169.936,433.677z M876.433,446.415l0.177-0.465h0.002L876.433,446.415z M1170.422,445.95h0.002l0.178,0.465L1170.422,445.95z"/>
	<path fill="#716892" d="M1132.746,517.774h-109.229H914.289c-10.981,0-24.555,3.057-39.289,8.834v0.009v2.136v1.045v11.908v0.464
		l2.1-1.122c0.972-0.403,1.883-0.868,2.834-1.245c0.353-0.14,0.699-0.271,1.05-0.406l0.436-0.115l-0.003-0.043
		c0.011,0,0.017-0.001,0.028-0.001v-0.02c12.813-4.936,23.998-7.443,32.844-7.443h109.229h109.229
		c8.846,0,20.029,2.508,32.844,7.443v0.02c0.012,0,0.018,0.001,0.027,0.001l-0.002,0.043l0.436,0.115
		c0.35,0.136,0.697,0.267,1.051,0.406c0.951,0.377,1.861,0.842,2.834,1.245l2.1,1.122v-0.464v-11.908v-1.045v-2.136v-0.009
		C1157.301,520.831,1143.727,517.774,1132.746,517.774z"/>
	<polygon fill="#F79237" points="581,890.64 581.653,890.905 581,890.294 	"/>
	<g>
		<g>
			<g>
				<path fill="#808285" d="M423.907,99.33h7.047c2.609,0,4.526,0.693,5.751,2.079c1.224,1.386,1.836,3.627,1.836,6.723
					c0,2.97-0.612,5.144-1.836,6.521c-1.225,1.377-3.142,2.065-5.751,2.065h-7.047V99.33z M430.495,114.45
					c1.206,0,2.174-0.175,2.902-0.526c0.729-0.351,1.278-0.985,1.647-1.904c0.368-0.918,0.553-2.214,0.553-3.888
					c0-1.692-0.171-3.006-0.513-3.942s-0.877-1.597-1.606-1.985c-0.729-0.387-1.724-0.58-2.983-0.58h-3.646v12.825H430.495z"/>
			</g>
			<g>
				<path fill="#808285" d="M441.43,99.33h12.123v2.295h-9.181v5.265h8.182v2.268h-8.182v5.292h9.181v2.268H441.43V99.33z"/>
			</g>
			<g>
				<path fill="#808285" d="M456.117,116.124v-2.592c1.674,0.648,3.393,0.972,5.157,0.972c1.458,0,2.515-0.171,3.172-0.513
					c0.657-0.342,0.985-0.981,0.985-1.917c0-0.594-0.139-1.066-0.418-1.417s-0.733-0.652-1.363-0.904
					c-0.631-0.252-1.575-0.54-2.835-0.864c-1.873-0.486-3.187-1.102-3.942-1.85c-0.756-0.747-1.134-1.777-1.134-3.091
					c0-1.548,0.566-2.75,1.701-3.604c1.134-0.854,2.79-1.283,4.968-1.283c0.954,0,1.876,0.068,2.768,0.203
					c0.891,0.135,1.615,0.302,2.174,0.5v2.592c-1.368-0.522-2.881-0.783-4.536-0.783c-1.368,0-2.395,0.18-3.078,0.54
					c-0.685,0.36-1.026,0.972-1.026,1.836c0,0.522,0.126,0.941,0.378,1.255c0.252,0.315,0.671,0.594,1.256,0.837
					c0.585,0.243,1.462,0.509,2.633,0.797c2.033,0.522,3.446,1.197,4.238,2.025c0.792,0.829,1.188,1.899,1.188,3.213
					c0,1.548-0.581,2.754-1.742,3.618c-1.16,0.864-2.866,1.296-5.116,1.296S457.484,116.7,456.117,116.124z"/>
			</g>
			<g>
				<path fill="#808285" d="M471.265,99.33h2.942v17.388h-2.942V99.33z"/>
			</g>
			<g>
				<path fill="#808285" d="M479.283,114.706c-1.477-1.521-2.214-3.631-2.214-6.331c0-2.934,0.729-5.22,2.187-6.858
					c1.458-1.638,3.636-2.457,6.534-2.457c1.926,0,3.646,0.261,5.157,0.783v2.538c-1.494-0.54-3.132-0.81-4.914-0.81
					c-2.143,0-3.677,0.563-4.604,1.688c-0.928,1.125-1.391,2.831-1.391,5.117c0,4.086,1.917,6.129,5.751,6.129
					c1.548,0,2.799-0.18,3.753-0.54v-4.86h-4.347v-1.917h6.858v8.37c-0.648,0.415-1.499,0.756-2.552,1.026
					c-1.054,0.27-2.318,0.405-3.794,0.405C482.901,116.988,480.759,116.228,479.283,114.706z"/>
			</g>
			<g>
				<path fill="#808285" d="M494.916,99.33h2.592l9.072,12.798V99.33h2.916v17.388h-2.592l-9.046-12.771v12.771h-2.942V99.33z"/>
			</g>
			<g>
				<path fill="#808285" d="M527.423,101.625h-5.562V99.33h14.04v2.295h-5.535v15.093h-2.943V101.625z"/>
			</g>
			<g>
				<path fill="#808285" d="M538.25,99.33h2.942v7.56h8.37v-7.56h2.943v17.388h-2.943v-7.56h-8.37v7.56h-2.942V99.33z"/>
			</g>
			<g>
				<path fill="#808285" d="M555.908,99.33h12.123v2.295h-9.181v5.265h8.182v2.268h-8.182v5.292h9.181v2.268h-12.123V99.33z"/>
			</g>
			<g>
				<path fill="#808285" d="M580.747,99.33h7.992c1.89,0,3.294,0.486,4.212,1.458c0.918,0.972,1.377,2.34,1.377,4.104
					c0,1.242-0.311,2.291-0.932,3.146c-0.621,0.855-1.499,1.454-2.633,1.796c0.306,0.216,0.549,0.455,0.729,0.715
					c0.18,0.261,0.368,0.634,0.566,1.121l2.188,5.049h-3.024l-2.133-4.86c-0.216-0.486-0.468-0.824-0.756-1.013
					s-0.747-0.283-1.377-0.283h-3.268v6.156h-2.942V99.33z M587.956,108.186c2.285,0,3.429-1.098,3.429-3.294
					c0-2.178-1.053-3.267-3.159-3.267h-4.536v6.561H587.956z"/>
			</g>
			<g>
				<path fill="#808285" d="M597.217,99.33h2.942v17.388h-2.942V99.33z"/>
			</g>
			<g>
				<path fill="#808285" d="M605.235,114.706c-1.477-1.521-2.214-3.631-2.214-6.331c0-2.934,0.729-5.22,2.187-6.858
					c1.458-1.638,3.636-2.457,6.534-2.457c1.926,0,3.646,0.261,5.157,0.783v2.538c-1.494-0.54-3.132-0.81-4.914-0.81
					c-2.143,0-3.677,0.563-4.604,1.688c-0.928,1.125-1.391,2.831-1.391,5.117c0,4.086,1.917,6.129,5.751,6.129
					c1.548,0,2.799-0.18,3.753-0.54v-4.86h-4.347v-1.917h6.858v8.37c-0.648,0.415-1.499,0.756-2.552,1.026
					c-1.054,0.27-2.318,0.405-3.794,0.405C608.854,116.988,606.711,116.228,605.235,114.706z"/>
			</g>
			<g>
				<path fill="#808285" d="M620.868,99.33h2.942v7.56h8.37v-7.56h2.943v17.388h-2.943v-7.56h-8.37v7.56h-2.942V99.33z"/>
			</g>
			<g>
				<path fill="#808285" d="M643.035,101.625h-5.562V99.33h14.04v2.295h-5.535v15.093h-2.943V101.625z"/>
			</g>
			<g>
				<path fill="#808285" d="M668.36,101.625h-5.562V99.33h14.04v2.295h-5.535v15.093h-2.943V101.625z"/>
			</g>
			<g>
				<path fill="#808285" d="M679.188,99.33h2.942v7.56h8.37v-7.56h2.943v17.388H690.5v-7.56h-8.37v7.56h-2.942V99.33z"/>
			</g>
			<g>
				<path fill="#808285" d="M696.846,99.33h2.942v17.388h-2.942V99.33z"/>
			</g>
			<g>
				<path fill="#808285" d="M703.19,99.33h2.592l9.072,12.798V99.33h2.916v17.388h-2.592l-9.046-12.771v12.771h-2.942V99.33z"/>
			</g>
			<g>
				<path fill="#808285" d="M722.873,114.706c-1.477-1.521-2.214-3.631-2.214-6.331c0-2.934,0.729-5.22,2.187-6.858
					c1.458-1.638,3.636-2.457,6.534-2.457c1.926,0,3.646,0.261,5.157,0.783v2.538c-1.494-0.54-3.132-0.81-4.914-0.81
					c-2.143,0-3.677,0.563-4.604,1.688c-0.928,1.125-1.391,2.831-1.391,5.117c0,4.086,1.917,6.129,5.751,6.129
					c1.548,0,2.799-0.18,3.753-0.54v-4.86h-4.347v-1.917h6.858v8.37c-0.648,0.415-1.499,0.756-2.552,1.026
					c-1.054,0.27-2.318,0.405-3.794,0.405C726.491,116.988,724.349,116.228,722.873,114.706z"/>
			</g>
		</g>
		<g>
			<g>
				<path fill="#808285" d="M377.253,871.062h7.992c1.89,0,3.294,0.486,4.212,1.457c0.918,0.973,1.377,2.341,1.377,4.104
					c0,1.242-0.311,2.291-0.932,3.146c-0.621,0.855-1.499,1.454-2.633,1.796c0.306,0.216,0.549,0.454,0.729,0.716
					c0.18,0.261,0.368,0.634,0.566,1.12l2.188,5.049h-3.024l-2.133-4.86c-0.216-0.486-0.468-0.823-0.756-1.012
					c-0.288-0.189-0.747-0.283-1.377-0.283h-3.268v6.155h-2.942V871.062z M384.462,879.918c2.285,0,3.429-1.098,3.429-3.294
					c0-2.178-1.053-3.267-3.159-3.267h-4.536v6.561H384.462z"/>
			</g>
			<g>
				<path fill="#808285" d="M393.723,871.062h12.123v2.295h-9.181v5.265h8.182v2.269h-8.182v5.291h9.181v2.269h-12.123V871.062z"/>
			</g>
			<g>
				<path fill="#808285" d="M408.41,887.855v-2.592c1.674,0.648,3.393,0.973,5.157,0.973c1.458,0,2.515-0.171,3.172-0.514
					c0.657-0.342,0.985-0.98,0.985-1.916c0-0.594-0.139-1.066-0.418-1.418s-0.733-0.652-1.363-0.904
					c-0.631-0.252-1.575-0.54-2.835-0.864c-1.873-0.485-3.187-1.103-3.942-1.85s-1.134-1.777-1.134-3.091
					c0-1.549,0.566-2.75,1.701-3.605c1.134-0.854,2.79-1.282,4.968-1.282c0.954,0,1.876,0.067,2.768,0.202
					c0.891,0.136,1.615,0.303,2.174,0.5v2.592c-1.368-0.521-2.881-0.783-4.536-0.783c-1.368,0-2.395,0.181-3.078,0.541
					c-0.685,0.359-1.026,0.972-1.026,1.836c0,0.521,0.126,0.94,0.378,1.255c0.252,0.315,0.671,0.595,1.256,0.837
					c0.585,0.243,1.462,0.509,2.633,0.797c2.033,0.521,3.446,1.197,4.238,2.025s1.188,1.898,1.188,3.213
					c0,1.548-0.581,2.754-1.742,3.617c-1.16,0.864-2.866,1.297-5.116,1.297S409.777,888.433,408.41,887.855z"/>
			</g>
			<g>
				<path fill="#808285" d="M423.557,871.062h12.123v2.295h-9.181v5.265h8.182v2.269h-8.182v5.291h9.181v2.269h-12.123V871.062z"/>
			</g>
			<g>
				<path fill="#808285" d="M444.535,871.062h3.294l6.588,17.388h-3.023l-1.729-4.481h-6.993l-1.728,4.481h-3.051L444.535,871.062z
					 M449.179,881.7l-3.023-7.965l-3.024,7.965H449.179z"/>
			</g>
			<g>
				<path fill="#808285" d="M457.307,871.062h7.992c1.89,0,3.294,0.486,4.212,1.457c0.918,0.973,1.377,2.341,1.377,4.104
					c0,1.242-0.311,2.291-0.932,3.146c-0.621,0.855-1.499,1.454-2.633,1.796c0.306,0.216,0.549,0.454,0.729,0.716
					c0.18,0.261,0.368,0.634,0.566,1.12l2.188,5.049h-3.024l-2.133-4.86c-0.216-0.486-0.468-0.823-0.756-1.012
					c-0.288-0.189-0.747-0.283-1.377-0.283h-3.268v6.155h-2.942V871.062z M464.516,879.918c2.285,0,3.429-1.098,3.429-3.294
					c0-2.178-1.053-3.267-3.159-3.267h-4.536v6.561H464.516z"/>
			</g>
			<g>
				<path fill="#808285" d="M475.072,886.412c-1.494-1.539-2.241-3.668-2.241-6.386c0-2.935,0.72-5.206,2.16-6.817
					c1.439-1.611,3.608-2.417,6.507-2.417c1.817,0,3.519,0.279,5.103,0.837v2.565c-1.53-0.595-3.158-0.892-4.887-0.892
					c-2.105,0-3.618,0.559-4.536,1.674c-0.918,1.117-1.377,2.8-1.377,5.05c0,2.052,0.49,3.601,1.472,4.644
					c0.98,1.045,2.479,1.566,4.495,1.566c1.782,0,3.402-0.279,4.86-0.837v2.592c-1.548,0.485-3.249,0.729-5.103,0.729
					C478.717,888.721,476.565,887.951,475.072,886.412z"/>
			</g>
			<g>
				<path fill="#808285" d="M489.49,871.062h2.942v7.56h8.37v-7.56h2.943v17.388h-2.943v-7.56h-8.37v7.56h-2.942V871.062z"/>
			</g>
		</g>
		<g>
			<g>
				<path fill="#808285" d="M666.821,887.855v-2.592c1.674,0.648,3.393,0.973,5.157,0.973c1.458,0,2.515-0.171,3.172-0.514
					c0.657-0.342,0.985-0.98,0.985-1.916c0-0.594-0.139-1.066-0.418-1.418s-0.733-0.652-1.363-0.904
					c-0.631-0.252-1.575-0.54-2.835-0.864c-1.873-0.485-3.187-1.103-3.942-1.85s-1.134-1.777-1.134-3.091
					c0-1.549,0.566-2.75,1.701-3.605c1.134-0.854,2.79-1.282,4.968-1.282c0.954,0,1.876,0.067,2.768,0.202
					c0.891,0.136,1.615,0.303,2.174,0.5v2.592c-1.368-0.521-2.881-0.783-4.536-0.783c-1.368,0-2.395,0.181-3.078,0.541
					c-0.685,0.359-1.026,0.972-1.026,1.836c0,0.521,0.126,0.94,0.378,1.255c0.252,0.315,0.671,0.595,1.256,0.837
					c0.585,0.243,1.462,0.509,2.633,0.797c2.033,0.521,3.446,1.197,4.238,2.025s1.188,1.898,1.188,3.213
					c0,1.548-0.581,2.754-1.742,3.617c-1.16,0.864-2.866,1.297-5.116,1.297S668.188,888.433,666.821,887.855z"/>
			</g>
			<g>
				<path fill="#808285" d="M686.45,881.997l-6.237-10.935h3.051l4.645,8.451l4.644-8.451h3.051l-6.236,10.935v6.453h-2.916V881.997
					z"/>
			</g>
			<g>
				<path fill="#808285" d="M697.25,871.062h2.592l9.072,12.798v-12.798h2.916v17.388h-2.592l-9.046-12.771v12.771h-2.942V871.062z"
					/>
			</g>
			<g>
				<path fill="#808285" d="M719.768,873.357h-5.562v-2.295h14.04v2.295h-5.535v15.093h-2.943V873.357z"/>
			</g>
			<g>
				<path fill="#808285" d="M730.595,871.062h2.942v7.56h8.37v-7.56h2.943v17.388h-2.943v-7.56h-8.37v7.56h-2.942V871.062z"/>
			</g>
			<g>
				<path fill="#808285" d="M748.252,871.062h12.123v2.295h-9.181v5.265h8.182v2.269h-8.182v5.291h9.181v2.269h-12.123V871.062z"/>
			</g>
			<g>
				<path fill="#808285" d="M762.94,887.855v-2.592c1.674,0.648,3.393,0.973,5.157,0.973c1.458,0,2.515-0.171,3.172-0.514
					c0.657-0.342,0.985-0.98,0.985-1.916c0-0.594-0.139-1.066-0.418-1.418s-0.733-0.652-1.363-0.904
					c-0.631-0.252-1.575-0.54-2.835-0.864c-1.873-0.485-3.187-1.103-3.942-1.85s-1.134-1.777-1.134-3.091
					c0-1.549,0.566-2.75,1.701-3.605c1.134-0.854,2.79-1.282,4.968-1.282c0.954,0,1.876,0.067,2.768,0.202
					c0.891,0.136,1.615,0.303,2.174,0.5v2.592c-1.368-0.521-2.881-0.783-4.536-0.783c-1.368,0-2.395,0.181-3.078,0.541
					c-0.685,0.359-1.026,0.972-1.026,1.836c0,0.521,0.126,0.94,0.378,1.255c0.252,0.315,0.671,0.595,1.256,0.837
					c0.585,0.243,1.462,0.509,2.633,0.797c2.033,0.521,3.446,1.197,4.238,2.025s1.188,1.898,1.188,3.213
					c0,1.548-0.581,2.754-1.742,3.617c-1.16,0.864-2.866,1.297-5.116,1.297S764.308,888.433,762.94,887.855z"/>
			</g>
			<g>
				<path fill="#808285" d="M778.087,871.062h2.942v17.388h-2.942V871.062z"/>
			</g>
			<g>
				<path fill="#808285" d="M784.27,887.855v-2.592c1.674,0.648,3.393,0.973,5.157,0.973c1.458,0,2.515-0.171,3.172-0.514
					c0.657-0.342,0.985-0.98,0.985-1.916c0-0.594-0.139-1.066-0.418-1.418s-0.733-0.652-1.363-0.904
					c-0.631-0.252-1.575-0.54-2.835-0.864c-1.873-0.485-3.187-1.103-3.942-1.85s-1.134-1.777-1.134-3.091
					c0-1.549,0.566-2.75,1.701-3.605c1.134-0.854,2.79-1.282,4.968-1.282c0.954,0,1.876,0.067,2.768,0.202
					c0.891,0.136,1.615,0.303,2.174,0.5v2.592c-1.368-0.521-2.881-0.783-4.536-0.783c-1.368,0-2.395,0.181-3.078,0.541
					c-0.685,0.359-1.026,0.972-1.026,1.836c0,0.521,0.126,0.94,0.378,1.255c0.252,0.315,0.671,0.595,1.256,0.837
					c0.585,0.243,1.462,0.509,2.633,0.797c2.033,0.521,3.446,1.197,4.238,2.025s1.188,1.898,1.188,3.213
					c0,1.548-0.581,2.754-1.742,3.617c-1.16,0.864-2.866,1.297-5.116,1.297S785.637,888.433,784.27,887.855z"/>
			</g>
		</g>
		<g>
			<g>
				<path fill="#808285" d="M1264.326,871.062h2.942v17.388h-2.942V871.062z"/>
			</g>
			<g>
				<path fill="#808285" d="M1270.671,871.062h7.046c2.61,0,4.527,0.693,5.752,2.078c1.224,1.387,1.836,3.628,1.836,6.724
					c0,2.97-0.612,5.144-1.836,6.521c-1.225,1.377-3.142,2.065-5.752,2.065h-7.046V871.062z M1277.258,886.182
					c1.207,0,2.175-0.175,2.903-0.525c0.729-0.352,1.278-0.986,1.647-1.904c0.368-0.918,0.553-2.214,0.553-3.888
					c0-1.692-0.171-3.006-0.513-3.942c-0.342-0.936-0.877-1.597-1.606-1.984c-0.729-0.387-1.724-0.58-2.984-0.58h-3.645v12.824
					H1277.258z"/>
			</g>
			<g>
				<path fill="#808285" d="M1288.193,871.062h12.123v2.295h-9.181v5.265h8.182v2.269h-8.182v5.291h9.181v2.269h-12.123V871.062z"/>
			</g>
			<g>
				<path fill="#808285" d="M1309.172,871.062h3.293l6.589,17.388h-3.023l-1.729-4.481h-6.992l-1.728,4.481h-3.051L1309.172,871.062
					z M1313.815,881.7l-3.023-7.965l-3.024,7.965H1313.815z"/>
			</g>
			<g>
				<path fill="#808285" d="M1323.077,873.357h-5.562v-2.295h14.04v2.295h-5.535v15.093h-2.943V873.357z"/>
			</g>
			<g>
				<path fill="#808285" d="M1333.904,871.062h2.942v17.388h-2.942V871.062z"/>
			</g>
			<g>
				<path fill="#808285" d="M1341.746,886.547c-1.359-1.449-2.038-3.694-2.038-6.736c0-3.133,0.675-5.418,2.024-6.858
					c1.351-1.44,3.42-2.16,6.211-2.16c2.789,0,4.859,0.72,6.21,2.16c1.35,1.44,2.024,3.726,2.024,6.858
					c0,3.042-0.68,5.287-2.038,6.736c-1.359,1.449-3.425,2.174-6.196,2.174C1345.171,888.721,1343.105,887.996,1341.746,886.547z
					 M1351.965,884.725c0.847-1.008,1.271-2.646,1.271-4.914c0-2.358-0.419-4.032-1.256-5.022c-0.837-0.989-2.183-1.485-4.036-1.485
					c-1.837,0-3.173,0.496-4.01,1.485c-0.837,0.99-1.256,2.664-1.256,5.022c0,2.25,0.423,3.883,1.27,4.9
					c0.846,1.018,2.178,1.525,3.996,1.525C1349.779,886.236,1351.119,885.732,1351.965,884.725z"/>
			</g>
			<g>
				<path fill="#808285" d="M1359.067,871.062h2.592l9.072,12.798v-12.798h2.916v17.388h-2.592l-9.046-12.771v12.771h-2.942V871.062
					z"/>
			</g>
		</g>
		<g>
			<g>
				<path fill="#808285" d="M1505.889,871.062h2.942v17.388h-2.942V871.062z"/>
			</g>
			<g>
				<path fill="#808285" d="M1512.233,871.062h3.023l5.509,11.259l5.48-11.259h3.024v17.388h-2.916v-12.608l-4.698,9.611h-1.782
					l-4.725-9.611v12.608h-2.916V871.062z"/>
			</g>
			<g>
				<path fill="#808285" d="M1532.672,871.062h7.749c1.926,0,3.378,0.531,4.36,1.593c0.98,1.062,1.472,2.466,1.472,4.212
					c0,1.729-0.536,3.114-1.606,4.158c-1.071,1.044-2.516,1.566-4.334,1.566h-4.698v5.858h-2.942V871.062z M1539.772,880.27
					c1.134,0,2.007-0.302,2.619-0.904c0.612-0.604,0.918-1.436,0.918-2.498c0-1.115-0.288-1.98-0.864-2.592
					s-1.422-0.918-2.538-0.918h-4.293v6.912H1539.772z"/>
			</g>
			<g>
				<path fill="#808285" d="M1548.602,871.062h2.942v15.119h8.91v2.269h-11.853V871.062z"/>
			</g>
			<g>
				<path fill="#808285" d="M1562.372,871.062h12.123v2.295h-9.181v5.265h8.182v2.269h-8.182v5.291h9.181v2.269h-12.123V871.062z"/>
			</g>
			<g>
				<path fill="#808285" d="M1577.222,871.062h3.023l5.509,11.259l5.48-11.259h3.023v17.388h-2.916v-12.608l-4.697,9.611h-1.782
					l-4.725-9.611v12.608h-2.916V871.062z"/>
			</g>
			<g>
				<path fill="#808285" d="M1597.66,871.062h12.123v2.295h-9.181v5.265h8.182v2.269h-8.182v5.291h9.181v2.269h-12.123V871.062z"/>
			</g>
			<g>
				<path fill="#808285" d="M1612.51,871.062h2.592l9.072,12.798v-12.798h2.916v17.388h-2.592l-9.046-12.771v12.771h-2.942V871.062z
					"/>
			</g>
			<g>
				<path fill="#808285" d="M1635.027,873.357h-5.562v-2.295h14.041v2.295h-5.535v15.093h-2.943V873.357z"/>
			</g>
			<g>
				<path fill="#808285" d="M1648.608,871.062h3.294l6.588,17.388h-3.023l-1.729-4.481h-6.993l-1.728,4.481h-3.051L1648.608,871.062
					z M1653.252,881.7l-3.023-7.965l-3.024,7.965H1653.252z"/>
			</g>
			<g>
				<path fill="#808285" d="M1662.513,873.357h-5.562v-2.295h14.04v2.295h-5.535v15.093h-2.943V873.357z"/>
			</g>
			<g>
				<path fill="#808285" d="M1673.34,871.062h2.942v17.388h-2.942V871.062z"/>
			</g>
			<g>
				<path fill="#808285" d="M1681.183,886.547c-1.359-1.449-2.038-3.694-2.038-6.736c0-3.133,0.675-5.418,2.024-6.858
					c1.351-1.44,3.42-2.16,6.211-2.16c2.789,0,4.859,0.72,6.21,2.16c1.35,1.44,2.024,3.726,2.024,6.858
					c0,3.042-0.68,5.287-2.038,6.736c-1.359,1.449-3.425,2.174-6.196,2.174C1684.607,888.721,1682.542,887.996,1681.183,886.547z
					 M1691.402,884.725c0.846-1.008,1.27-2.646,1.27-4.914c0-2.358-0.419-4.032-1.256-5.022c-0.837-0.989-2.183-1.485-4.036-1.485
					c-1.837,0-3.173,0.496-4.01,1.485c-0.837,0.99-1.256,2.664-1.256,5.022c0,2.25,0.423,3.883,1.269,4.9
					c0.847,1.018,2.179,1.525,3.997,1.525C1689.215,886.236,1690.556,885.732,1691.402,884.725z"/>
			</g>
			<g>
				<path fill="#808285" d="M1698.504,871.062h2.592l9.072,12.798v-12.798h2.916v17.388h-2.592l-9.046-12.771v12.771h-2.942V871.062
					z"/>
			</g>
		</g>
		<g>
			<g>
				<path fill="#808285" d="M1302.407,99.33h7.047c2.609,0,4.526,0.693,5.751,2.079c1.224,1.386,1.836,3.627,1.836,6.723
					c0,2.97-0.612,5.144-1.836,6.521c-1.225,1.377-3.142,2.065-5.751,2.065h-7.047V99.33z M1308.995,114.45
					c1.206,0,2.174-0.175,2.902-0.526c0.729-0.351,1.278-0.985,1.647-1.904c0.368-0.918,0.553-2.214,0.553-3.888
					c0-1.692-0.171-3.006-0.513-3.942s-0.877-1.597-1.606-1.985c-0.729-0.387-1.724-0.58-2.983-0.58h-3.646v12.825H1308.995z"/>
			</g>
			<g>
				<path fill="#808285" d="M1319.93,99.33h12.123v2.295h-9.181v5.265h8.182v2.268h-8.182v5.292h9.181v2.268h-12.123V99.33z"/>
			</g>
			<g>
				<path fill="#808285" d="M1334.617,116.124v-2.592c1.674,0.648,3.393,0.972,5.157,0.972c1.458,0,2.515-0.171,3.172-0.513
					c0.657-0.342,0.985-0.981,0.985-1.917c0-0.594-0.139-1.066-0.418-1.417s-0.733-0.652-1.363-0.904
					c-0.631-0.252-1.575-0.54-2.835-0.864c-1.873-0.486-3.187-1.102-3.942-1.85c-0.756-0.747-1.134-1.777-1.134-3.091
					c0-1.548,0.566-2.75,1.701-3.604c1.134-0.854,2.79-1.283,4.968-1.283c0.954,0,1.876,0.068,2.768,0.203
					c0.891,0.135,1.615,0.302,2.174,0.5v2.592c-1.368-0.522-2.881-0.783-4.536-0.783c-1.368,0-2.395,0.18-3.078,0.54
					c-0.685,0.36-1.026,0.972-1.026,1.836c0,0.522,0.126,0.941,0.378,1.255c0.252,0.315,0.671,0.594,1.255,0.837
					c0.586,0.243,1.463,0.509,2.634,0.797c2.032,0.522,3.446,1.197,4.238,2.025c0.792,0.829,1.188,1.899,1.188,3.213
					c0,1.548-0.581,2.754-1.742,3.618c-1.16,0.864-2.866,1.296-5.116,1.296S1335.984,116.7,1334.617,116.124z"/>
			</g>
			<g>
				<path fill="#808285" d="M1349.765,99.33h2.942v17.388h-2.942V99.33z"/>
			</g>
			<g>
				<path fill="#808285" d="M1357.783,114.706c-1.477-1.521-2.214-3.631-2.214-6.331c0-2.934,0.729-5.22,2.187-6.858
					c1.458-1.638,3.636-2.457,6.534-2.457c1.925,0,3.646,0.261,5.157,0.783v2.538c-1.494-0.54-3.132-0.81-4.914-0.81
					c-2.143,0-3.677,0.563-4.604,1.688c-0.928,1.125-1.391,2.831-1.391,5.117c0,4.086,1.917,6.129,5.751,6.129
					c1.548,0,2.799-0.18,3.753-0.54v-4.86h-4.347v-1.917h6.858v8.37c-0.648,0.415-1.499,0.756-2.552,1.026
					c-1.054,0.27-2.318,0.405-3.794,0.405C1361.401,116.988,1359.258,116.228,1357.783,114.706z"/>
			</g>
			<g>
				<path fill="#808285" d="M1373.416,99.33h2.592l9.072,12.798V99.33h2.916v17.388h-2.592l-9.046-12.771v12.771h-2.942V99.33z"/>
			</g>
			<g>
				<path fill="#808285" d="M1405.923,101.625h-5.562V99.33h14.04v2.295h-5.535v15.093h-2.943V101.625z"/>
			</g>
			<g>
				<path fill="#808285" d="M1416.75,99.33h2.942v7.56h8.37v-7.56h2.943v17.388h-2.943v-7.56h-8.37v7.56h-2.942V99.33z"/>
			</g>
			<g>
				<path fill="#808285" d="M1434.408,99.33h12.123v2.295h-9.181v5.265h8.182v2.268h-8.182v5.292h9.181v2.268h-12.123V99.33z"/>
			</g>
			<g>
				<path fill="#808285" d="M1463.756,101.625h-5.562V99.33h14.04v2.295h-5.535v15.093h-2.943V101.625z"/>
			</g>
			<g>
				<path fill="#808285" d="M1474.583,99.33h2.942v7.56h8.37v-7.56h2.943v17.388h-2.943v-7.56h-8.37v7.56h-2.942V99.33z"/>
			</g>
			<g>
				<path fill="#808285" d="M1492.241,99.33h2.942v17.388h-2.942V99.33z"/>
			</g>
			<g>
				<path fill="#808285" d="M1498.586,99.33h2.592l9.072,12.798V99.33h2.916v17.388h-2.592l-9.046-12.771v12.771h-2.942V99.33z"/>
			</g>
			<g>
				<path fill="#808285" d="M1518.269,114.706c-1.477-1.521-2.214-3.631-2.214-6.331c0-2.934,0.729-5.22,2.187-6.858
					c1.458-1.638,3.636-2.457,6.534-2.457c1.926,0,3.646,0.261,5.157,0.783v2.538c-1.494-0.54-3.132-0.81-4.914-0.81
					c-2.143,0-3.677,0.563-4.604,1.688c-0.928,1.125-1.391,2.831-1.391,5.117c0,4.086,1.917,6.129,5.751,6.129
					c1.548,0,2.799-0.18,3.753-0.54v-4.86h-4.347v-1.917h6.858v8.37c-0.648,0.415-1.499,0.756-2.552,1.026
					c-1.054,0.27-2.318,0.405-3.794,0.405C1521.887,116.988,1519.744,116.228,1518.269,114.706z"/>
			</g>
			<g>
				<path fill="#808285" d="M1543.891,99.33h7.992c1.89,0,3.294,0.486,4.212,1.458c0.918,0.972,1.377,2.34,1.377,4.104
					c0,1.242-0.311,2.291-0.932,3.146c-0.621,0.855-1.499,1.454-2.633,1.796c0.306,0.216,0.549,0.455,0.729,0.715
					c0.18,0.261,0.368,0.634,0.566,1.121l2.188,5.049h-3.024l-2.133-4.86c-0.216-0.486-0.468-0.824-0.756-1.013
					s-0.747-0.283-1.377-0.283h-3.268v6.156h-2.942V99.33z M1551.1,108.186c2.285,0,3.429-1.098,3.429-3.294
					c0-2.178-1.053-3.267-3.159-3.267h-4.536v6.561H1551.1z"/>
			</g>
			<g>
				<path fill="#808285" d="M1560.36,99.33h2.942v17.388h-2.942V99.33z"/>
			</g>
			<g>
				<path fill="#808285" d="M1568.379,114.706c-1.477-1.521-2.214-3.631-2.214-6.331c0-2.934,0.729-5.22,2.187-6.858
					c1.458-1.638,3.636-2.457,6.534-2.457c1.926,0,3.646,0.261,5.157,0.783v2.538c-1.494-0.54-3.132-0.81-4.914-0.81
					c-2.143,0-3.677,0.563-4.604,1.688c-0.928,1.125-1.391,2.831-1.391,5.117c0,4.086,1.917,6.129,5.751,6.129
					c1.548,0,2.799-0.18,3.753-0.54v-4.86h-4.347v-1.917h6.858v8.37c-0.648,0.415-1.499,0.756-2.552,1.026
					c-1.054,0.27-2.318,0.405-3.794,0.405C1571.997,116.988,1569.854,116.228,1568.379,114.706z"/>
			</g>
			<g>
				<path fill="#808285" d="M1584.012,99.33h2.942v7.56h8.37v-7.56h2.943v17.388h-2.943v-7.56h-8.37v7.56h-2.942V99.33z"/>
			</g>
			<g>
				<path fill="#808285" d="M1606.179,101.625h-5.562V99.33h14.04v2.295h-5.535v15.093h-2.943V101.625z"/>
			</g>
		</g>
	</g>
	<polygon fill="#F79237" points="581,890.64 581.653,890.905 581,890.294 	"/>
	<g>
		<path fill="#F79237" d="M367.933,477.948h8.91c3.256,0,5.676,0.841,7.26,2.524s2.376,4.417,2.376,8.201
			c0,3.608-0.792,6.265-2.376,7.969c-1.584,1.705-4.004,2.558-7.26,2.558h-8.91V477.948z M376.216,495.768
			c1.342,0,2.42-0.198,3.234-0.594c0.813-0.396,1.436-1.111,1.864-2.145c0.429-1.034,0.644-2.486,0.644-4.356
			c0-1.892-0.193-3.344-0.578-4.356c-0.385-1.012-0.984-1.71-1.798-2.096c-0.814-0.385-1.937-0.578-3.366-0.578h-3.828v14.124
			H376.216z"/>
		<path fill="#F79237" d="M389.58,477.948h4.455V499.2h-4.455V477.948z"/>
		<path fill="#F79237" d="M397.533,498.375v-3.927c0.99,0.396,2.046,0.715,3.168,0.957c1.122,0.242,2.211,0.363,3.267,0.363
			c1.65,0,2.811-0.153,3.481-0.462c0.671-0.308,1.007-0.946,1.007-1.914c0-0.638-0.154-1.144-0.462-1.518
			c-0.309-0.374-0.814-0.698-1.519-0.973c-0.704-0.275-1.804-0.622-3.3-1.04c-2.222-0.616-3.784-1.386-4.686-2.31
			c-0.902-0.924-1.354-2.2-1.354-3.828c0-1.958,0.715-3.465,2.146-4.521c1.43-1.056,3.509-1.584,6.236-1.584
			c1.232,0,2.403,0.083,3.515,0.248s2.019,0.379,2.723,0.644v3.927c-1.804-0.682-3.685-1.023-5.643-1.023
			c-1.497,0-2.613,0.165-3.35,0.495c-0.737,0.33-1.105,0.936-1.105,1.815c0,0.55,0.137,0.99,0.412,1.32
			c0.275,0.33,0.737,0.622,1.386,0.875c0.649,0.253,1.655,0.556,3.02,0.908c2.464,0.66,4.169,1.513,5.115,2.558
			s1.419,2.381,1.419,4.009c0,1.914-0.726,3.416-2.178,4.504c-1.452,1.09-3.597,1.634-6.435,1.634
			C401.559,499.53,399.271,499.146,397.533,498.375z"/>
		<path fill="#F79237" d="M417.498,496.676c-1.914-1.903-2.871-4.538-2.871-7.904c0-3.564,0.93-6.313,2.789-8.25
			c1.858-1.936,4.592-2.904,8.2-2.904c2.288,0,4.399,0.352,6.336,1.056v3.894c-1.87-0.77-3.872-1.155-6.006-1.155
			c-2.398,0-4.131,0.6-5.197,1.799c-1.067,1.199-1.601,3.052-1.601,5.56c0,2.354,0.566,4.109,1.699,5.264
			c1.133,1.155,2.854,1.732,5.165,1.732c2.155,0,4.146-0.374,5.973-1.122v3.927c-1.958,0.638-4.07,0.957-6.336,0.957
			C422.129,499.53,419.412,498.579,417.498,496.676z"/>
		<path fill="#F79237" d="M432.941,488.673c0-3.828,0.853-6.627,2.558-8.398s4.295-2.657,7.771-2.657
			c3.476,0,6.066,0.886,7.771,2.657s2.558,4.57,2.558,8.398c0,7.239-3.443,10.857-10.329,10.857S432.941,495.912,432.941,488.673z
			 M447.66,494.003c0.945-1.155,1.419-2.932,1.419-5.33c0-2.618-0.462-4.482-1.387-5.594c-0.924-1.11-2.397-1.667-4.422-1.667
			s-3.498,0.556-4.422,1.667c-0.924,1.111-1.386,2.976-1.386,5.594c0,2.398,0.473,4.174,1.419,5.33
			c0.945,1.155,2.409,1.732,4.389,1.732C445.251,495.735,446.714,495.158,447.66,494.003z"/>
		<path fill="#F79237" d="M453.896,477.948h4.653l5.874,16.269l5.907-16.269h4.652l-8.085,21.252h-4.884L453.896,477.948z"/>
		<path fill="#F79237" d="M478.086,477.948h15.246v3.465h-10.791v5.445h9.57v3.432h-9.57v5.478h10.791v3.432h-15.246V477.948z"/>
		<path fill="#F79237" d="M496.434,477.948h10.197c2.376,0,4.152,0.627,5.329,1.881s1.766,3.003,1.766,5.247
			c0,1.43-0.368,2.662-1.105,3.696c-0.737,1.035-1.776,1.782-3.118,2.244c0.33,0.286,0.599,0.589,0.809,0.908
			c0.209,0.319,0.434,0.765,0.676,1.336l2.574,5.94h-4.62l-2.508-5.709c-0.22-0.506-0.468-0.853-0.742-1.04
			c-0.275-0.187-0.71-0.28-1.304-0.28h-3.498v7.029h-4.455V477.948z M505.476,488.475c1.21,0,2.134-0.269,2.772-0.809
			c0.638-0.539,0.957-1.402,0.957-2.59s-0.286-2.057-0.858-2.607c-0.572-0.55-1.441-0.825-2.607-0.825h-4.851v6.831H505.476z"/>
	</g>
	<g>
		<path fill="#F26557" d="M680.334,477.948h8.91c3.256,0,5.676,0.841,7.26,2.524s2.376,4.417,2.376,8.201
			c0,3.608-0.792,6.265-2.376,7.969c-1.584,1.705-4.004,2.558-7.26,2.558h-8.91V477.948z M688.617,495.768
			c1.342,0,2.42-0.198,3.234-0.594c0.813-0.396,1.436-1.111,1.864-2.145c0.429-1.034,0.644-2.486,0.644-4.356
			c0-1.892-0.193-3.344-0.578-4.356c-0.385-1.012-0.984-1.71-1.798-2.096c-0.814-0.385-1.937-0.578-3.366-0.578h-3.828v14.124
			H688.617z"/>
		<path fill="#F26557" d="M701.981,477.948h15.246v3.465h-10.791v5.445h9.57v3.432h-9.57v5.478h10.791v3.432h-15.246V477.948z"/>
		<path fill="#F26557" d="M720.33,477.948h14.949v3.465h-10.494v5.445h9.273v3.432h-9.273v8.91h-4.455V477.948z"/>
		<path fill="#F26557" d="M737.721,477.948h4.455V499.2h-4.455V477.948z"/>
		<path fill="#F26557" d="M745.938,477.948h3.861l10.064,14.157v-14.157h4.455V499.2h-3.86l-10.065-14.157V499.2h-4.455V477.948z"/>
		<path fill="#F26557" d="M768.08,477.948h15.246v3.465h-10.791v5.445h9.57v3.432h-9.57v5.478h10.791v3.432H768.08V477.948z"/>
	</g>
	<g>
		<path fill="#0579B5" d="M1251.333,477.948h8.91c3.256,0,5.676,0.841,7.26,2.524s2.376,4.417,2.376,8.201
			c0,3.608-0.792,6.265-2.376,7.969c-1.584,1.705-4.004,2.558-7.26,2.558h-8.91V477.948z M1259.616,495.768
			c1.342,0,2.42-0.198,3.234-0.594c0.813-0.396,1.436-1.111,1.864-2.145c0.429-1.034,0.644-2.486,0.644-4.356
			c0-1.892-0.193-3.344-0.578-4.356c-0.385-1.012-0.984-1.71-1.798-2.096c-0.814-0.385-1.937-0.578-3.366-0.578h-3.828v14.124
			H1259.616z"/>
		<path fill="#0579B5" d="M1272.98,477.948h15.246v3.465h-10.791v5.445h9.57v3.432h-9.57v5.478h10.791v3.432h-15.246V477.948z"/>
		<path fill="#0579B5" d="M1289.844,477.948h4.653l5.874,16.269l5.907-16.269h4.652l-8.085,21.252h-4.884L1289.844,477.948z"/>
		<path fill="#0579B5" d="M1314.033,477.948h15.246v3.465h-10.791v5.445h9.57v3.432h-9.57v5.478h10.791v3.432h-15.246V477.948z"/>
		<path fill="#0579B5" d="M1332.381,477.948h4.455v17.82h10.461v3.432h-14.916V477.948z"/>
		<path fill="#0579B5" d="M1346.934,488.673c0-3.828,0.853-6.627,2.558-8.398s4.295-2.657,7.771-2.657
			c3.476,0,6.066,0.886,7.771,2.657s2.558,4.57,2.558,8.398c0,7.239-3.443,10.857-10.329,10.857S1346.934,495.912,1346.934,488.673z
			 M1361.652,494.003c0.945-1.155,1.419-2.932,1.419-5.33c0-2.618-0.462-4.482-1.387-5.594c-0.924-1.11-2.397-1.667-4.422-1.667
			s-3.498,0.556-4.423,1.667c-0.923,1.111-1.385,2.976-1.385,5.594c0,2.398,0.473,4.174,1.419,5.33
			c0.945,1.155,2.409,1.732,4.389,1.732C1359.243,495.735,1360.706,495.158,1361.652,494.003z"/>
		<path fill="#0579B5" d="M1370.693,477.948h9.966c2.398,0,4.213,0.671,5.445,2.013c1.231,1.342,1.848,3.113,1.848,5.313
			c0,1.43-0.303,2.695-0.907,3.795c-0.605,1.1-1.469,1.953-2.591,2.557c-1.122,0.605-2.431,0.908-3.927,0.908h-5.379v6.666h-4.455
			V477.948z M1379.604,489.003c1.254,0,2.211-0.33,2.871-0.99s0.99-1.573,0.99-2.739c0-1.232-0.309-2.172-0.925-2.822
			c-0.616-0.648-1.54-0.974-2.771-0.974h-4.62v7.524H1379.604z"/>
	</g>
	<g>
		<path fill="#16B89E" d="M1547.46,477.948h8.91c3.256,0,5.676,0.841,7.26,2.524s2.376,4.417,2.376,8.201
			c0,3.608-0.792,6.265-2.376,7.969c-1.584,1.705-4.004,2.558-7.26,2.558h-8.91V477.948z M1555.743,495.768
			c1.342,0,2.42-0.198,3.234-0.594c0.813-0.396,1.436-1.111,1.864-2.145c0.429-1.034,0.644-2.486,0.644-4.356
			c0-1.892-0.193-3.344-0.578-4.356c-0.385-1.012-0.984-1.71-1.798-2.096c-0.814-0.385-1.937-0.578-3.366-0.578h-3.828v14.124
			H1555.743z"/>
		<path fill="#16B89E" d="M1569.107,477.948h15.246v3.465h-10.791v5.445h9.57v3.432h-9.57v5.478h10.791v3.432h-15.246V477.948z"/>
		<path fill="#16B89E" d="M1587.456,477.948h4.455v17.82h10.461v3.432h-14.916V477.948z"/>
		<path fill="#16B89E" d="M1604.813,477.948h4.455V499.2h-4.455V477.948z"/>
		<path fill="#16B89E" d="M1612.37,477.948h4.653l5.874,16.269l5.907-16.269h4.652l-8.085,21.252h-4.884L1612.37,477.948z"/>
		<path fill="#16B89E" d="M1636.559,477.948h15.246v3.465h-10.791v5.445h9.57v3.432h-9.57v5.478h10.791v3.432h-15.246V477.948z"/>
		<path fill="#16B89E" d="M1654.907,477.948h10.197c2.376,0,4.152,0.627,5.329,1.881s1.766,3.003,1.766,5.247
			c0,1.43-0.368,2.662-1.105,3.696c-0.737,1.035-1.776,1.782-3.118,2.244c0.33,0.286,0.599,0.589,0.809,0.908
			c0.209,0.319,0.434,0.765,0.676,1.336l2.574,5.94h-4.62l-2.508-5.709c-0.22-0.506-0.468-0.853-0.742-1.04
			c-0.275-0.187-0.71-0.28-1.304-0.28h-3.498v7.029h-4.455V477.948z M1663.949,488.475c1.21,0,2.134-0.269,2.772-0.809
			c0.638-0.539,0.957-1.402,0.957-2.59s-0.286-2.057-0.858-2.607c-0.572-0.55-1.441-0.825-2.607-0.825h-4.851v6.831H1663.949z"/>
	</g>
	<g>
		<path fill="#8D7E70" d="M114.657,477.948h4.455V499.2h-4.455V477.948z"/>
		<path fill="#8D7E70" d="M122.874,477.948h3.861l10.064,14.157v-14.157h4.455V499.2h-3.86l-10.065-14.157V499.2h-4.455V477.948z"/>
		<path fill="#8D7E70" d="M145.017,477.948h4.455V499.2h-4.455V477.948z"/>
		<path fill="#8D7E70" d="M158.447,481.38h-6.534v-3.432h17.49v3.432h-6.501v17.82h-4.455V481.38z"/>
		<path fill="#8D7E70" d="M171.846,477.948h4.455V499.2h-4.455V477.948z"/>
		<path fill="#8D7E70" d="M187.521,477.948h4.884l8.085,21.252h-4.619l-2.014-5.115h-7.821l-1.979,5.115h-4.653L187.521,477.948z
			 M193.196,490.653l-3.267-8.547l-3.234,8.547H193.196z"/>
		<path fill="#8D7E70" d="M204.68,481.38h-6.534v-3.432h17.49v3.432h-6.501v17.82h-4.455V481.38z"/>
		<path fill="#8D7E70" d="M218.078,477.948h15.246v3.465h-10.791v5.445h9.57v3.432h-9.57v5.478h10.791v3.432h-15.246V477.948z"/>
	</g>
	<g>
		<path fill="#797E7C" d="M1812.36,477.948h4.455v17.82h10.461v3.432h-14.916V477.948z"/>
		<path fill="#797E7C" d="M1836.681,477.948h4.884l8.085,21.252h-4.619l-2.014-5.115h-7.821l-1.98,5.115h-4.652L1836.681,477.948z
			 M1842.356,490.653l-3.267-8.547l-3.234,8.547H1842.356z"/>
		<path fill="#797E7C" d="M1852.967,497.385c-1.683-1.43-2.524-3.486-2.524-6.17v-13.266h4.455v12.936
			c0,1.606,0.435,2.816,1.304,3.63c0.869,0.814,2.117,1.221,3.745,1.221s2.871-0.407,3.729-1.221
			c0.857-0.813,1.287-2.024,1.287-3.63v-12.936h4.455v13.266c0,2.662-0.837,4.713-2.509,6.155s-3.992,2.161-6.963,2.161
			C1856.977,499.53,1854.65,498.815,1852.967,497.385z"/>
		<path fill="#797E7C" d="M1873.014,477.948h3.861l10.064,14.157v-14.157h4.455V499.2h-3.86l-10.065-14.157V499.2h-4.455V477.948z"
			/>
		<path fill="#797E7C" d="M1897.367,496.676c-1.914-1.903-2.871-4.538-2.871-7.904c0-3.564,0.93-6.313,2.789-8.25
			c1.858-1.936,4.592-2.904,8.2-2.904c2.288,0,4.399,0.352,6.336,1.056v3.894c-1.87-0.77-3.872-1.155-6.006-1.155
			c-2.398,0-4.131,0.6-5.197,1.799c-1.067,1.199-1.601,3.052-1.601,5.56c0,2.354,0.566,4.109,1.699,5.264
			c1.133,1.155,2.854,1.732,5.165,1.732c2.155,0,4.146-0.374,5.973-1.122v3.927c-1.958,0.638-4.07,0.957-6.336,0.957
			C1901.998,499.53,1899.281,498.579,1897.367,496.676z"/>
		<path fill="#797E7C" d="M1914.956,477.948h4.455v8.91h9.273v-8.91h4.455V499.2h-4.455v-8.91h-9.273v8.91h-4.455V477.948z"/>
	</g>
	<g>
		<path fill="#716892" d="M983.212,477.948h10.758c2.112,0,3.696,0.495,4.752,1.485c1.057,0.99,1.584,2.409,1.584,4.257
			c0,1.1-0.214,2.041-0.644,2.821c-0.429,0.781-1.029,1.381-1.798,1.798c1.056,0.33,1.858,0.864,2.409,1.601
			c0.549,0.737,0.824,1.766,0.824,3.085c0,2.046-0.577,3.592-1.732,4.637c-1.154,1.045-2.821,1.567-4.999,1.567h-11.154V477.948z
			 M993.146,486.759c2.001,0,3.003-0.902,3.003-2.706c0-0.968-0.248-1.677-0.743-2.128c-0.495-0.451-1.358-0.677-2.59-0.677h-5.148
			v5.511H993.146z M993.31,495.934c1.145,0,1.975-0.236,2.492-0.71c0.517-0.473,0.776-1.281,0.776-2.425
			c0-0.968-0.27-1.677-0.809-2.128c-0.539-0.451-1.458-0.677-2.756-0.677h-5.346v5.94H993.31z"/>
		<path fill="#716892" d="M1004.199,477.948h10.197c2.376,0,4.152,0.627,5.329,1.881s1.766,3.003,1.766,5.247
			c0,1.43-0.368,2.662-1.105,3.696c-0.737,1.035-1.776,1.782-3.118,2.244c0.33,0.286,0.599,0.589,0.809,0.908
			c0.209,0.319,0.433,0.765,0.676,1.336l2.574,5.94h-4.62l-2.508-5.709c-0.22-0.506-0.468-0.853-0.742-1.04
			c-0.275-0.187-0.71-0.28-1.304-0.28h-3.498v7.029h-4.455V477.948z M1013.241,488.475c1.21,0,2.134-0.269,2.772-0.809
			c0.638-0.539,0.957-1.402,0.957-2.59s-0.286-2.057-0.858-2.607c-0.572-0.55-1.441-0.825-2.607-0.825h-4.851v6.831H1013.241z"/>
		<path fill="#716892" d="M1024.593,477.948h4.456V499.2h-4.456V477.948z"/>
		<path fill="#716892" d="M1032.811,477.948h15.246v3.465h-10.791v5.445h9.57v3.432h-9.57v5.478h10.791v3.432h-15.246V477.948z"/>
		<path fill="#716892" d="M1051.158,477.948h14.949v3.465h-10.494v5.445h9.273v3.432h-9.273v8.91h-4.455V477.948z"/>
	</g>
	<g>
		<g>
			<g>
				<g>
					<rect x="1752" y="90.187" fill="#808285" width="3" height="6"/>
				</g>
				<g>
					<path fill="#808285" d="M1755,872.771h-3v-12.135h3V872.771z M1755,848.503h-3v-12.134h3V848.503z M1755,824.234h-3v-12.134h3
						V824.234z M1755,799.967h-3v-12.135h3V799.967z M1755,775.698h-3v-12.134h3V775.698z M1755,751.43h-3v-12.134h3V751.43z
						 M1755,727.162h-3v-12.135h3V727.162z M1755,702.894h-3V690.76h3V702.894z M1755,678.625h-3v-12.134h3V678.625z M1755,654.357
						h-3v-12.135h3V654.357z M1755,630.088h-3v-12.133h3V630.088z M1755,605.82h-3v-12.135h3V605.82z M1755,581.553h-3v-12.135h3
						V581.553z M1755,557.283h-3V545.15h3V557.283z M1755,533.016h-3v-12.135h3V533.016z M1755,508.748h-3v-12.135h3V508.748z
						 M1755,484.479h-3v-12.134h3V484.479z M1755,460.211h-3v-12.134h3V460.211z M1755,435.942h-3v-12.134h3V435.942z M1755,411.674
						h-3V399.54h3V411.674z M1755,387.406h-3v-12.134h3V387.406z M1755,363.138h-3v-12.134h3V363.138z M1755,338.869h-3v-12.134h3
						V338.869z M1755,314.601h-3v-12.134h3V314.601z M1755,290.333h-3v-12.134h3V290.333z M1755,266.064h-3V253.93h3V266.064z
						 M1755,241.796h-3v-12.134h3V241.796z M1755,217.528h-3v-12.134h3V217.528z M1755,193.26h-3v-12.134h3V193.26z M1755,168.992
						h-3v-12.134h3V168.992z M1755,144.723h-3v-12.134h3V144.723z M1755,120.455h-3v-12.134h3V120.455z"/>
				</g>
				<g>
					<rect x="1752" y="884.905" fill="#808285" width="3" height="6"/>
				</g>
			</g>
		</g>
		<g>
			<g>
				<g>
					<rect x="1458" y="178.036" fill="#808285" width="3" height="6"/>
				</g>
				<g>
					<path fill="#808285" d="M1461,870.613h-3v-11.838h3V870.613z M1461,846.938h-3V835.1h3V846.938z M1461,823.263h-3v-11.837h3
						V823.263z M1461,799.588h-3V787.75h3V799.588z M1461,775.912h-3v-11.837h3V775.912z M1461,752.237h-3V740.4h3V752.237z
						 M1461,728.562h-3v-11.838h3V728.562z M1461,704.887h-3V693.05h3V704.887z M1461,681.213h-3v-11.838h3V681.213z M1461,657.537
						h-3v-11.838h3V657.537z M1461,633.861h-3v-11.837h3V633.861z M1461,610.188h-3V598.35h3V610.188z M1461,586.512h-3v-11.838h3
						V586.512z M1461,562.837h-3v-11.838h3V562.837z M1461,539.162h-3v-11.838h3V539.162z M1461,515.486h-3v-11.837h3V515.486z
						 M1461,491.812h-3v-11.837h3V491.812z M1461,468.137h-3v-11.838h3V468.137z M1461,444.461h-3v-11.837h3V444.461z M1461,420.787
						h-3v-11.837h3V420.787z M1461,397.111h-3v-11.837h3V397.111z M1461,373.437h-3v-11.837h3V373.437z M1461,349.761h-3v-11.837h3
						V349.761z M1461,326.086h-3v-11.837h3V326.086z M1461,302.411h-3v-11.837h3V302.411z M1461,278.736h-3v-11.837h3V278.736z
						 M1461,255.061h-3v-11.837h3V255.061z M1461,231.386h-3v-11.837h3V231.386z M1461,207.711h-3v-11.837h3V207.711z"/>
				</g>
				<g>
					<rect x="1458" y="882.45" fill="#808285" width="3" height="6"/>
				</g>
			</g>
		</g>
		<g>
			<g>
				<g>
					<rect x="1171" y="90.187" fill="#808285" width="3" height="6"/>
				</g>
				<g>
					<path fill="#808285" d="M1174,870.354h-3v-12.096h3V870.354z M1174,846.161h-3v-12.097h3V846.161z M1174,821.969h-3v-12.097h3
						V821.969z M1174,797.775h-3V785.68h3V797.775z M1174,773.583h-3v-12.097h3V773.583z M1174,749.391h-3v-12.097h3V749.391z
						 M1174,725.197h-3v-12.096h3V725.197z M1174,701.005h-3v-12.097h3V701.005z M1174,676.812h-3v-12.098h3V676.812z M1174,652.619
						h-3v-12.096h3V652.619z M1174,628.426h-3V616.33h3V628.426z M1174,604.234h-3v-12.098h3V604.234z M1174,580.041h-3v-12.097h3
						V580.041z M1174,555.848h-3v-12.096h3V555.848z M1174,531.655h-3v-12.097h3V531.655z M1174,507.463h-3v-12.097h3V507.463z
						 M1174,483.27h-3v-12.096h3V483.27z M1174,459.077h-3v-12.096h3V459.077z M1174,434.885h-3v-12.097h3V434.885z M1174,410.692
						h-3v-12.096h3V410.692z M1174,386.499h-3v-12.096h3V386.499z M1174,362.306h-3V350.21h3V362.306z M1174,338.114h-3v-12.097h3
						V338.114z M1174,313.921h-3v-12.096h3V313.921z M1174,289.728h-3v-12.096h3V289.728z M1174,265.536h-3v-12.096h3V265.536z
						 M1174,241.343h-3v-12.096h3V241.343z M1174,217.15h-3v-12.096h3V217.15z M1174,192.957h-3v-12.096h3V192.957z M1174,168.765
						h-3v-12.097h3V168.765z M1174,144.572h-3v-12.096h3V144.572z M1174,120.379h-3v-12.096h3V120.379z"/>
				</g>
				<g>
					<rect x="1171" y="882.45" fill="#808285" width="3" height="6"/>
				</g>
			</g>
		</g>
		<g>
			<g>
				<g>
					<rect x="874" y="90.187" fill="#808285" width="3" height="6"/>
				</g>
				<g>
					<path fill="#808285" d="M877,870.354h-3v-12.096h3V870.354z M877,846.161h-3v-12.097h3V846.161z M877,821.969h-3v-12.097h3
						V821.969z M877,797.775h-3V785.68h3V797.775z M877,773.583h-3v-12.097h3V773.583z M877,749.391h-3v-12.097h3V749.391z
						 M877,725.197h-3v-12.096h3V725.197z M877,701.005h-3v-12.097h3V701.005z M877,676.812h-3v-12.098h3V676.812z M877,652.619h-3
						v-12.096h3V652.619z M877,628.426h-3V616.33h3V628.426z M877,604.234h-3v-12.098h3V604.234z M877,580.041h-3v-12.097h3V580.041
						z M877,555.848h-3v-12.096h3V555.848z M877,531.655h-3v-12.097h3V531.655z M877,507.463h-3v-12.097h3V507.463z M877,483.27h-3
						v-12.096h3V483.27z M877,459.077h-3v-12.096h3V459.077z M877,434.885h-3v-12.097h3V434.885z M877,410.692h-3v-12.096h3V410.692
						z M877,386.499h-3v-12.096h3V386.499z M877,362.306h-3V350.21h3V362.306z M877,338.114h-3v-12.097h3V338.114z M877,313.921h-3
						v-12.096h3V313.921z M877,289.728h-3v-12.096h3V289.728z M877,265.536h-3v-12.096h3V265.536z M877,241.343h-3v-12.096h3
						V241.343z M877,217.15h-3v-12.096h3V217.15z M877,192.957h-3v-12.096h3V192.957z M877,168.765h-3v-12.097h3V168.765z
						 M877,144.572h-3v-12.096h3V144.572z M877,120.379h-3v-12.096h3V120.379z"/>
				</g>
				<g>
					<rect x="874" y="882.45" fill="#808285" width="3" height="6"/>
				</g>
			</g>
		</g>
		<g>
			<g>
				<g>
					<rect x="586" y="178.036" fill="#808285" width="3" height="6"/>
				</g>
				<g>
					<path fill="#808285" d="M589,870.613h-3v-11.838h3V870.613z M589,846.938h-3V835.1h3V846.938z M589,823.263h-3v-11.837h3
						V823.263z M589,799.588h-3V787.75h3V799.588z M589,775.912h-3v-11.837h3V775.912z M589,752.237h-3V740.4h3V752.237z
						 M589,728.562h-3v-11.838h3V728.562z M589,704.887h-3V693.05h3V704.887z M589,681.213h-3v-11.838h3V681.213z M589,657.537h-3
						v-11.838h3V657.537z M589,633.861h-3v-11.837h3V633.861z M589,610.188h-3V598.35h3V610.188z M589,586.512h-3v-11.838h3V586.512
						z M589,562.837h-3v-11.838h3V562.837z M589,539.162h-3v-11.838h3V539.162z M589,515.486h-3v-11.837h3V515.486z M589,491.812h-3
						v-11.837h3V491.812z M589,468.137h-3v-11.838h3V468.137z M589,444.461h-3v-11.837h3V444.461z M589,420.787h-3v-11.837h3
						V420.787z M589,397.111h-3v-11.837h3V397.111z M589,373.437h-3v-11.837h3V373.437z M589,349.761h-3v-11.837h3V349.761z
						 M589,326.086h-3v-11.837h3V326.086z M589,302.411h-3v-11.837h3V302.411z M589,278.736h-3v-11.837h3V278.736z M589,255.061h-3
						v-11.837h3V255.061z M589,231.386h-3v-11.837h3V231.386z M589,207.711h-3v-11.837h3V207.711z"/>
				</g>
				<g>
					<rect x="586" y="882.45" fill="#808285" width="3" height="6"/>
				</g>
			</g>
		</g>
		<g>
			<g>
				<g>
					<rect x="292" y="90.187" fill="#808285" width="3" height="6"/>
				</g>
				<g>
					<path fill="#808285" d="M295,870.354h-3v-12.096h3V870.354z M295,846.161h-3v-12.097h3V846.161z M295,821.969h-3v-12.097h3
						V821.969z M295,797.775h-3V785.68h3V797.775z M295,773.583h-3v-12.097h3V773.583z M295,749.391h-3v-12.097h3V749.391z
						 M295,725.197h-3v-12.096h3V725.197z M295,701.005h-3v-12.097h3V701.005z M295,676.812h-3v-12.098h3V676.812z M295,652.619h-3
						v-12.096h3V652.619z M295,628.426h-3V616.33h3V628.426z M295,604.234h-3v-12.098h3V604.234z M295,580.041h-3v-12.097h3V580.041
						z M295,555.848h-3v-12.096h3V555.848z M295,531.655h-3v-12.097h3V531.655z M295,507.463h-3v-12.097h3V507.463z M295,483.27h-3
						v-12.096h3V483.27z M295,459.077h-3v-12.096h3V459.077z M295,434.885h-3v-12.097h3V434.885z M295,410.692h-3v-12.096h3V410.692
						z M295,386.499h-3v-12.096h3V386.499z M295,362.306h-3V350.21h3V362.306z M295,338.114h-3v-12.097h3V338.114z M295,313.921h-3
						v-12.096h3V313.921z M295,289.728h-3v-12.096h3V289.728z M295,265.536h-3v-12.096h3V265.536z M295,241.343h-3v-12.096h3
						V241.343z M295,217.15h-3v-12.096h3V217.15z M295,192.957h-3v-12.096h3V192.957z M295,168.765h-3v-12.097h3V168.765z
						 M295,144.572h-3v-12.096h3V144.572z M295,120.379h-3v-12.096h3V120.379z"/>
				</g>
				<g>
					<rect x="292" y="882.45" fill="#808285" width="3" height="6"/>
				</g>
			</g>
		</g>
	</g>
</g>
</svg>
