<?xml version="1.0" encoding="utf-8"?>
<!-- Generator: Adobe Illustrator 16.0.0, SVG Export Plug-In . SVG Version: 6.00 Build 0)  -->
<!DOCTYPE svg PUBLIC "-//W3C//DTD SVG 1.1//EN" "http://www.w3.org/Graphics/SVG/1.1/DTD/svg11.dtd">
<svg version="1.1" id="Layer_1" xmlns="http://www.w3.org/2000/svg" xmlns:xlink="http://www.w3.org/1999/xlink" x="0px" y="0px"
	 width="65.251px" height="62.801px" viewBox="0 0 65.251 62.801" enable-background="new 0 0 65.251 62.801" xml:space="preserve">
<g>
	<g>
		<path fill="#8E9192" d="M1242.986,124.066c18.572,0,28.729-15.388,28.729-28.73c0-0.437-0.01-0.872-0.032-1.305
			c1.976-1.427,3.69-3.203,5.04-5.228c-1.809,0.801-3.754,1.344-5.799,1.587c2.086-1.248,3.682-3.227,4.441-5.584
			c-1.951,1.156-4.112,1.998-6.412,2.449c-1.846-1.96-4.471-3.189-7.371-3.189c-5.578,0-10.1,4.522-10.1,10.097
			c0,0.792,0.09,1.563,0.263,2.303c-8.392-0.422-15.833-4.439-20.817-10.549c-0.863,1.49-1.365,3.226-1.365,5.074
			c0,3.503,1.785,6.597,4.496,8.405c-1.657-0.051-3.213-0.507-4.576-1.264c-0.002,0.044-0.002,0.086-0.002,0.129
			c0,4.892,3.48,8.975,8.104,9.9c-0.85,0.229-1.742,0.354-2.664,0.354c-0.652,0-1.281-0.063-1.898-0.181
			c1.286,4.009,5.014,6.93,9.434,7.014c-3.455,2.709-7.811,4.322-12.539,4.322c-0.816,0-1.619-0.048-2.41-0.142
			C1231.977,122.396,1237.281,124.066,1242.986,124.066"/>
	</g>
	<g>
		<path fill="#8E9192" d="M1148.438,105.913h6.18l0.918-7.943h-7.098v-3.798c0-2.059,0.576-3.01,3.529-3.01h4.412v-6.815
			c0-0.085-2.947-0.28-5.547-0.28c-5.428,0-9.203,3.315-9.203,9.402v4.501h-5.673v7.943h5.673v18.153h6.809V105.913z"/>
	</g>
	<g>
		<g>
			<path fill="#8E9192" d="M1373.398,102.865h-18.604l0.023,5.328h12.541c-1.482,6.488-6.061,10.463-12.207,10.463
				c-8.055,0-14.588-6.531-14.588-14.592c0-8.057,6.533-14.589,14.588-14.589c3.835,0,7.318,1.478,9.922,3.893l4.115-3.547
				c-3.613-3.557-8.566-5.755-14.037-5.755c-11.043,0-19.996,8.956-19.996,19.998c0,11.047,8.953,20.002,19.996,20.002
				c10.611,0,18.275-8.09,18.275-19.137L1373.398,102.865z"/>
			<polygon fill="#8E9192" points="1402.3,105.184 1392.959,105.184 1392.959,95.843 1390.291,95.843 1390.291,105.184 
				1379.617,105.184 1379.617,107.853 1390.291,107.853 1390.291,117.194 1392.959,117.194 1392.959,107.853 1402.3,107.853 			"/>
		</g>
	</g>
</g>
<g>
	<path fill="#4D5051" d="M61.843,5.667c-1.367-1.366-3.583-1.367-4.95,0l-23.824,23.82L9.268,5.684c-1.366-1.366-3.583-1.367-4.95,0
		c-1.367,1.367-1.367,3.583,0,4.95l26.276,26.277c0.684,0.684,1.579,1.025,2.475,1.025c0.896,0,1.792-0.342,2.475-1.025
		l26.299-26.295C63.21,9.25,63.21,7.033,61.843,5.667z"/>
	<path fill="#4D5051" d="M58.423,47.534h-52c-1.381,0-2.5,1.119-2.5,2.5v6c0,1.381,1.119,2.5,2.5,2.5h52c1.381,0,2.5-1.119,2.5-2.5
		v-6C60.923,48.653,59.804,47.534,58.423,47.534z"/>
</g>
</svg>
