<svg xmlns="http://www.w3.org/2000/svg" viewBox="0 0 2047 213.75"><defs><style>.cls-1{fill:#2f2922;}.cls-2{font-size:33px;fill:#666;font-family:DBHelvethaicaX-Li, DBHelvethaicaX Li;}.cls-3{letter-spacing:-0.01em;}.cls-4{letter-spacing:0em;}.cls-5{letter-spacing:-0.01em;}.cls-6{letter-spacing:0em;}.cls-7{letter-spacing:0em;}.cls-8{letter-spacing:-0.04em;}.cls-9{letter-spacing:-0.03em;}.cls-10{letter-spacing:0.05em;}.cls-11{letter-spacing:0em;}.cls-12{letter-spacing:-0.01em;}.cls-13{letter-spacing:0em;}.cls-14{letter-spacing:-0.01em;}.cls-15{letter-spacing:-0.01em;}.cls-16{letter-spacing:-0.01em;}.cls-17{letter-spacing:0em;}.cls-18{letter-spacing:0em;}.cls-19{letter-spacing:0.03em;}.cls-20{letter-spacing:-0.01em;}.cls-21{fill:#fff;}</style></defs><title>footer</title><g id="Layer_2" data-name="Layer 2"><g id="_Group_" data-name="&lt;Group&gt;"><rect class="cls-1" width="2047" height="163"/><text class="cls-2" transform="translate(480.98 205.5)"><tspan class="cls-3">C</tspan><tspan class="cls-4" x="18.78" y="0">o</tspan><tspan class="cls-5" x="36.89" y="0">p</tspan><tspan x="55.44" y="0">y</tspan><tspan class="cls-6" x="70.98" y="0">r</tspan><tspan x="81.91" y="0">ig</tspan><tspan class="cls-7" x="108.07" y="0">h</tspan><tspan x="126.26" y="0">t © 2016</tspan><tspan class="cls-8" x="241.23" y="0"> </tspan><tspan class="cls-9" x="246.87" y="0">T</tspan><tspan x="262.38" y="0">CDC </tspan><tspan class="cls-10" x="329.63" y="0">(</tspan><tspan class="cls-5" x="340.59" y="0">T</tspan><tspan x="356.76" y="0">hailand </tspan><tspan class="cls-11" x="466.31" y="0">C</tspan><tspan class="cls-12" x="485.36" y="0">r</tspan><tspan x="495.82" y="0">e</tspan><tspan class="cls-13" x="512.35" y="0">a</tspan><tspan x="528.12" y="0">ti</tspan><tspan class="cls-12" x="546.77" y="0">v</tspan><tspan x="562.31" y="0">e &amp; </tspan><tspan class="cls-6" x="612.8" y="0">D</tspan><tspan class="cls-4" x="634.91" y="0">esi</tspan><tspan class="cls-14" x="672.23" y="0">g</tspan><tspan x="690.48" y="0">n </tspan><tspan class="cls-15" x="715.79" y="0">C</tspan><tspan x="734.57" y="0">e</tspan><tspan class="cls-7" x="751.1" y="0">n</tspan><tspan class="cls-16" x="769.28" y="0">t</tspan><tspan x="780.01" y="0">er). </tspan><tspan class="cls-17" x="830.53" y="0">A</tspan><tspan x="850.63" y="0">ll </tspan><tspan class="cls-6" x="873.2" y="0">r</tspan><tspan x="884.12" y="0">ig</tspan><tspan class="cls-18" x="910.29" y="0">h</tspan><tspan x="928.47" y="0">ts </tspan><tspan class="cls-12" x="959.46" y="0">r</tspan><tspan class="cls-4" x="969.92" y="0">ese</tspan><tspan class="cls-19" x="1016.05" y="0">r</tspan><tspan class="cls-20" x="1027.67" y="0">v</tspan><tspan x="1043.21" y="0">e</tspan><tspan class="cls-12" x="1059.74" y="0">d</tspan><tspan x="1078.03" y="0">.</tspan></text><path class="cls-21" d="M1190.77,120.07a2.85,2.85,0,0,0-.05-1.25c-.22-.82-2.79-8.6-3.7-11s-5.1-13.95-5.4-15.23c0,0-1.36-5.09-1.44-6.27s-1.69-5.1-1.91-4.75a29.78,29.78,0,0,1-.51,4.1c-.45,1.68-2.58,8.4-2.88,9.25s-6.22,13.86-6.22,14-1.84,3.87-2,4.13-1.68,2.9-1.25,3.77a1.65,1.65,0,0,0,1.45,1.16c.81.11,10.37,4.13,11.46,4.6,0,0,4.38,2.09,4.73,2.39l.78.46a.56.56,0,0,0,.62-.08c.35-.26,5-4,5.3-4.22a4.5,4.5,0,0,0,.56-.42,1.17,1.17,0,0,0,.42-.67"/><path class="cls-21" d="M1190.51,79.67s1.52,4.94,1.71,5.92,4.6,13.57,4.82,14,4.12,9.61,3.09,15.06l4.5-3s.42-.4-.09-1.1a24.83,24.83,0,0,1-1.76-3.31c0-.18-2.87-6.38-3.12-7.09s-.94-2-1.1-2.29a23.3,23.3,0,0,0-.77-3.27,27.7,27.7,0,0,1-1.49-3.62,24.45,24.45,0,0,0-1.77-3.87,41.67,41.67,0,0,1-2.28-4.46,20.93,20.93,0,0,0-1.75-3"/><path class="cls-21" d="M1199.05,110.22c-.43-2.41-3.22-10.6-3.22-10.6-.1-.35-3.67-9.12-5.13-14.92a49.34,49.34,0,0,0-3.35-9.37c-1.17-2.12-3.09-3.64-6.21-6s-32.16-20.75-34-21.79a4.63,4.63,0,0,0-2.19-.87c-.46-.19-.94-.09-3.4-.64s-14-.8-14-.8c.32.36,38.36,23.79,38.36,23.79,14.64,6.46,15.5,18.41,15.5,18.41.77,3.8,3.77,12.52,3.9,12.88s4.47,11.95,4.92,13.08a36.29,36.29,0,0,1,1.57,5.83c.27,1.81-1.79,2.36-1.79,2.36h.39c.24,0,6.83-4.71,7.86-5.63s1.12-3.39.73-5.77M1182.9,74.69a.88.88,0,0,1-.19.61l-.22,0a2.15,2.15,0,0,1-1-.66c0-.1-.68-2.32-.75-2.57l0,0v0a2.8,2.8,0,0,1,.62-1.42l.19-.18.1.26,1.31,3.92v.05ZM1188.13,94l-.18.39-.16-.41c-.11-.27-2.47-7.05-2.62-7.57a2.49,2.49,0,0,1,.27-1.71l.31-.14c.23.05.36.3.42.43s2.1,6.09,2.35,6.86a3.53,3.53,0,0,1-.4,2.15"/><path class="cls-21" d="M1154.92,63.52c-2-.29-7.72-1.12-9.1-1.27a22.64,22.64,0,0,0-5.8.31,52,52,0,0,1-7.51-.05s28.63,7.58,31.85,8.24a25,25,0,0,1,6.29,2.47,46.08,46.08,0,0,0-5.47-3.33c-1.9-.89-9.34-5.77-10.27-6.36"/><polyline class="cls-21" points="1079.93 85.52 1071.33 85.52 1071.33 108.61 1068.26 108.61 1068.26 85.52 1059.71 85.52 1059.71 82.69 1079.93 82.69"/><path class="cls-21" d="M1101.72,88a8,8,0,0,0-6.48-3.14c-5.8,0-9.89,5.1-9.89,10.77,0,6,4.06,10.77,9.89,10.77a9.13,9.13,0,0,0,7.51-3.64l2.32,1.93c-2.32,3.13-5.69,4.54-9.83,4.54-7.46,0-13.18-5.74-13.18-13.61,0-7.63,5.48-13.64,13.18-13.64a11.18,11.18,0,0,1,9.16,4.07"/><path class="cls-21" d="M1108.85,82.68h10c5.09,0,12.7,3.39,12.7,13s-7.61,13-12.7,13h-10m3.1-2.86h5.84c6,0,10.46-3,10.46-10.11s-4.5-10.12-10.46-10.12H1112Z"/><path class="cls-21" d="M1154.66,88a8,8,0,0,0-6.51-3.14c-5.78,0-9.88,5.1-9.88,10.77,0,6,4.07,10.77,9.88,10.77a9.08,9.08,0,0,0,7.51-3.64l2.33,1.93c-2.33,3.13-5.69,4.54-9.84,4.54-7.44,0-13.18-5.74-13.18-13.61,0-7.63,5.5-13.64,13.18-13.64a11.21,11.21,0,0,1,9.17,4.07"/><path class="cls-21" d="M914.78,43.21a27.9,27.9,0,1,0,19.73,8.17,27.72,27.72,0,0,0-19.73-8.17m27.12,28A27.12,27.12,0,1,1,914.78,44,27.18,27.18,0,0,1,941.9,71.19"/><path class="cls-21" d="M915.45,71.37s0-.18-.28-.39l-.4-.32-.37.32c-.31.21-.31.39-.31.39v1.18s0,.18.31.38l.37.36.4-.36c.28-.2.28-.38.28-.38"/><path class="cls-21" d="M913.87,59.49c-.6.25-.6.69-.6.69h1.23s0-.43-.62-.69"/><path class="cls-21" d="M911.54,64.69c.64-.27.62-.69.62-.69H911s0,.42.58.69"/><path class="cls-21" d="M913.8,64.69c.61-.27.61-.69.61-.69h-1.25s0,.42.64.69"/><path class="cls-21" d="M909.37,64.69c.66-.27.66-.69.66-.69h-1.25s0,.42.59.69"/><path class="cls-21" d="M913.92,62.34c.63-.25.63-.69.63-.69h-1.21s0,.44.57.69"/><path class="cls-21" d="M914.78,60.35H912.2c.08.58.52.56.52.56h4.12s.44,0,.56-.56"/><path class="cls-21" d="M916.71,61.07h-3.83a.4.4,0,0,0,.15.43h3.5a.4.4,0,0,0,.17-.43"/><path class="cls-21" d="M918.67,69.83h-7.79s-.17.22.31.37h7.19c.47-.15.29-.37.29-.37"/><path class="cls-21" d="M914.78,62a1,1,0,0,0-.67.79v.18h1.37v-.18s0-.51-.7-.79"/><path class="cls-21" d="M913,62a1,1,0,0,0-.68.79v.18h1.39v-.18s0-.51-.71-.79"/><path class="cls-21" d="M911.05,62.25c-.52.21-.52.59-.52.59v.1h1.09v-.1s0-.38-.57-.59"/><path class="cls-21" d="M909.35,62.25c-.57.21-.57.59-.57.59v.1h1.08v-.1a.7.7,0,0,0-.51-.59"/><path class="cls-21" d="M911.54,67.9c-.75.26-.75.75-.75.75v.17h1.53v-.17s0-.48-.78-.75"/><path class="cls-21" d="M913.42,71.33c.77-.3.77-.72.77-.72v-.18h-1.55v.18s0,.43.78.72"/><path class="cls-21" d="M913.66,67.9c-.79.26-.79.75-.79.75v.17h1.54v-.17s0-.48-.75-.75"/><path class="cls-21" d="M907.65,62.25c-.58.21-.58.59-.58.59v.1h1.12v-.1s0-.38-.54-.59"/><path class="cls-21" d="M922.47,63.19h-15.4a.86.86,0,0,0,.16.6H922.3a.67.67,0,0,0,.16-.6"/><path class="cls-21" d="M920.34,73.58H909.27a.65.65,0,0,0,.18.61h10.68a.9.9,0,0,0,.2-.61"/><path class="cls-21" d="M912.31,60.17s-.77,0-.58-.54l.17-.31s.69.14.81.35c0,0,.21.33,0,.5"/><path class="cls-21" d="M909,68a1,1,0,0,1,1.06.1,1.21,1.21,0,0,1,.37.68A1.4,1.4,0,0,1,909,68"/><path class="cls-21" d="M919.35,69h-9.11s-.05.48.55.57h8a.6.6,0,0,0,.57-.57"/><path class="cls-21" d="M911.81,70.39s.12.43-.42.73a1.63,1.63,0,0,0-.86.24s-.34-.58.26-.71a2.27,2.27,0,0,1,1-.26"/><path class="cls-21" d="M911.14,71.37a.82.82,0,0,0-.89.76,2.85,2.85,0,0,1-.32,1.12l-.07,0h1.69a.74.74,0,0,0-.21-.42s-.13-.05-.13-.38V71.37"/><path class="cls-21" d="M914,73c-.23-.16-.28-.68-.28-.68l0-.75h-.57v.75s0,.52-.31.68c0,0-.23.14-.25.3h1.71c0-.16-.27-.3-.27-.3"/><path class="cls-21" d="M902.45,58s-.11-.13.05-.37c0,0,.67-.93,1.08-1.06a6.42,6.42,0,0,0,.74-.1,1.17,1.17,0,0,0,.64-.58s.3-.72.45-.73c0,0-1-.15-1.26,0,0,0-.29.15-.26.35a.38.38,0,0,0,.46.24.3.3,0,0,1-.43.17s-.18-.32-.41-.17a8.33,8.33,0,0,0-1.42,1.44,1.4,1.4,0,0,0-.28.57s0,.2.4.7l.34.55a.93.93,0,0,0,.59.14s.39.17.13.31a.83.83,0,0,0-.52.22s-.17.28.16.75c0,0,.5-.66.76-.75a.6.6,0,0,0,0-.93s-.07-.15-.6-.15c0,0-.06,0-.27-.18l-.38-.46"/><path class="cls-21" d="M903.34,52.35c-.51.46-1.16-.35-1.24-.9.21,0,.35.2.46.2.78-.1,1.76.13,1.76,1.11-.22-.09-.22-.3-.46-.41s-.41-.15-.52,0"/><path class="cls-21" d="M912,50.2c0,.25-.14.46-.26.46s-.3-.21-.3-.46a.36.36,0,0,1,.3-.37c.12,0,.26.17.26.38"/><path class="cls-21" d="M912.25,49.77a1.73,1.73,0,0,0,.07-.69s-.35-.52-.24-.77a.62.62,0,0,1,.39-.45,1.35,1.35,0,0,0,.32.67.92.92,0,0,1,.08.51s-.16.73-.63.73"/><path class="cls-21" d="M911.2,49.79a1.38,1.38,0,0,1-.23-1,.93.93,0,0,1,.38-.68.54.54,0,0,0,.44-.43,1.54,1.54,0,0,0-.24-1.07.94.94,0,0,1,0-.62,1,1,0,0,0-.4.89,1.68,1.68,0,0,1,0,.63l-.39-.09s0,.21-.13.74a2.12,2.12,0,0,0,.06,1.21.83.83,0,0,0,.61.38"/><path class="cls-21" d="M914.53,50.14c0,.2.16.39.28.39s.3-.19.3-.39-.15-.43-.33-.43-.25.17-.25.43"/><path class="cls-21" d="M914.26,49.66a2,2,0,0,1-.07-.71s.34-.46.25-.75a.73.73,0,0,0-.42-.43,1.39,1.39,0,0,1-.32.65,1,1,0,0,0-.11.49s.18.71.65.75"/><path class="cls-21" d="M915.31,49.66a1.56,1.56,0,0,0,.28-.94,1,1,0,0,0-.41-.64s-.4-.12-.43-.46a1.43,1.43,0,0,1,.21-1.07.74.74,0,0,0,0-.61,1,1,0,0,1,.44.9,2.72,2.72,0,0,0,.06.58l.39-.07s0,.2.15.77a2.18,2.18,0,0,1-.1,1.16.79.79,0,0,1-.59.38"/><path class="cls-21" d="M904.84,52.91c.25,0,.42.22.39.38a.46.46,0,0,1-.48.32c-.26-.09-.41-.25-.41-.41a.46.46,0,0,1,.49-.29"/><path class="cls-21" d="M904,53.19a2.75,2.75,0,0,1-1.43.1,1.47,1.47,0,0,1-.93-.62s.09-.61-.68-.67a3.1,3.1,0,0,0-1.54.15,1.87,1.87,0,0,1-.9-.08,1.6,1.6,0,0,0,1.28.68,3.17,3.17,0,0,1,.88.18,1,1,0,0,0-.2.45s.33.06,1.11.31a3.65,3.65,0,0,0,1.75.13,1,1,0,0,0,.65-.64"/><path class="cls-21" d="M909,50.37a.41.41,0,0,1-.15.47c-.1,0-.28-.09-.33-.29s-.08-.4.07-.41.31.06.4.24"/><path class="cls-21" d="M909.08,49.88a1.49,1.49,0,0,0-.13-.61s-.47-.28-.47-.56a.57.57,0,0,1,.24-.52,1.13,1.13,0,0,0,.46.49.59.59,0,0,1,.22.37s.09.67-.31.82"/><path class="cls-21" d="M908.2,50.26a1.32,1.32,0,0,1-.52-.76.84.84,0,0,1,.13-.7.5.5,0,0,0,.21-.49s0-.37-.54-.86a.89.89,0,0,1-.24-.54,1,1,0,0,0,0,.92s.12.36.17.54l-.38,0s0,.18.15.72a1.75,1.75,0,0,0,.44,1,.72.72,0,0,0,.64.12"/><path class="cls-21" d="M906.72,51.41c.14.18.14.39,0,.47s-.31,0-.44-.16-.15-.37,0-.5.32,0,.46.19"/><path class="cls-21" d="M906.66,50.88l-.28-.56s-.57-.18-.64-.49a.73.73,0,0,1,.07-.59,1.32,1.32,0,0,0,.64.38l.32.28s.28.68-.1,1"/><path class="cls-21" d="M905.87,51.48a1.57,1.57,0,0,1-.76-.62.88.88,0,0,1,0-.72.69.69,0,0,0,.09-.6s-.09-.36-.76-.73a.71.71,0,0,1-.37-.44,1,1,0,0,0,.18.95,2.59,2.59,0,0,1,.28.5l-.35.09s.12.23.29.68a1.86,1.86,0,0,0,.74.89.78.78,0,0,0,.7,0"/><path class="cls-21" d="M906.79,57.69l.44-.06v.47a.26.26,0,0,1-.42.09c-.16-.09-.16-.29,0-.51"/><path class="cls-21" d="M906.09,58.19s-.45.36-.51.64c0,0,0,.67-.29.84a.81.81,0,0,1-.67.25,1.87,1.87,0,0,0,.19-.89.9.9,0,0,1,.22-.49s.6-.63,1.06-.36"/><path class="cls-21" d="M906.93,58.6a1.58,1.58,0,0,1-.18,1.21,1,1,0,0,1-.79.57.66.66,0,0,0-.68.3A1.74,1.74,0,0,0,905,62a1.06,1.06,0,0,1-.22.72,1.25,1.25,0,0,0,.93-.84,2.51,2.51,0,0,1,.33-.65,1.66,1.66,0,0,0,.44.29s.14-.25.51-.82a2.28,2.28,0,0,0,.5-1.4,1,1,0,0,0-.54-.75"/><path class="cls-21" d="M915.44,52.37a.63.63,0,0,0-.66-.12.58.58,0,0,0-.64.13s-.54.45,0,.72h1.31c.53-.27,0-.72,0-.72"/><path class="cls-21" d="M914.3,51.93s-.88.75-.73,1.2h-5.92s-.21-.17.06-.45l.37-.68s0-.07.77-.07"/><polygon class="cls-21" points="907.92 76.43 907.75 76.64 906.2 76.64 906.03 76.43 906.2 76.15 907.75 76.15 907.92 76.43"/><path class="cls-21" d="M908.61,77.2l-.18.19h-1.52l-.18-.19c0-.17.06-.23.18-.23h1.52c.13,0,.18.07.18.23"/><path class="cls-21" d="M908.75,74.19h-.55a2.7,2.7,0,0,0,.28-2s-.25-1-.58-1.11c0,0-.48.47-.67-.09,0,0-.16-.95.33-1.3a9.71,9.71,0,0,0,.79,1.15,3.35,3.35,0,0,1,.68,2.26"/><path class="cls-21" d="M905.79,67.55a.4.4,0,0,1,.35.22.61.61,0,0,0-.21-.69,1.43,1.43,0,0,1-.26-1.15l.43.49a6,6,0,0,1,1,1.47s.21.57-.12.82c0,0-.33.31-.68-.14a1.41,1.41,0,0,0,.47,1.48v.46s-.86-.12-1.16-1.42a2.55,2.55,0,0,1,.05-.87,1.18,1.18,0,0,0,.14-.67"/><path class="cls-21" d="M909.37,59.55s-.32,1,.2,1c0,0,.46,0,.35-.37,0,0-.24,0-.17-.23a1.08,1.08,0,0,1,.37-.66,7,7,0,0,0,.25.71s.32.86-.54,1c0,0-1,.15-1.1-.73a4.65,4.65,0,0,1,.15-1.25.89.89,0,0,0,.08-.55l.22.11s.28-.24-.08-.7a.91.91,0,0,1,0-.73,1,1,0,0,0,.27.48,1.24,1.24,0,0,1,.32,1.06l-.32.78"/><path class="cls-21" d="M892.18,79.07a.61.61,0,0,0-.54-.52A1,1,0,0,1,891,78a2.34,2.34,0,0,0,1,1.91s0,.24-.29.18c0,0,.15,1,.91,1.22,0,0,.32.21.08.35l-.3,0A3,3,0,0,0,894,83s.18.36-.33.3c0,0,.1.56,1.32,1.05,0,0,.47.29.46.46a1.47,1.47,0,0,0,.9.33s1.42.08,1-1.43a2.52,2.52,0,0,0-.43-.88c0-.06-.55-.58-.54-.88,0,0-.47.68.07,1.15,0,0,.7.61.55,1.1,0,0-.12.75-1.13.27,0,0-.3,0-1.65-1.43a4.89,4.89,0,0,1-1.19-2.39s-.37.34-.81-.28a1.19,1.19,0,0,1-.06-.36.59.59,0,0,0,.68-.15s.3-.35,0-.63a.65.65,0,0,0-.69-.13"/><path class="cls-21" d="M897.84,83.87l-.07.95.58-.23a.7.7,0,0,1,.53.16.89.89,0,0,0,.66.31s.66-.08.49-.47a.57.57,0,0,1-.54-.29s-.26-.73-.68-.67a2.15,2.15,0,0,0-.42.17.88.88,0,0,1-.54.07"/><path class="cls-21" d="M900.72,72.23a5.47,5.47,0,0,1-2.51,2.62s-.29.35.16.35a5.83,5.83,0,0,0,2.43-2.27c0-.06.21-.44-.08-.7"/><path class="cls-21" d="M901.77,76.39s.37.09.09.64c0,0-.48.62-.05,1a1.29,1.29,0,0,1,.49-.56s.56-.42.56-.83c0,0-.07-.78-.42-1.05,0,0-.47-.47-.4-.72,0,0-.27.72.2,1.08,0,0,.29.38.05.69,0,0-.27-.31-.53-.21"/><path class="cls-21" d="M898.34,78.67a2.88,2.88,0,0,0,1.22,1v0a9.07,9.07,0,0,0,2,.31,11.24,11.24,0,0,1,2.25,0,4,4,0,0,0-.61.32,2.72,2.72,0,0,1-1,.36,8.17,8.17,0,0,0-1.44.16s.05-.33.22-.33a5.19,5.19,0,0,1-1.74.12s0-.54.39-.62a1,1,0,0,0-.6.08s0,.21-.45.14a2.31,2.31,0,0,0-1.25-.12,1.71,1.71,0,0,1-1.11.12s.75-.36,1-.5a1.3,1.3,0,0,0,.36-.51s0-.52.73-.52"/><path class="cls-21" d="M903.7,80.6a1.94,1.94,0,0,1,.14,1.66s0,.46.36,0a1.73,1.73,0,0,0-.09-1.49s-.16-.49-.4-.21"/><path class="cls-21" d="M903,83a.31.31,0,0,1-.43,0s-.5-.58.33-1.33a1.88,1.88,0,0,0,.45,1.06,1.43,1.43,0,0,1-.53,2.13,2,2,0,0,1-2.43-1.34,3.38,3.38,0,0,1,.32-2.33s.38-.23.26.15a4.14,4.14,0,0,0-.18,2.24,1.65,1.65,0,0,0,1.5,1,.84.84,0,0,0,.91-.71A1,1,0,0,0,903,83"/><path class="cls-21" d="M897.25,66.33s0-.37.32-.37c0,0,.19.08.08.46,0,0-.76,3.82-2.55,5.3,0,0-.49,0-.12-.39a6.53,6.53,0,0,0,1.59-2.65,20.87,20.87,0,0,0,.68-2.35"/><path class="cls-21" d="M892.83,72.61a2.43,2.43,0,0,1-.68.49s-.8.2-.69-1.18c0,0,.39.23.77.4l.6.29"/><path class="cls-21" d="M893.14,70.65a1.77,1.77,0,0,0,.44,1.9,1.32,1.32,0,0,0,.72.31s.38,0,.44-.31a3.2,3.2,0,0,1,1.72.56,8.7,8.7,0,0,1,.84.66s-.19-1-1.81-1.54a6.9,6.9,0,0,1-1.44-.59,3.86,3.86,0,0,1-.91-1"/><path class="cls-21" d="M902.86,56.15s-1,.06-1-.57c0,0-.1-.38.5-.59a.82.82,0,0,0,.35-.57s.77,1,.13,1.28a.29.29,0,0,1-.35-.3s-.34.1-.18.36a1,1,0,0,0,.53.36"/><path class="cls-21" d="M891.83,73.36A2.08,2.08,0,0,1,890.32,71s.41-2.05,1.47-2.57a.58.58,0,0,0,.62,0s.61-.19.38-1.58a2.81,2.81,0,0,1-.38-1s-.34.17-.34.8a4.13,4.13,0,0,1-.4.47,10,10,0,0,0-1.83,3,3.7,3.7,0,0,0,.17,2.38v.06c.55.91,1.17.8,1.83.88"/><path class="cls-21" d="M891.6,73.7a2.5,2.5,0,0,1-2.09-1.62s-.71-1.77,1.22-4.19l.72-.9a.8.8,0,0,0-.09-.82,1.26,1.26,0,0,1-.25-.8.62.62,0,0,1-.33.1s-.22-.18,0-.54a1.47,1.47,0,0,0,.1-1.34,3,3,0,0,1-.52,1,1.24,1.24,0,0,0-.15,1.27s.69.84.29,1.46c0,0-.44-.5-.66-.53a2,2,0,0,1,0,1.19,10.37,10.37,0,0,0-.77,2.87,2.94,2.94,0,0,0,1,2.48,2.91,2.91,0,0,0,1.58.38"/><path class="cls-21" d="M893.14,66.89s1.41-.53,1.18-3.51c0,0-.22-1.37-.27-1.82,0,0-.14-1,.24-1.13,0,0-.24-.23-.41-.08,0,0-.13-.3.28-.74a1.94,1.94,0,0,0,.37-1.7,10.86,10.86,0,0,1-.37-1.91s-.28.15-.48.86a5.07,5.07,0,0,1,0,1.48,1,1,0,0,1-.37.55s-.42-.57-.22-.78a5,5,0,0,0-1.4,2s-.44,1.44.22,1.85c0,0,.26,0,.3-.41a1.29,1.29,0,0,1,1-1,1.61,1.61,0,0,0,.12,1.28,5.78,5.78,0,0,1,.7,2.66,2.92,2.92,0,0,1-.92,2.1"/><path class="cls-21" d="M893,66.33l0-.21s.58-.43.51-2c0,0-.09-1-.72-1.26,0,0-.33.07-.4-.21a1.93,1.93,0,0,1,.45-1.72,5.41,5.41,0,0,0,.51,1.62,4.78,4.78,0,0,1,.46,1.93,3,3,0,0,1-.76,1.88"/><path class="cls-21" d="M901.29,59.67a2.79,2.79,0,0,0,.1,3.35s.43.1.21-.37a3.8,3.8,0,0,1-.34-2.47l.13-.37s.05-.17-.1-.13"/><path class="cls-21" d="M897.7,63.57s-.14.41-.36,0a21,21,0,0,1-.17-3.55l.17-.48s.41-.06.31.3c0,0-.07,1.1-.08,1.72,0,0,0,.86.08,1.52l.05.45"/><path class="cls-21" d="M896.95,66.16a1.59,1.59,0,0,0-1.08,1.75s1-.14,1.08-1.75"/><path class="cls-21" d="M896.57,67.9a1.44,1.44,0,0,0-1.23.78s-.29.62-.37.81a1.08,1.08,0,0,0,1.22-.48,3.52,3.52,0,0,0,.38-1.11"/><path class="cls-21" d="M896.27,66.16s.61,0,.69-.34a1,1,0,0,0-.55-.94,3.81,3.81,0,0,1-.15,1.28"/><path class="cls-21" d="M896.32,64.07a1.38,1.38,0,0,0,.59.69s.36.24.26.54a.59.59,0,0,0,.41.53s.71.14.76-.4a1.36,1.36,0,0,1,.37-1.12,4.16,4.16,0,0,1,1.84-1A17.05,17.05,0,0,0,898,64a3.86,3.86,0,0,1-1.65.07"/><path class="cls-21" d="M896.21,60a1,1,0,0,1,.49-.23s.43-.16.43-.44c0,0-.17-.64-.67-.78a2.74,2.74,0,0,1-.22.75,1.16,1.16,0,0,0,0,.71"/><path class="cls-21" d="M896.72,60a1.32,1.32,0,0,1,0,1,3.41,3.41,0,0,0-.6.5,1.47,1.47,0,0,1-.08-.86,1.51,1.51,0,0,1,.69-.62"/><path class="cls-21" d="M896.8,61.33a1.81,1.81,0,0,1,0,1.06,3.75,3.75,0,0,0-.6.57,1.94,1.94,0,0,1-.1-1s.28-.57.71-.67"/><path class="cls-21" d="M896.82,62.75s.35.72.21,1.11c0,0-.71,0-.71-.37a1.13,1.13,0,0,1,.5-.74"/><path class="cls-21" d="M905.47,75.84h1.43a4.31,4.31,0,0,1-1.61-1.46,10.54,10.54,0,0,1-2.23-.4s1,1.86,2.41,1.86"/><path class="cls-21" d="M907.68,77.66a6.71,6.71,0,0,1-1,.71l-.06.05,0,.06c-.1.08-.11.18-.11.34a.72.72,0,0,0,.2.5,6.74,6.74,0,0,1,.65,2.79,2.93,2.93,0,0,1,0,.52l0,0a2.27,2.27,0,0,1-.79,1.7h-.21s-.46,0-.26.57l.25.36a.22.22,0,0,1-.15.31c-.38.08-.87-.33-.87-.33-.35-.34-.07-.54-.07-.54a2.65,2.65,0,0,0,1.07-1.27,12.38,12.38,0,0,0,.19-2.6,4.4,4.4,0,0,0-1-2.2c-.29-.31,0-.47,0-.47.36-.13,1.06-.5,1.06-.5h1.21"/><path class="cls-21" d="M915.18,79.47a.59.59,0,0,0-.4-.35.55.55,0,0,0-.37.35.49.49,0,0,0,0,.45l.34.46.38-.46a.65.65,0,0,0,0-.45"/><path class="cls-21" d="M915.18,91.1a.59.59,0,0,0-.4-.36.56.56,0,0,0-.37.36.34.34,0,0,0,0,.37l.34.56.38-.56a.45.45,0,0,0,0-.37"/><path class="cls-21" d="M914.26,82.89a.48.48,0,0,0,.22-.26.44.44,0,0,0-.22-.25H914l-.36.25.36.21.23,0"/><path class="cls-21" d="M914.53,82.15a.39.39,0,0,0,.25.21.4.4,0,0,0,.25-.21V81.9l-.25-.36-.22.36,0,.25"/><path class="cls-21" d="M915,83.08a.48.48,0,0,0-.25-.26.46.46,0,0,0-.25.26l0,.23.22.35.25-.35v-.23"/><path class="cls-21" d="M913.71,81.22l-.13.27a2.2,2.2,0,0,0-1.76-.11,1.34,1.34,0,0,0-.53.54s0,.39-.28.28c0,0-.9,0-.9-1.6a1.16,1.16,0,0,0,.86.29,4.49,4.49,0,0,1,1.67-.08,3.78,3.78,0,0,1,1.08.41"/><path class="cls-21" d="M909.87,83.1a1.41,1.41,0,0,0,.77.28,1.4,1.4,0,0,1,.76.1s.24.21,0,.42c0,0,.2.38,1,0a6.38,6.38,0,0,0,1.35-.67,4.37,4.37,0,0,1-.63.83,2.53,2.53,0,0,1-1.66.57s-1.14,0-1.45-.86a6.25,6.25,0,0,1-.18-.7"/><path class="cls-21" d="M897.76,56.58v.62s-1,0-1.31-.75a2.64,2.64,0,0,1,0-1.05,1,1,0,0,0-.36-.83s-.4-.28-.27-.62a1.13,1.13,0,0,0,.82.34,1.08,1.08,0,0,1,1,.58,1.44,1.44,0,0,1,0,1,.65.65,0,0,0,.19.74"/><path class="cls-21" d="M898.1,54.75a1.55,1.55,0,0,1,1.54.07.94.94,0,0,1-.56.38.86.86,0,0,1-1-.45"/><path class="cls-21" d="M899.65,54.41a.79.79,0,0,0,.56.54l.39-.07s-.12-.58-1-.47"/><path class="cls-21" d="M901.7,55.15l.2-.21v-.06s-.26-.37-.59-.32c0,0-.29,0-.36-.18a.51.51,0,0,0,.37.57l.38.21"/><path class="cls-21" d="M920.6,77H909c-.15,0-.23.06-.23.23l.23.18H920.6l.16-.18c0-.17-.08-.23-.16-.23"/><polygon class="cls-21" points="921.28 76.15 908.29 76.15 908.13 76.43 908.29 76.64 921.28 76.64 921.47 76.43 921.28 76.15"/><path class="cls-21" d="M908.44,88l-.18.32h-4.58l-.15-.32c0-.18,0-.34.15-.34h4.58c.09,0,.18.16.18.34"/><path class="cls-21" d="M920.65,87.65H909c-.11,0-.17.16-.17.34l.17.32h11.69l.14-.32c0-.18-.09-.34-.14-.34"/><path class="cls-21" d="M902.66,50.39a.47.47,0,0,0,.43,0,.31.31,0,0,0,0-.37.4.4,0,0,0-.24-.23l-.48-.11.11.49a.31.31,0,0,0,.17.24"/><path class="cls-21" d="M905.72,48.41a.54.54,0,0,0,.4.07.48.48,0,0,0,.14-.41l-.22-.25-.46-.2v.5a.44.44,0,0,0,.14.29"/><path class="cls-21" d="M909.08,47.14l.38.13a.43.43,0,0,0,.21-.35l-.15-.29-.37-.32-.12.53,0,.3"/><path class="cls-21" d="M912.91,46.65a.44.44,0,0,0,.3.26.45.45,0,0,0,.29-.32.34.34,0,0,0-.06-.31l-.28-.38-.25.4a.35.35,0,0,0,0,.35"/><polygon class="cls-21" points="921.96 53.42 907.65 53.42 907.46 53.65 907.65 53.88 921.96 53.88 922.11 53.65 921.96 53.42"/><path class="cls-21" d="M922,54.1h-14.3c-.1,0-.19.09-.19.26l.19.21H922l.15-.21c0-.17-.09-.26-.15-.26"/><path class="cls-21" d="M922,54.75h-14.3c-.1,0-.19.07-.19.24l.19.21H922l.15-.21c0-.16-.09-.24-.15-.24"/><polygon class="cls-21" points="919.6 55.39 909.98 55.39 909.82 55.59 909.98 55.84 919.6 55.84 919.79 55.59 919.6 55.39"/><path class="cls-21" d="M922.82,85.89l-8,.06-8-.06c-.4,0-.34.18-.34.18a9.12,9.12,0,0,0,1.49,1,5.68,5.68,0,0,0,2.2.33h9.33a5.86,5.86,0,0,0,2.25-.33,10.43,10.43,0,0,0,1.49-1s.06-.22-.35-.18"/><path class="cls-21" d="M907.48,87.17s.29.12,0,.21h-3a3.31,3.31,0,0,1-1.76-.42,6.77,6.77,0,0,1-1.44-1.13s-.14-.21.38-.11c0,0,3,.11,3.78.11a1.74,1.74,0,0,1,.59.34,6.7,6.7,0,0,0,1.38,1"/><path class="cls-21" d="M894.46,84.94s-.26,0-.07.23a6.87,6.87,0,0,0,4.25,1.93s3,.19,3.7.19a1.17,1.17,0,0,0-.55-.51,10.82,10.82,0,0,1-1-1.14,36.78,36.78,0,0,1-3.71-.3s-2.19-.25-2.59-.39"/><path class="cls-21" d="M898.37,87.38s-.32,0-.15.23c0,0,.49.6,2.11.58h2.78a.41.41,0,0,0,0-.56h-2.91a6.31,6.31,0,0,1-1.83-.25"/><path class="cls-21" d="M904.44,88.82a.26.26,0,0,1-.24.28h-4.27a.26.26,0,0,1-.26-.28l.26-.23h4.27l.24.23"/><path class="cls-21" d="M909,88.82a.25.25,0,0,1-.27.28H905a.26.26,0,0,1-.25-.28l.25-.23h3.83a.25.25,0,0,1,.27.23"/><path class="cls-21" d="M919.79,88.59h-10l-.29.23a.29.29,0,0,0,.29.28h10a.27.27,0,0,0,.23-.28l-.23-.23"/><path class="cls-21" d="M914.78,90.5h-.16a3.59,3.59,0,0,1-2.29.83,2.78,2.78,0,0,1-.83-.1c-.5-.12-1.39-.43-1.39-.43-.19,0-.08.31-.08.31a5.5,5.5,0,0,1,.33.87,12.14,12.14,0,0,1,0,2.65.91.91,0,0,1-.24.63h-1c0-.22-.26-2-.26-2a4.18,4.18,0,0,0-.81-1.81c-.34-.38-.19-.57-.19-.57v-.05l.64-.86c.22-.65.58-.54.58-.54h5.65"/><path class="cls-21" d="M911.33,93s.17.42,1,.46a2.78,2.78,0,0,1,1.64.46s.56.61.49,1.11a1.94,1.94,0,0,0-.59-.77s-.88-.47-1.18-.35l-.29.13-.09.17a.68.68,0,0,1-.75-.36,2.11,2.11,0,0,1-.21-.87"/><path class="cls-21" d="M908.26,89.47s.21-.05.16.19a8.49,8.49,0,0,1-1.07,1.49,4.78,4.78,0,0,1-1,.09,7.54,7.54,0,0,1-.81-.14s-.56,0-.22.45a5.52,5.52,0,0,1,.61,2.25s0,1,0,1.22c0,0-.1.23-.26.26h-.94s-.27-.08-.15-.25a4.43,4.43,0,0,0-.61-2.64,11.23,11.23,0,0,0-.77-1,.46.46,0,0,1-.07-.62l1-1.34"/><path class="cls-21" d="M903.44,89.39s.4,0,.13.33a10.91,10.91,0,0,0-.86,1.29s0,.29-.69.29a6,6,0,0,1-1.63,0s-.66-.13-1-.23a.41.41,0,0,0-.4.58l.21,1.19a5,5,0,0,1-1.77-1.7s-.43-1-.06-1.44a1.43,1.43,0,0,1,1.25-.41s4,.19,4.8.11"/><path class="cls-21" d="M907.13,94.15s0,.39.53.39A.5.5,0,0,0,908,94a.52.52,0,0,0-.48-.55l-.35,0s-.84.16-.57-1.07a.59.59,0,0,1,.29-.33.49.49,0,0,0,.11.59,1.89,1.89,0,0,1,1.16,1,1.85,1.85,0,0,1,.06.87.22.22,0,0,0,.18.28s0,.23-.36.19c0,0,0,0-.23-.15,0,0,0,0-.38,0a.67.67,0,0,1-.72-.69,2.22,2.22,0,0,0,0-.52,1.57,1.57,0,0,1,.51.35s.12.22-.11.26"/><path class="cls-21" d="M902,94.41a.66.66,0,0,1,.58.07l0,.28a.43.43,0,0,0,.54.18s.71-.08.37-.79c0,0-.19-.34-.86-.2l-.17.11a.78.78,0,0,1-.81-.39l-.16-.43a1,1,0,0,0-.28-.37s.31,0,.61.46c0,0,.12.27.28.34a.35.35,0,0,0,.12-.31s.15,0,.33.24c0,0,.95-.07,1.22.51,0,0,.19.68-.27.94,0,0-.78.34-1.15-.19a.84.84,0,0,0-.38-.45"/><path class="cls-21" d="M904.66,95.81l8.84-.09s.52,0,.33.36c0,0,0,.11-.41.12s-6.23-.08-7.82-.28a4.82,4.82,0,0,1-.94-.12"/><path class="cls-21" d="M914.08,97.89s-.51-.2-.42-.6a1.11,1.11,0,0,1,.28-.54s.49.28.25.59l-.21.06s-.08.29.12.33"/><path class="cls-21" d="M915.31,96.07a4.32,4.32,0,0,1-.53-.94,5.34,5.34,0,0,1-.51.94.73.73,0,0,0-.07.55.17.17,0,0,0,.3.07c.11-.23.29-.12.29-.12s.18-.11.31.12c0,0,.18.21.26-.07a.72.72,0,0,0,0-.55"/><path class="cls-21" d="M914.51,97.62a.41.41,0,0,0,.27.27.41.41,0,0,0,.27-.27l0-.3-.25-.37-.24.37,0,.3"/><path class="cls-21" d="M915.63,57a1.74,1.74,0,0,0-.85-.87,1.6,1.6,0,0,0-.83.87,6.85,6.85,0,0,0,0,1.26,1.45,1.45,0,0,0,.34,1.12c.18.16.52.52.52.52s.36-.36.53-.52a1.5,1.5,0,0,0,.35-1.12,7.77,7.77,0,0,0,0-1.26m-1,1.87v.27s-.18.08-.29-.32a7.52,7.52,0,0,1,0-1.7,1.08,1.08,0,0,1,.42-.46,2.33,2.33,0,0,0-.21,1.43l.11.78"/><path class="cls-21" d="M905.7,80l-.19-.45a2.1,2.1,0,0,0-.26-.52,1.6,1.6,0,0,1-.3-.8c-.07-.45.49-.55.49-.55a.36.36,0,0,0,.27-.38l-1.05,0a.75.75,0,0,0-.7.39l-.39.58H902a1.48,1.48,0,0,1-1.18-.71A10.28,10.28,0,0,1,901,76a2.62,2.62,0,0,0-.73-1.95c0,.18-.39.41-.39.41l-.1.08-.09.07v.19c1.08.17.84,1.45.84,1.45-.08.52-.43.28-.43.28l.14-.35a1,1,0,0,0-.57-1,1,1,0,0,0-.91.15c.18.06.16.57.16.57,0,.39.5.33.5.33a.76.76,0,0,0,.37-.19c0,.77-1.09.28-1.09.28-.28-.17-.24-.86-.24-.86-.34.09-.37.94-.37.94-.05.6.19.72.19.72.4.22.35,1,.35,1a1.67,1.67,0,0,0,.62,1.08c1.1.57,1.52.47,1.52.47.8,0,3.32,0,3.42,0,.29,0,.67.56.67.56a1.38,1.38,0,0,0,1.19.11.8.8,0,0,1-.3-.34m-7-2.83c-.22-.21-.12-.39-.12-.39l.17-.07a.74.74,0,0,0,1.17.27c.24,0-.07.33-.1.36a1.08,1.08,0,0,1-1.12-.17m.69,1.17c-.32,0-.3-.19-.3-.19l.1-.12a.89.89,0,0,0,1.22-.35c.22-.07.11.27.06.35a1.14,1.14,0,0,1-1.08.3m1.27.62a.22.22,0,0,1-.24-.16v-.14c.59.27.59-.49.59-.49.16-.12.16.25.16.28a.53.53,0,0,1-.51.51"/><path class="cls-21" d="M902,57a2,2,0,0,0,.36-.7,3,3,0,0,1-.74-.53.45.45,0,0,0-.44-.6,3.38,3.38,0,0,0-1.5.07,4.48,4.48,0,0,1-1.15.33s-.47,0-.64-.2c0,0-.13.76.27,1,0,0,.14.18.43-.2a2.89,2.89,0,0,1,2-.78,7.24,7.24,0,0,1,.74.1.44.44,0,0,1,.19.33,3.38,3.38,0,0,0-2,0,2.46,2.46,0,0,0-.68.61s-.37.58-.71.58a.66.66,0,0,0,.26.61.62.62,0,0,1,.13.51.9.9,0,0,1-.32.47,1.38,1.38,0,0,0,1.17.62,9.89,9.89,0,0,0,1.45,0,1.06,1.06,0,0,0,.35-.07h0c-.3.4-1.71.28-1.71.28a3.09,3.09,0,0,1-1.72-.65.68.68,0,0,1-.24-.42.78.78,0,0,0,.42,0c.46,0,.17-.56.17-.56a1,1,0,0,0-.59-.18l-.37-.25a2.48,2.48,0,0,0-.74-.16,1.57,1.57,0,0,1,.25.73,3.65,3.65,0,0,0,.85,1.22,1.8,1.8,0,0,0,1.41.36L899,60l.32-.05a4.25,4.25,0,0,0,1.76-.38.55.55,0,0,0,.25-.47,1.11,1.11,0,0,0,.47-.44s.07-.46-.29-.55c0,0-.31-.2-.23-.4l.15-.07A1.54,1.54,0,0,0,902,57m-1.56-.75s.56.09.41.38a1.18,1.18,0,0,0-1.63.59.13.13,0,0,1-.16-.14s.43-1.09,1.38-.82m.8,2.27a1.84,1.84,0,0,1-2,0s-.5-.36-.12-.53a1.67,1.67,0,0,0,2.07.39l.05.18m-.82-.63s-.42,0-.56-.22c0,0-.19-.22.08-.27a.93.93,0,0,0,1.21-.23s.2-.05.17.11a1.32,1.32,0,0,1-.89.61"/><path class="cls-21" d="M900.86,62.9a7.17,7.17,0,0,1-.31-1,4.12,4.12,0,0,1,.11-1.93.64.64,0,0,0-.48.15,2.2,2.2,0,0,1-1,.09c.17.35-.16.41-.16.41a.93.93,0,0,0-.51.19.56.56,0,0,0-.24.43.28.28,0,0,1-.19-.37.48.48,0,0,1,.38-.34c.22,0,.41-.29.41-.29a.64.64,0,0,0-.73-.44c-.37.06-.37.6-.37.6a14.83,14.83,0,0,0,.21,3.2,5.78,5.78,0,0,1,1-.26c.36,0,1-.15,1-.15a4.25,4.25,0,0,1,.88-.29m-1.76-2c.38-.27.82.22.82.22,0,.28-.19.17-.19.17a.46.46,0,0,0-.72.23c-.26.16-.3-.13-.3-.13a.78.78,0,0,1,.39-.5m.23,1.82a.87.87,0,0,1-.82-.36s-.11-.2.18-.2a.87.87,0,0,0,.68.36s.54,0,.64-.42c0,0,.29-.22.29.06,0,0-.12.49-1,.56"/><path class="cls-21" d="M903.21,70.77a5.46,5.46,0,0,1-.25-1.1c-.09-.92.59-1.48.82-2.28.32-1,.49-2.4-.44-3.13a3.59,3.59,0,0,0-1.7-.9,5.92,5.92,0,0,0-1.24.21,7,7,0,0,0-1.46.91,1.35,1.35,0,0,0-.11,1.7c.46.65,1.45.44,2.22.79,0,0,.56.3.63.75a2.39,2.39,0,0,1-.08.5.26.26,0,0,0,.13.27.62.62,0,0,0,.82,0c0,.16.43.16.1.37-.57.32-1.35-.37-1.56.14-.48.75.54,1.23,1.46,1l.19.23-.19.2h-1.11a1.29,1.29,0,0,0,1.89.9l.11.23a.84.84,0,0,1-1.15.2c-.12.47.57.68.69,1.17l-.32.19a10.38,10.38,0,0,1-2.13-4.26c-.13-.21-.45-.37-.45-.67l.22-.24c.23.24.42.8.8.54a.71.71,0,0,0,0-1.1,8,8,0,0,0-2.39-.66,3,3,0,0,0,1,1.76l-.32.17a3.16,3.16,0,0,0,1.3,2.2c-.19.13-.1.36-.1.47.33.43.62,1.07,1.18,1.3l.33.1a.92.92,0,0,0,.3.58,1.53,1.53,0,0,0,1,.61c.29.07-.17-.21-.27-.43l0-.36c.79.79,1,1.11,3.06.86.19,0-.26-.62,0-1-1.48.46-2.47-1.13-3-2.26M901.64,66s-.29.06-.2-.23c0,0,.16-.66,0-.76a.71.71,0,0,0-1,0,2,2,0,0,0-.33,1.18.18.18,0,0,1-.26,0s-.18-1.29.78-1.56a1.15,1.15,0,0,1,1.09.24s.32.82,0,1.16m.45,1.47s-.19-.17,0-.27a1.3,1.3,0,0,0,.85-1,2.33,2.33,0,0,0-.17-1.28s-.15-.23.1-.23a1.83,1.83,0,0,1,.29,1.85s-.41,1-1.11.94m3.81,5c-1.35-.54-1.91-2.35-2.12-3.79,0-.16,0-.37-.11-.37-1.12,1.6.18,3.75,1.66,4.4a3.25,3.25,0,0,1,.91.34c.41.46.32,1.36,1.21,1-.11-.79-.8-1.21-1.56-1.59"/><path class="cls-21" d="M895.76,82.56a4,4,0,0,1-.55-2.48c0-.92,1.25-1.81,1.25-1.81,1.19-1.28,1.29-1.79,1.29-1.79a3.26,3.26,0,0,0-1-2.74c-.75-1.06-2.4-.7-2.4-.7a1.17,1.17,0,0,1-1.18-.5,1.67,1.67,0,0,1-.32.41,3.53,3.53,0,0,0-.8.86c-.67.81-.21,2.66-.21,2.66a3.34,3.34,0,0,0,1.12,1.67,2.76,2.76,0,0,1,.28,1.22,8.76,8.76,0,0,0,.06,1,4.2,4.2,0,0,0,1.5,2.62s-.62-.47-.3-.21a5.11,5.11,0,0,1,.73.73,10.26,10.26,0,0,0,.82.73c.92.32.78-.49.78-.49-.21-.18-1.06-1.18-1.06-1.18m1.06-7s.27,1.13-.42,1.53c0,0-.31.06-.21-.15a1.46,1.46,0,0,0,.41-1.33s0-.2.22-.05m-.54-.06a1.26,1.26,0,0,1-.19.7,1.06,1.06,0,0,1-.88.39,1.18,1.18,0,0,1-.89-.32c-.26-.25-.34-.41-.22-1l.19-.23h.11c-.23,1.44.74,1.25.74,1.25,1.17,0,.76-1.22.76-1.22,0-.31.29-.12.29-.12a2.25,2.25,0,0,1,.08.59m-3.48,0a1.72,1.72,0,0,1,.56-1.41,2,2,0,0,1,1.3-.42c1.21,0,1.44.7,1.46.74-.13.24-.3.08-.3.08s-.14-.51-1.2-.51a1.34,1.34,0,0,0-1.47,1.53,1.71,1.71,0,0,0,1.73,1.8s.34.14,0,.31A2.06,2.06,0,0,1,893.4,77a2.32,2.32,0,0,1-.6-1.53m.66,4.16a.84.84,0,0,1,.47.09,2.58,2.58,0,0,0,.67.27l.29.22a.94.94,0,0,1-.77,0s-.59-.32-.66-.58m.95,1.88a2.07,2.07,0,0,1-.53-.37h.37a1.48,1.48,0,0,0,.49.15l.24.16a.74.74,0,0,1-.57.05m.67-2.57a1.48,1.48,0,0,1-1.61-.55s-.06-.22.12-.15a3.84,3.84,0,0,0,.87.47,3,3,0,0,0,.62.08V79"/><path class="cls-21" d="M899.52,69.88a2.64,2.64,0,0,1-.4-.92,2,2,0,0,0-1.37.11c-.36.1-.36-.06-.36-.06.36-.6,1.58-.41,1.58-.41a3.43,3.43,0,0,0-.44-1.07,6.59,6.59,0,0,1-.46-1.57l-.32.95c-.06.26-.56,1.77-.56,1.77a13,13,0,0,1-.8,2,2.66,2.66,0,0,1-.46.69,1.41,1.41,0,0,0-.45.59c1,0,2,1.39,2,1.39a1.78,1.78,0,0,1,.53,1.19,3.47,3.47,0,0,0,2.31-2.26c.3-.89-.84-2.35-.84-2.35m-1.15,2.9a1.92,1.92,0,0,1-1.25-.51,1.74,1.74,0,0,1-.49-1.3v-.06a.19.19,0,0,1,.28-.11,1.45,1.45,0,0,0,1.46,1.62,1.07,1.07,0,0,0,1.11-1c0-1-.76-1-.76-1-.78,0-.74.54-.74.57,0,.55.67.39.67.39.28.18-.05.34-.05.34h-.05a.86.86,0,0,1-.65-.18.78.78,0,0,1-.23-.55,1.21,1.21,0,0,1,.23-.65,1.26,1.26,0,0,1,.83-.26h0a1.28,1.28,0,0,1,1.07,1.39,1.35,1.35,0,0,1-1.42,1.35"/><path class="cls-21" d="M909.23,65.25a1.34,1.34,0,0,0-.75-1.08,4.48,4.48,0,0,0-1-.2,2.65,2.65,0,0,1,.43,1.1,7.73,7.73,0,0,0,.36,2.14A2.59,2.59,0,0,0,909,68a1,1,0,0,0,.38-.91s-.11-1.58-.11-1.79m-.5,1.39v0c0-.88,0-1.54-.37-1.93,0,0-.28-.09-.09-.28,0,0,.46,0,.55.72a6.83,6.83,0,0,1,.13,2.38s-.21,0-.21-.85"/><path class="cls-21" d="M911.63,57.22c-.13-1.07-1.37-1.11-1.37-1.11a21,21,0,0,1,.4,2.09,2.75,2.75,0,0,0,.69,1.37c.15.2.2-.06.2-.06a7.25,7.25,0,0,0,.09-2.28m-.43,1.06v0c0-.61,0-1.05-.31-1.31,0,0-.29-.11-.12-.22,0,0,.4,0,.51.52a3.15,3.15,0,0,1,.09,1.61s-.17,0-.17-.55"/><path class="cls-21" d="M913.57,56.65a2.79,2.79,0,0,0-.78-.54s-.82.54-.86,1a6.12,6.12,0,0,0,.2,1.88l.29.24.68.46s.56-.38.6-.7a11.31,11.31,0,0,0-.14-2.38m-1.1.69v1.5c-.17,0-.17-.22-.17-.22V57.34c0-.39.48-.52.48-.52h.12v.12a.52.52,0,0,0-.44.39"/><path class="cls-21" d="M911,64.6l-.54-.53-.54.53a1,1,0,0,0-.36.66v1.92a1,1,0,0,0,.36.67l.54.57.54-.57a.93.93,0,0,0,.39-.67V65.25a1,1,0,0,0-.39-.66m0,2.57s0,.33-.17.33V65.29a.55.55,0,0,0-.3-.49s-.22-.15.06-.2l.25.16c.16.18.16.22.16.54Z"/><path class="cls-21" d="M913.15,64.6l-.56-.53-.49.53a1,1,0,0,0-.4.66v1.91a.92.92,0,0,0,.4.67l.49.57.56-.57a.92.92,0,0,0,.4-.67V65.25a1,1,0,0,0-.4-.66m-1,2.31-.09.09-.08-.09V65.47l.08-.08.09.08Zm1,.22c0,.4-.2.49-.2.49V66.5c0-1.46-.3-1.53-.44-1.71s.1-.23.1-.23a1.08,1.08,0,0,1,.54,1Z"/><path class="cls-21" d="M914.51,71.56v1.13a.14.14,0,0,1-.17-.13v-1s0-.37.27-.4l.09.05a.44.44,0,0,0-.19.35"/><path class="cls-21" d="M912.48,71l-.37-.32-.41.32c-.28.21-.28.39-.28.39v1.19s0,.18.28.38l.41.36.38-.36c.32-.2.27-.38.27-.38V71.37s0-.18-.27-.39m-.44.51-.15.2v.66c.21.25.08.34.08.34a.31.31,0,0,1-.29-.25v-.74a.55.55,0,0,1,.29-.42c.19.06.06.22.06.22"/><path class="cls-21" d="M915.27,64.6l-.52-.53-.54.53a1,1,0,0,0-.37.66v1.91a.94.94,0,0,0,.37.67l.54.57.52-.57a.93.93,0,0,0,.39-.67V65.25a1,1,0,0,0-.39-.66m.17,2.29a.66.66,0,0,1-.27.46l-.4.37-.36-.37a.65.65,0,0,1-.27-.46v-.77h.16v.77a.56.56,0,0,0,.2.38.52.52,0,0,1,.28.23l.25-.23a.53.53,0,0,0,.23-.38V65.56a.43.43,0,0,0-.23-.33l-.25-.26v-.28l.4.41a.66.66,0,0,1,.27.46Z"/><path class="cls-21" d="M923.47,74.38H906.09c-.46-.09-.28.25-.28.25,1.55,1.41,2.53,1.28,2.53,1.28H921.2s1,.13,2.53-1.28c0,0,.21-.35-.26-.25"/><path class="cls-21" d="M921.65,90.93v0L921,90c-.23-.65-.57-.54-.57-.54H914v1H915a3.54,3.54,0,0,0,2.29.83,3.05,3.05,0,0,0,.86-.1c.49-.12,1.35-.43,1.35-.43.21,0,.11.31.11.31a4.87,4.87,0,0,0-.36.87,12.24,12.24,0,0,0-.06,2.65.86.86,0,0,0,.27.63h1c0-.22.29-2,.29-2a4.12,4.12,0,0,1,.81-1.81c.38-.38.19-.57.19-.57"/><path class="cls-21" d="M914.88,77.76H908.1s-.89.67-1.28.9c0,0-.16.23.12.54a6.78,6.78,0,0,1,.66,3.48,2.43,2.43,0,0,1-.93,1.94s-.07.07-.4.07a.9.9,0,0,0,.65.93,2.32,2.32,0,0,0,.77-.15,3.64,3.64,0,0,0,1-2,16.8,16.8,0,0,0,.12-3.29,1.61,1.61,0,0,0-.31-.84c0-.29.43-.05.43-.05s.69.6,2.75.43a6.81,6.81,0,0,0,2.78-.93.83.83,0,0,1,.3-.08h.18"/><path class="cls-21" d="M915.7,59.49c.62.25.62.69.62.69h-1.23s0-.43.61-.69"/><path class="cls-21" d="M918,64.69c-.62-.27-.62-.69-.62-.69h1.22s0,.42-.6.69"/><path class="cls-21" d="M915.77,64.69c-.61-.27-.59-.69-.59-.69h1.21s0,.42-.62.69"/><path class="cls-21" d="M920.19,64.69c-.64-.27-.64-.69-.64-.69h1.23s0,.42-.6.69"/><path class="cls-21" d="M915.63,62.34c-.6-.25-.6-.69-.6-.69h1.22s0,.44-.62.69"/><path class="cls-21" d="M916.61,62c.69.29.66.79.66.79v.18H915.9v-.18s0-.51.71-.79"/><path class="cls-21" d="M918.51,62.25c.57.21.54.59.54.59v.1H918v-.1s0-.38.53-.59"/><path class="cls-21" d="M920.25,62.25c.54.21.54.59.54.59v.1h-1.11v-.1s0-.38.57-.59"/><path class="cls-21" d="M918,67.9c.77.26.77.75.77.75v.17h-1.54v-.17s0-.48.77-.75"/><path class="cls-21" d="M916.13,71.33c-.79-.3-.75-.72-.75-.72v-.18h1.53v.18s0,.43-.79.72"/><path class="cls-21" d="M915.9,67.9c.8.26.78.75.78.75v.17h-1.52v-.17s0-.48.74-.75"/><path class="cls-21" d="M921.94,62.25c.53.21.53.59.53.59v.1h-1.08v-.1s0-.38.55-.59"/><path class="cls-21" d="M917.27,60.17s.78,0,.55-.54l-.15-.31s-.7.14-.82.35c0,0-.19.33,0,.5"/><path class="cls-21" d="M920.57,68a1,1,0,0,0-1.06.1s-.41.35-.41.68a1.48,1.48,0,0,0,1.47-.78"/><path class="cls-21" d="M917.78,70.39s-.15.43.39.73a1.69,1.69,0,0,1,.88.24s.3-.58-.28-.71a2.29,2.29,0,0,0-1-.26"/><path class="cls-21" d="M918.45,71.37s.69-.1.9.76a3,3,0,0,0,.27,1.12l.11,0h-1.67a.6.6,0,0,1,.19-.42s.12-.05.12-.38V71.37"/><path class="cls-21" d="M915.59,73c.23-.16.26-.68.26-.68l0-.75h.56l0,.75s0,.52.27.68c0,0,.24.14.24.3h-1.69c0-.16.28-.3.28-.3"/><path class="cls-21" d="M926.24,52.35c.49.46,1.14-.35,1.24-.9-.23,0-.34.2-.43.2-.8-.1-1.79.13-1.79,1.11.22-.09.22-.3.43-.41s.45-.15.55,0"/><path class="cls-21" d="M917.62,50.2c0,.25.13.46.27.46s.27-.21.27-.46-.15-.37-.27-.37-.27.17-.27.38"/><path class="cls-21" d="M917.34,49.77a2,2,0,0,1-.1-.69s.38-.52.25-.77a.68.68,0,0,0-.41-.45,1.58,1.58,0,0,1-.29.67,1.05,1.05,0,0,0-.11.51s.16.73.66.73"/><path class="cls-21" d="M918.38,49.79a1.43,1.43,0,0,0,.25-1,1,1,0,0,0-.39-.68.49.49,0,0,1-.43-.43s-.15-.34.19-1.07a.92.92,0,0,0,.06-.62,1,1,0,0,1,.41.89,2.6,2.6,0,0,0,.07.63l.36-.09s0,.21.14.74a2,2,0,0,1-.11,1.21.66.66,0,0,1-.56.38"/><path class="cls-21" d="M924.7,52.91c-.22,0-.39.22-.36.38a.45.45,0,0,0,.47.32c.26-.09.44-.25.4-.41a.44.44,0,0,0-.51-.29"/><path class="cls-21" d="M925.54,53.19a2.83,2.83,0,0,0,1.46.1,1.39,1.39,0,0,0,.9-.62s-.1-.61.66-.67a3.34,3.34,0,0,1,1.59.15,1.89,1.89,0,0,0,.91-.08,1.63,1.63,0,0,1-1.29.68,3,3,0,0,0-.87.18,1,1,0,0,1,.2.45s-.34.06-1.14.31a3.57,3.57,0,0,1-1.73.13,1,1,0,0,1-.69-.64"/><path class="cls-21" d="M920.57,50.37a.37.37,0,0,0,.11.47c.12,0,.29-.09.36-.29s0-.4-.07-.41-.31.06-.4.24"/><path class="cls-21" d="M920.48,49.88s0-.46.16-.61c0,0,.44-.28.44-.56a.6.6,0,0,0-.22-.52,1.44,1.44,0,0,1-.49.49.59.59,0,0,0-.21.37s-.09.67.31.82"/><path class="cls-21" d="M921.37,50.26a1.34,1.34,0,0,0,.52-.76.82.82,0,0,0-.13-.7.54.54,0,0,1-.24-.49s0-.37.57-.86a.93.93,0,0,0,.21-.54.9.9,0,0,1,.07.92,2.32,2.32,0,0,0-.13.54l.35,0a4.31,4.31,0,0,0-.14.72,1.8,1.8,0,0,1-.45,1,.72.72,0,0,1-.63.12"/><path class="cls-21" d="M922.86,51.41c-.13.18-.14.39,0,.47s.33,0,.46-.16a.43.43,0,0,0,0-.5c-.13-.07-.29,0-.43.19"/><path class="cls-21" d="M922.9,50.88a1.29,1.29,0,0,1,.31-.56s.55-.18.63-.49a.72.72,0,0,0-.08-.59,1.47,1.47,0,0,1-.62.38l-.32.28s-.29.68.09,1"/><path class="cls-21" d="M923.73,51.48a1.45,1.45,0,0,0,.7-.62.83.83,0,0,0,0-.72.67.67,0,0,1-.07-.6s.07-.36.75-.73a.81.81,0,0,0,.38-.44,1,1,0,0,1-.21.95,2.87,2.87,0,0,0-.27.5l.35.09s-.09.23-.29.68a2.18,2.18,0,0,1-.72.89.73.73,0,0,1-.68,0"/><path class="cls-21" d="M922.78,57.69l-.47-.06v.47a.3.3,0,0,0,.45.09c.14-.09.14-.29,0-.51"/><path class="cls-21" d="M923.47,58.19s.46.36.54.64c0,0,0,.67.27.84a.81.81,0,0,0,.67.25,1.6,1.6,0,0,1-.17-.89,1.08,1.08,0,0,0-.22-.49s-.61-.63-1.09-.36"/><path class="cls-21" d="M922.65,58.6s-.2.81.16,1.21a1,1,0,0,0,.77.57.73.73,0,0,1,.72.3,1.71,1.71,0,0,1,.27,1.35,1.2,1.2,0,0,0,.24.72,1.23,1.23,0,0,1-.93-.84,2,2,0,0,0-.37-.65,1.6,1.6,0,0,1-.39.29s-.16-.25-.54-.82a2.27,2.27,0,0,1-.48-1.4,1,1,0,0,1,.56-.75"/><path class="cls-21" d="M915.27,51.93s.86.75.73,1.2h6s.17-.17-.11-.45l-.38-.68s0-.07-.76-.07"/><polygon class="cls-21" points="921.65 76.43 921.82 76.64 923.38 76.64 923.54 76.43 923.38 76.15 921.82 76.15 921.65 76.43"/><path class="cls-21" d="M921,77.2l.18.19h1.51l.18-.19c0-.17-.08-.23-.18-.23h-1.51c-.11,0-.18.07-.18.23"/><path class="cls-21" d="M920.84,74.19h.52a2.92,2.92,0,0,1-.3-2s.29-1,.62-1.11c0,0,.45.47.63-.09,0,0,.16-.95-.3-1.3a7.88,7.88,0,0,1-.8,1.15,3.4,3.4,0,0,0-.67,2.26"/><path class="cls-21" d="M923.78,67.55a.41.41,0,0,0-.37.22.68.68,0,0,1,.21-.69s.5-.62.28-1.15c0,0-.23.26-.47.49a5.76,5.76,0,0,0-1,1.47s-.21.57.14.82c0,0,.29.31.69-.14a1.4,1.4,0,0,1-.48,1.48v.46s.86-.12,1.15-1.42a2.16,2.16,0,0,0-.06-.87,1,1,0,0,1-.13-.67"/><path class="cls-21" d="M920.19,59.55s.32,1-.17,1c0,0-.43,0-.37-.37,0,0,.25,0,.2-.23a1.16,1.16,0,0,0-.42-.66,2.55,2.55,0,0,1-.23.71.75.75,0,0,0,.59,1s1,.15,1.08-.73a4.11,4.11,0,0,0-.18-1.25.75.75,0,0,1,0-.55l-.26.11s-.28-.24.06-.7c0,0,.21-.45,0-.73a1.43,1.43,0,0,1-.29.48,1.23,1.23,0,0,0-.33,1.06s.27.59.33.78"/><path class="cls-21" d="M937.4,79.07a.57.57,0,0,1,.52-.52,1,1,0,0,0,.67-.53,2.41,2.41,0,0,1-.9,1.91s-.05.24.26.18c0,0-.16,1-.95,1.22,0,0-.31.21-.07.35l.29,0A2.92,2.92,0,0,1,935.57,83s-.12.36.36.3c0,0-.09.56-1.32,1.05,0,0-.5.29-.5.46a1.32,1.32,0,0,1-.88.33s-1.38.08-1.07-1.43a2.69,2.69,0,0,1,.48-.88c0-.06.53-.58.51-.88,0,0,.5.68-.09,1.15,0,0-.65.61-.52,1.1,0,0,.1.75,1.14.27,0,0,.27,0,1.65-1.43a4.85,4.85,0,0,0,1.15-2.39s.4.34.81-.28a.8.8,0,0,0,.11-.36.63.63,0,0,1-.7-.15.47.47,0,0,1,0-.63.64.64,0,0,1,.68-.13"/><path class="cls-21" d="M931.71,83.87l.09.95-.58-.23a.67.67,0,0,0-.52.16.9.9,0,0,1-.68.31s-.63-.08-.45-.47a.52.52,0,0,0,.51-.29s.25-.73.69-.67a1.52,1.52,0,0,1,.4.17c.06,0,.32.15.54.07"/><path class="cls-21" d="M928.85,72.23a5.43,5.43,0,0,0,2.51,2.62s.26.35-.14.35a5.81,5.81,0,0,1-2.45-2.27c0-.06-.2-.44.08-.7"/><path class="cls-21" d="M927.78,76.39s-.32.09-.07.64c0,0,.45.62,0,1a1.2,1.2,0,0,0-.5-.56s-.52-.42-.51-.83c0,0,0-.78.38-1.05,0,0,.49-.47.39-.72,0,0,.29.72-.16,1.08,0,0-.3.38-.06.69,0,0,.25-.31.49-.21"/><path class="cls-21" d="M931.23,78.67a2.83,2.83,0,0,1-1.22,1l0,0a8.88,8.88,0,0,1-2,.31,11,11,0,0,0-2.23,0,3.8,3.8,0,0,1,.59.32,2.54,2.54,0,0,0,1,.36,8.7,8.7,0,0,1,1.47.16l-.22-.33a5.19,5.19,0,0,0,1.75.12s0-.54-.41-.62a1,1,0,0,1,.6.08s0,.21.48.14a2.14,2.14,0,0,1,1.2-.12,1.78,1.78,0,0,0,1.15.12s-.77-.36-1-.5a1.35,1.35,0,0,1-.38-.51s0-.52-.71-.52"/><path class="cls-21" d="M925.83,80.6a1.92,1.92,0,0,0-.1,1.66s0,.46-.35,0a1.74,1.74,0,0,1,.09-1.49s.14-.49.36-.21"/><path class="cls-21" d="M926.57,83a.26.26,0,0,0,.38,0s.55-.58-.29-1.33a1.81,1.81,0,0,1-.43,1.06s-.89,1.44.5,2.13a2,2,0,0,0,2.44-1.34,3.38,3.38,0,0,0-.33-2.33s-.36-.23-.27.15a3.87,3.87,0,0,1,.2,2.24,1.6,1.6,0,0,1-1.48,1,.83.83,0,0,1-.91-.71,1,1,0,0,1,.2-.86"/><path class="cls-21" d="M932.34,66.33s0-.37-.33-.37c0,0-.16.08-.09.46,0,0,.77,3.82,2.54,5.3,0,0,.45,0,.15-.39A6.69,6.69,0,0,1,933,68.68s-.39-1.17-.65-2.35"/><path class="cls-21" d="M936.75,72.61a2.85,2.85,0,0,0,.69.49s.77.2.68-1.18l-.78.4-.6.29"/><path class="cls-21" d="M936.44,70.65a1.81,1.81,0,0,1-.46,1.9,1.25,1.25,0,0,1-.71.31s-.37,0-.45-.31a3.24,3.24,0,0,0-1.71.56l-.85.66a2.6,2.6,0,0,1,1.81-1.54,6.71,6.71,0,0,0,1.47-.59,4.55,4.55,0,0,0,.91-1"/><path class="cls-21" d="M926.72,56.15s1,.06.95-.57c0,0,.11-.38-.5-.59a.71.71,0,0,1-.31-.57s-.8,1-.13,1.28a.29.29,0,0,0,.35-.3s.31.1.17.36a1,1,0,0,1-.52.36"/><path class="cls-21" d="M937.74,73.36a2.05,2.05,0,0,0,1.5-2.38s-.39-2.05-1.42-2.57a.6.6,0,0,1-.61,0s-.65-.19-.41-1.58a2.69,2.69,0,0,0,.41-1s.31.17.31.8a1.91,1.91,0,0,0,.38.47,9.21,9.21,0,0,1,1.84,3,3.83,3.83,0,0,1-.16,2.38v.06c-.59.91-1.2.8-1.84.88"/><path class="cls-21" d="M938,73.7a2.49,2.49,0,0,0,2.11-1.62s.71-1.77-1.21-4.19l-.72-.9s-.25-.5.06-.82a1.26,1.26,0,0,0,.29-.8s.07.08.33.1c0,0,.19-.18,0-.54a1.41,1.41,0,0,1-.11-1.34,3.1,3.1,0,0,0,.53,1,1.3,1.3,0,0,1,.12,1.27s-.69.84-.29,1.46c0,0,.46-.5.69-.53a2.3,2.3,0,0,0,0,1.19,10.24,10.24,0,0,1,.77,2.87s.17,1.76-.93,2.48a3.18,3.18,0,0,1-1.62.38"/><path class="cls-21" d="M936.44,66.89s-1.41-.53-1.22-3.51l.31-1.82s.12-1-.25-1.13c0,0,.22-.23.41-.08,0,0,.12-.3-.24-.74a1.9,1.9,0,0,1-.4-1.7,16.42,16.42,0,0,0,.4-1.91,2.17,2.17,0,0,1,.46.86,4.81,4.81,0,0,0,0,1.48.83.83,0,0,0,.36.55s.36-.57.19-.78a5,5,0,0,1,1.41,2s.43,1.44-.19,1.85c0,0-.28,0-.3-.41a1.34,1.34,0,0,0-1-1,1.76,1.76,0,0,1-.13,1.28,5.37,5.37,0,0,0-.69,2.66,2.88,2.88,0,0,0,.88,2.1"/><path class="cls-21" d="M936.56,66.33l0-.21s-.57-.43-.49-2c0,0,.09-1,.72-1.26,0,0,.34.07.4-.21a1.86,1.86,0,0,0-.43-1.72,5.58,5.58,0,0,1-.57,1.62,5.12,5.12,0,0,0-.42,1.93,3,3,0,0,0,.76,1.88"/><path class="cls-21" d="M928.26,59.67a2.77,2.77,0,0,1-.1,3.35s-.41.1-.2-.37a4,4,0,0,0,.36-2.47l-.16-.37.1-.13"/><path class="cls-21" d="M931.87,63.57s.14.41.37,0a22.09,22.09,0,0,0,.17-3.55l-.17-.48s-.41-.06-.32.3c0,0,.09,1.1.09,1.72,0,0,0,.86-.07,1.52l-.07.45"/><path class="cls-21" d="M932.63,66.16a1.6,1.6,0,0,1,1.08,1.75s-1.08-.14-1.08-1.75"/><path class="cls-21" d="M933,67.9a1.38,1.38,0,0,1,1.2.78s.29.62.4.81a1.11,1.11,0,0,1-1.24-.48A3,3,0,0,1,933,67.9"/><path class="cls-21" d="M933.31,66.16s-.59,0-.69-.34a1,1,0,0,1,.55-.94,3.92,3.92,0,0,0,.14,1.28"/><path class="cls-21" d="M933.24,64.07a1.43,1.43,0,0,1-.58.69s-.37.24-.25.54a.59.59,0,0,1-.45.53s-.68.14-.72-.4a1.3,1.3,0,0,0-.41-1.12,4,4,0,0,0-1.79-1,17.27,17.27,0,0,1,2.58.7,3.77,3.77,0,0,0,1.62.07"/><path class="cls-21" d="M933.38,60a1,1,0,0,0-.5-.23s-.44-.16-.44-.44c0,0,.19-.64.66-.78l.21.75a1.21,1.21,0,0,1,.07.71"/><path class="cls-21" d="M932.82,60a1.63,1.63,0,0,0,0,1,2.57,2.57,0,0,1,.62.5,1.46,1.46,0,0,0,.12-.86,1.55,1.55,0,0,0-.74-.62"/><path class="cls-21" d="M932.82,61.33a1.83,1.83,0,0,0,0,1.06,4.27,4.27,0,0,1,.6.57,2,2,0,0,0,.09-1s-.25-.57-.65-.67"/><path class="cls-21" d="M932.76,62.75a2.07,2.07,0,0,0-.22,1.11s.69,0,.69-.37a1,1,0,0,0-.47-.74"/><path class="cls-21" d="M924.08,75.82h-1.43a4.4,4.4,0,0,0,1.64-1.53,7.93,7.93,0,0,0,2.21-.31s-1,1.84-2.43,1.84"/><path class="cls-21" d="M921.89,77.66a8.07,8.07,0,0,0,1,.71l.11.05v.06a.64.64,0,0,1,.11.34.77.77,0,0,1-.21.5,7,7,0,0,0-.66,2.79,2.38,2.38,0,0,0,.05.52v0a2.26,2.26,0,0,0,.76,1.7h.24s.46,0,.27.57l-.26.36a.24.24,0,0,0,.13.31,1.31,1.31,0,0,0,.89-.33c.37-.34.08-.54.08-.54a2.33,2.33,0,0,1-1-1.27,11.18,11.18,0,0,1-.21-2.6,4.44,4.44,0,0,1,1-2.2c.28-.31,0-.47,0-.47-.32-.13-1-.5-1-.5H921.9"/><path class="cls-21" d="M914.78,77.76h6.69s.88.67,1.29.9a.47.47,0,0,1-.11.54,6.56,6.56,0,0,0-.67,3.48,2.58,2.58,0,0,0,.92,1.94.79.79,0,0,0,.39.07.87.87,0,0,1-.64.93,2.42,2.42,0,0,1-.77-.15,3.55,3.55,0,0,1-.92-2,15.52,15.52,0,0,1-.14-3.29,1.52,1.52,0,0,1,.3-.84c0-.29-.43-.05-.43-.05s-.68.6-2.72.43c0,0-2.16-.29-2.8-.93a.88.88,0,0,0-.4-.08"/><path class="cls-21" d="M915.33,82.89a.58.58,0,0,1-.22-.26.53.53,0,0,1,.22-.25h.26l.31.25-.31.21-.26,0"/><path class="cls-21" d="M915.86,81.22l.14.27a2.21,2.21,0,0,1,1.78-.11,1.32,1.32,0,0,1,.51.54s0,.39.3.28c0,0,.86,0,.86-1.6,0,0-.2.27-.84.29a4.43,4.43,0,0,0-1.66-.08,3.38,3.38,0,0,0-1.09.41"/><path class="cls-21" d="M919.66,83.1a1.25,1.25,0,0,1-.75.28,1.29,1.29,0,0,0-.72.1s-.25.21-.06.42c0,0-.21.38-1,0a7,7,0,0,1-1.32-.67,4.53,4.53,0,0,0,.66.83,2.49,2.49,0,0,0,1.65.57s1.12,0,1.42-.86a2.36,2.36,0,0,0,.16-.7"/><path class="cls-21" d="M931.81,56.58v.62s1.07,0,1.34-.75a3.12,3.12,0,0,0,0-1.05,1,1,0,0,1,.31-.83s.45-.28.33-.62a1.11,1.11,0,0,1-.81.34,1.08,1.08,0,0,0-1,.58,1.45,1.45,0,0,0,0,1,.67.67,0,0,1-.18.74"/><path class="cls-21" d="M931.46,54.75a1.51,1.51,0,0,0-1.53.07,1.27,1.27,0,0,0,.56.38.84.84,0,0,0,1-.45"/><path class="cls-21" d="M929.93,54.41a.82.82,0,0,1-.57.54l-.44-.07s.18-.58,1-.47"/><path class="cls-21" d="M927.88,55.15l-.23-.21c0-.19,0-.06,0-.06a.67.67,0,0,1,.59-.32s.3,0,.38-.18c0,0,.07.38-.41.57l-.34.21"/><path class="cls-21" d="M921.13,88l.16.32h4.59L926,88c0-.18,0-.34-.15-.34h-4.59c-.08,0-.16.16-.16.34"/><path class="cls-21" d="M926.9,50.39a.44.44,0,0,1-.43,0,.4.4,0,0,1,0-.37.37.37,0,0,1,.25-.23l.48-.11-.12.49a.32.32,0,0,1-.18.24"/><path class="cls-21" d="M923.85,48.41a.57.57,0,0,1-.41.07.48.48,0,0,1-.13-.41.47.47,0,0,1,.23-.25l.46-.2v.5a.44.44,0,0,1-.14.29"/><path class="cls-21" d="M920.48,47.14l-.4.13a.43.43,0,0,1-.18-.35l.12-.29.4-.32.15.53-.09.3"/><path class="cls-21" d="M916.68,46.65a.53.53,0,0,1-.32.26.41.41,0,0,1-.27-.32.32.32,0,0,1,0-.31l.29-.38.25.4a.43.43,0,0,1,0,.35"/><path class="cls-21" d="M922.08,87.17s-.29.12,0,.21h3a3.52,3.52,0,0,0,1.8-.42,6.2,6.2,0,0,0,1.41-1.13s.17-.21-.41-.11c0,0-2.95.11-3.77.11a2.61,2.61,0,0,0-.6.34,6.46,6.46,0,0,1-1.37,1"/><path class="cls-21" d="M935.1,84.94s.26,0,.06.23a6.71,6.71,0,0,1-4.22,1.93s-3,.19-3.74.19a1.36,1.36,0,0,1,.58-.51s.81-.82,1-1.14a37,37,0,0,0,3.71-.3s2.19-.25,2.57-.39"/><path class="cls-21" d="M931.23,87.38s.27,0,.13.23c0,0-.49.6-2.12.58h-2.8a.44.44,0,0,1,0-.56h2.91a6.61,6.61,0,0,0,1.84-.25"/><path class="cls-21" d="M925.13,88.82a.27.27,0,0,0,.25.28h4.26a.26.26,0,0,0,.25-.28l-.25-.23h-4.26l-.25.23"/><path class="cls-21" d="M920.51,88.82a.28.28,0,0,0,.28.28h3.82a.25.25,0,0,0,.25-.28.25.25,0,0,0-.25-.23h-3.82l-.28.23"/><path class="cls-21" d="M918.24,93s-.18.42-1,.46a2.76,2.76,0,0,0-1.64.46s-.6.61-.49,1.11a2,2,0,0,1,.57-.77s.87-.47,1.16-.35l.33.13s-.11.11.08.17a.69.69,0,0,0,.77-.36,2.34,2.34,0,0,0,.2-.87"/><path class="cls-21" d="M921.28,89.47s-.22-.05-.11.19a15.43,15.43,0,0,0,1,1.49,5.74,5.74,0,0,0,1.07.09,6.61,6.61,0,0,0,.8-.14s.55,0,.23.45a5.58,5.58,0,0,0-.59,2.25s0,1,0,1.22c0,0,.09.23.26.26h.92s.27-.08.14-.25a4.8,4.8,0,0,1,.61-2.64s.58-.76.79-1a.45.45,0,0,0,.06-.62l-1-1.34"/><path class="cls-21" d="M926.09,89.39s-.36,0-.09.33c0,0,.64.87.87,1.29,0,0,0,.29.66.29a6,6,0,0,0,1.63,0c.05,0,.66-.13,1-.23a.41.41,0,0,1,.4.58l-.21,1.19a5.08,5.08,0,0,0,1.81-1.7s.38-1,0-1.44a1.31,1.31,0,0,0-1.22-.41s-4,.19-4.85.11"/><path class="cls-21" d="M922.45,94.15s0,.39-.49.39a.54.54,0,0,1,0-1.07l.35,0s.86.16.55-1.07a.47.47,0,0,0-.25-.33.5.5,0,0,1-.12.59,1.94,1.94,0,0,0-1.16,1,2.24,2.24,0,0,0-.09.87.2.2,0,0,1-.16.28.27.27,0,0,0,.34.19s.05,0,.23-.15c0,0,0,0,.39,0a.68.68,0,0,0,.72-.69,1.36,1.36,0,0,1,0-.52,1.81,1.81,0,0,0-.56.35s-.14.22.15.26"/><path class="cls-21" d="M927.52,94.41a.66.66,0,0,0-.58.07l-.07.28a.39.39,0,0,1-.51.18s-.71-.08-.36-.79c0,0,.19-.34.86-.2,0,0,0,.07.17.11,0,0,.6.09.79-.39l.19-.43.24-.37s-.3,0-.61.46c0,0-.12.27-.27.34,0,0-.18-.13-.1-.31a.47.47,0,0,0-.35.24s-.94-.07-1.21.51c0,0-.21.68.27.94,0,0,.77.34,1.17-.19,0,0,0-.22.35-.45"/><path class="cls-21" d="M924.88,95.81,916,95.72s-.46,0-.29.36c0,0,0,.11.43.12s6.2-.08,7.79-.28a4.56,4.56,0,0,0,.92-.12"/><path class="cls-21" d="M915.48,97.89s.52-.2.41-.6a1,1,0,0,0-.27-.54s-.46.28-.28.59l.24.06s.1.29-.11.33"/><path class="cls-21" d="M931.16,75.46s.05.69-.27.86c0,0-1,.49-1.07-.28a.84.84,0,0,0,.4.19s.47.06.49-.33c0,0,0-.51.16-.57a1,1,0,0,0-.9-.15.93.93,0,0,0-.57,1l.12.35s-.35.23-.42-.28c0,0-.26-1.28.83-1.45v-.19l-.11-.07-.09-.08s-.33-.24-.39-.41a2.6,2.6,0,0,0-.73,1.95,8.86,8.86,0,0,1,.07,1.61,1.4,1.4,0,0,1-1.19.71H926l-.41-.58a.76.76,0,0,0-.71-.39l-1,0a.4.4,0,0,0,.28.38s.57.1.48.55a1.92,1.92,0,0,1-.28.8,2.14,2.14,0,0,0-.24.52l-.22.45a.78.78,0,0,1-.3.34,1.39,1.39,0,0,0,1.19-.11s.4-.56.65-.56,2.64,0,3.42,0c0,0,.4.09,1.53-.48a1.54,1.54,0,0,0,.59-1.08s0-.77.36-1c0,0,.25-.13.18-.72,0,0,0-.84-.34-.94M929,79a.52.52,0,0,1-.51-.51l.1-.28s.06.75.62.49l0,.14A.25.25,0,0,1,929,79m1.27-.62a1.15,1.15,0,0,1-1.09-.3c-.06-.08-.17-.42.05-.35a.88.88,0,0,0,1.21.35l.1.12s0,.14-.28.19m.64-1.17a1,1,0,0,1-1.1.17s-.34-.34-.1-.36a.76.76,0,0,0,1.19-.27l.14.07s.11.18-.12.39"/><path class="cls-21" d="M932.5,57.42a1,1,0,0,1-.42.25,1,1,0,0,0-.57.18s-.27.52.21.56a.58.58,0,0,0,.36,0,.69.69,0,0,1-.2.42,3.06,3.06,0,0,1-1.72.65s-1.42.12-1.72-.28a1.15,1.15,0,0,0,.33.07,10.23,10.23,0,0,0,1.48,0,1.53,1.53,0,0,0,1.2-.62.85.85,0,0,1-.32-.47.5.5,0,0,1,.11-.51.68.68,0,0,0,.26-.61c-.33,0-.72-.58-.72-.58-.12-.28-.71-.61-.71-.61a3.39,3.39,0,0,0-2,0,.47.47,0,0,1,.19-.33c.28-.06.74-.1.74-.1a2.82,2.82,0,0,1,2,.78c.32.37.48.2.48.2.4-.21.27-1,.27-1a.92.92,0,0,1-.66.2,5,5,0,0,1-1.16-.32,3.44,3.44,0,0,0-1.51-.07.44.44,0,0,0-.42.6,3,3,0,0,1-.72.53,2,2,0,0,0,.35.7,1.43,1.43,0,0,0,.52.61l.21.07c.05.21-.28.4-.28.4-.37.08-.3.55-.3.55a1.09,1.09,0,0,0,.47.44.55.55,0,0,0,.25.47,4.3,4.3,0,0,0,1.78.38l.32.05.14-.43a1.83,1.83,0,0,0,1.43-.36A3.48,3.48,0,0,0,933,58a1.77,1.77,0,0,1,.27-.73,2.53,2.53,0,0,0-.73.16m-3.39-1.15c1-.27,1.42.82,1.42.82,0,.18-.12.14-.12.14a1.23,1.23,0,0,0-1.67-.59c-.17-.29.37-.37.37-.37m-.84,1c0-.17.17-.11.17-.11a1,1,0,0,0,1.23.23c.27,0,.07.27.07.27-.15.22-.57.22-.57.22a1.28,1.28,0,0,1-.9-.61m.13,1.06a1.75,1.75,0,0,0,2.13-.39c.32.17-.17.53-.17.53-.79.73-2,0-2,0l0-.18"/><path class="cls-21" d="M931.78,60.4s0-.54-.37-.6a.6.6,0,0,0-.7.44s.16.29.35.29c0,0,.35.06.4.34a.27.27,0,0,1-.14.37.54.54,0,0,0-.27-.43,1.12,1.12,0,0,0-.54-.19s-.29-.06-.15-.41a2.15,2.15,0,0,1-1-.09.72.72,0,0,0-.48-.15,4.31,4.31,0,0,1,.11,1.93,9.83,9.83,0,0,1-.33,1h0a4,4,0,0,1,.89.29s.64.11,1,.15a5.35,5.35,0,0,1,1,.26,14.86,14.86,0,0,0,.21-3.2m-1.31.53a.78.78,0,0,1,.36.5s0,.29-.26.13a.51.51,0,0,0-.78-.23s-.21.1-.15-.17c0,0,.43-.5.83-.22m.59,1.46a.92.92,0,0,1-.84.36c-.81-.07-1-.56-1-.56,0-.28.3-.06.3-.06.11.42.67.42.67.42a.78.78,0,0,0,.65-.36c.3,0,.19.2.19.2"/><path class="cls-21" d="M928.47,67.39a.76.76,0,0,0,0,1.1c.37.26.57-.3.79-.54l.22.24c0,.3-.33.45-.44.67a11.13,11.13,0,0,1-2.12,4.26l-.33-.19c.12-.49.78-.7.64-1.17a.81.81,0,0,1-1.11-.2l.11-.23a1.32,1.32,0,0,0,1.92-.9H927l-.24-.2L927,70c.86.23,1.88-.24,1.44-1-.21-.51-1,.18-1.55-.14-.33-.21.11-.21.11-.37a.54.54,0,0,0,.77,0,.26.26,0,0,0,.16-.27,1.52,1.52,0,0,1-.06-.5c0-.45.6-.75.6-.75.77-.35,1.79-.14,2.22-.79a1.4,1.4,0,0,0-.11-1.7,6.33,6.33,0,0,0-1.46-.91,5.51,5.51,0,0,0-1.26-.21,3.38,3.38,0,0,0-1.66.9c-.9.74-.76,2.17-.46,3.13.24.8.89,1.36.86,2.28a7.18,7.18,0,0,1-.27,1.1c-.59,1.13-1.56,2.71-3.06,2.26.26.34-.19,1,0,1,2,.25,2.26-.07,3.07-.86l0,.36c-.08.22-.58.5-.28.43a1.61,1.61,0,0,0,1-.61,1,1,0,0,0,.32-.58l.31-.1c.55-.22.82-.87,1.16-1.3,0-.12.12-.35-.08-.47a3.07,3.07,0,0,0,1.28-2.2l-.3-.17a2.65,2.65,0,0,0,1-1.76,7.91,7.91,0,0,0-2.36.66m-.57-2.59a1.24,1.24,0,0,1,1.14-.24c.94.27.75,1.56.75,1.56-.13.16-.24,0-.24,0a2.07,2.07,0,0,0-.34-1.18.72.72,0,0,0-1.05,0c-.22.1,0,.76,0,.76.09.3-.22.23-.22.23-.3-.35,0-1.16,0-1.16m-1.53,1.7a1.81,1.81,0,0,1,.29-1.85c.28,0,.08.23.08.23a2.34,2.34,0,0,0-.14,1.28,1.26,1.26,0,0,0,.85,1c.2.1,0,.27,0,.27-.68.06-1.09-.94-1.09-.94m-.46,1.78c-.13,0-.13.21-.13.37-.22,1.44-.75,3.25-2.11,3.79-.77.38-1.45.81-1.58,1.59.91.35.81-.55,1.21-1a3.4,3.4,0,0,1,.95-.34c1.43-.65,2.78-2.8,1.65-4.4"/><path class="cls-21" d="M937.53,73.82a2.77,2.77,0,0,0-.78-.86,1.21,1.21,0,0,1-.31-.41s-.25.55-1.22.5a2.51,2.51,0,0,0-2.4.7,3.15,3.15,0,0,0-1,2.74s.07.5,1.26,1.79c0,0,1.21.89,1.27,1.81a4.25,4.25,0,0,1-.55,2.48s-.83,1-1.06,1.18c0,0-.12.81.8.49a9.08,9.08,0,0,0,.81-.73,5.35,5.35,0,0,1,.71-.73l-.29.21a4.08,4.08,0,0,0,1.46-2.62,5.57,5.57,0,0,0,.1-1,3.29,3.29,0,0,1,.26-1.22,3.54,3.54,0,0,0,1.16-1.67s.42-1.85-.24-2.66m-4.36,3.32c-.67-.4-.42-1.53-.42-1.53.25-.15.25.05.25.05a1.44,1.44,0,0,0,.38,1.33c.1.21-.21.15-.21.15m1.21-.5a1.06,1.06,0,0,1-.9-.39,1.2,1.2,0,0,1-.16-.7,1.79,1.79,0,0,1,.06-.59s.27-.19.31.12c0,0-.42,1.22.71,1.22,0,0,1,.19.76-1.25h.13l.18.23c.12.63,0,.79-.24,1a1.08,1.08,0,0,1-.84.32m.78,4.91a.66.66,0,0,1-.54-.05l.2-.16a1.49,1.49,0,0,0,.52-.15h.32c-.05.15-.51.37-.51.37m.3-1.29a1,1,0,0,1-.8,0L935,80a2.81,2.81,0,0,0,.66-.27.86.86,0,0,1,.46-.09c0,.26-.65.58-.65.58m.65-1.83a1.48,1.48,0,0,1-1.62.55v-.15l.64-.08a3.36,3.36,0,0,0,.85-.47c.21-.07.13.15.13.15m.09-1.39a2.12,2.12,0,0,1-1.5.59c-.33-.16,0-.31,0-.31a1.71,1.71,0,0,0,1.75-1.8A1.37,1.37,0,0,0,934.93,74c-1,0-1.16.51-1.16.51a.2.2,0,0,1-.33-.08s.26-.71,1.47-.74a2.08,2.08,0,0,1,1.31.42,1.77,1.77,0,0,1,.54,1.41,2.41,2.41,0,0,1-.57,1.53"/><path class="cls-21" d="M933.62,71.32a2.43,2.43,0,0,1-.4-.68,12.51,12.51,0,0,1-.84-2s-.51-1.52-.58-1.77l-.31-.95a6.41,6.41,0,0,1-.48,1.57,3.43,3.43,0,0,0-.44,1.07s1.23-.19,1.58.41c0,0,0,.15-.33.06a2,2,0,0,0-1.36-.11,4.92,4.92,0,0,1-.43.92s-1.12,1.46-.83,2.35a3.49,3.49,0,0,0,2.29,2.26,1.91,1.91,0,0,1,.51-1.19s1.05-1.36,2.05-1.39a1.21,1.21,0,0,0-.45-.59m-1.17,1a1.88,1.88,0,0,1-1.22.51,1.4,1.4,0,0,1-1.47-1.35,1.28,1.28,0,0,1,1.06-1.39h0a1.18,1.18,0,0,1,.81.25.89.89,0,0,1,.21.65.85.85,0,0,1-.21.55.8.8,0,0,1-.64.18h0s-.35-.16-.07-.34c0,0,.66.16.66-.39,0,0,0-.57-.73-.57,0,0-.78,0-.78,1a1.05,1.05,0,0,0,1.14,1,1.43,1.43,0,0,0,1.43-1.62.17.17,0,0,1,.27.1V71a1.67,1.67,0,0,1-.47,1.29"/><path class="cls-21" d="M921.09,64.18a1.25,1.25,0,0,0-.74,1.08L920.26,67a.94.94,0,0,0,.38.91,2.55,2.55,0,0,0,.64-.74,8.2,8.2,0,0,0,.42-2.14,2.64,2.64,0,0,1,.39-1.1,4.22,4.22,0,0,0-1,.2m.11.51c-.38.38-.36,1-.36,1.93v0c0,.85-.2.85-.2.85a6.42,6.42,0,0,1,.11-2.38c.09-.77.57-.72.57-.72.19.19-.12.28-.12.28"/><path class="cls-21" d="M916.76,56.11a3.59,3.59,0,0,0-.75.54,11.12,11.12,0,0,0-.14,2.38c0,.33.63.7.63.7l.65-.46.31-.24a6.54,6.54,0,0,0,.19-1.88c0-.5-.88-1-.88-1m.51,2.51s0,.22-.18.22v-1.5a.53.53,0,0,0-.46-.4l0-.12h.13s.47.12.48.51Z"/><path class="cls-21" d="M919.63,64.6l-.53-.53-.51.53a1,1,0,0,0-.4.66v1.91a.92.92,0,0,0,.4.67l.51.57.53-.57a.93.93,0,0,0,.39-.67V65.25a1,1,0,0,0-.39-.66m-.54.2a.52.52,0,0,0-.33.49V67.5c-.16,0-.16-.33-.16-.33V65.29c0-.32,0-.36.15-.54l.21-.15c.31,0,.14.2.14.2"/><path class="cls-21" d="M917.49,64.6l-.54-.53-.52.53a.88.88,0,0,0-.4.66v1.92a.85.85,0,0,0,.4.67l.52.57.54-.57a.94.94,0,0,0,.38-.67V65.25a1,1,0,0,0-.37-.66m-.53.19c-.12.18-.38.25-.38,1.71v1.12s-.22-.09-.22-.49V65.54a1.12,1.12,0,0,1,.52-1,.14.14,0,0,1,.09.23m.62,2.12-.14.08-.09-.08V65.47l.09-.08.14.08Z"/><path class="cls-21" d="M915.18,71l-.4-.33-.37.33c-.31.21-.31.39-.31.39v1.18s0,.18.31.38l.37.36.4-.36c.28-.2.28-.38.28-.38V71.37s0-.18-.28-.39m.07,1.57a.19.19,0,0,1-.22.13V71.56a.46.46,0,0,0-.15-.35l.08-.05c.29,0,.29.4.29.4Z"/><path class="cls-21" d="M917.86,71l-.37-.32-.41.32c-.29.21-.28.39-.28.39v1.18s0,.18.28.38l.41.36.38-.36c.28-.2.28-.38.28-.38V71.37s0-.18-.28-.39m0,1.45s-.09.25-.3.25c0,0-.11-.09.07-.34v-.66l-.15-.2s-.13-.16.08-.22a.69.69,0,0,1,.31.42Z"/><path class="cls-21" d="M917.92,57.22A8.13,8.13,0,0,0,918,59.5s.06.27.23.06a3.05,3.05,0,0,0,.67-1.37,17.1,17.1,0,0,1,.41-2.09s-1.22,0-1.39,1.11m.79-.29c-.35.26-.33.7-.33,1.31v0c0,.55-.19.55-.19.55a3.84,3.84,0,0,1,.1-1.61.58.58,0,0,1,.54-.52l-.12.22"/><path class="cls-21" d="M926.41,58.62s-1.13-.07-.87.68a4.53,4.53,0,0,0,.59.75s.38.15.38.32a1.52,1.52,0,0,0,.13-.73s-.21-.36-.42-.24a.58.58,0,0,1,.5-.26,1.47,1.47,0,0,0,.55-.6s.15-.36.35-.44a.35.35,0,0,0-.1-.44,2,2,0,0,1-.29-.65.58.58,0,0,0-.5-.48,1.12,1.12,0,0,1-.42-.24,1.8,1.8,0,0,0-.64-.37,2.68,2.68,0,0,1-.76-.82,3.13,3.13,0,0,0-.8-.69s-.65-.45-.75-.77c0,0-.44,1,.12,1.35a.74.74,0,0,0,.47,0,1.3,1.3,0,0,1,.59.83s0,.24.43.28a3,3,0,0,1,.43.3l-.72-.18s.23.67.68.75a2,2,0,0,0,.63,0,5.35,5.35,0,0,0,1,.77s0,.8-.58.8"/><path class="cls-21" d="M850.32,116.12a1,1,0,0,1-.49.86,1.38,1.38,0,0,1-1,.34c.15.17.28.3.41.43a3.27,3.27,0,0,1,.32.54,3,3,0,0,1,.28,1.19v9.17h-2.08v-5.83a1.2,1.2,0,0,0-.52-.95,2.62,2.62,0,0,0-1.22-.42,2.14,2.14,0,0,0-1.32.46,1.43,1.43,0,0,0-.54,1.14v4.31c0,.45.16.69.48.73l.16,0h0a.42.42,0,0,0,.38-.15.92.92,0,0,1-.38-.75.86.86,0,0,1,1-1,.85.85,0,0,1,.94,1,1.7,1.7,0,0,1-.19.66,1.68,1.68,0,0,1-.48.55,2.13,2.13,0,0,1-.82.25,3.75,3.75,0,0,1-1.07.12,2.16,2.16,0,0,1-1.56-.57,1.66,1.66,0,0,1-.59-1.35v-3.6a3.21,3.21,0,0,1,.92-2.14,3.13,3.13,0,0,1,2.26-.94,4.25,4.25,0,0,1,1.39.17,2.48,2.48,0,0,1,1.15.54v-1.63a2.23,2.23,0,0,0-.48-1.41,1.5,1.5,0,0,0-1.28-.55,1.85,1.85,0,0,0-1.32.5,1.44,1.44,0,0,0-.34.43.82.82,0,0,0-.12.5,1.12,1.12,0,0,0,.23.74,1.8,1.8,0,0,1-1.29.41,1.49,1.49,0,0,1-.49,0c-.16,0-.27-.11-.43-.21a.82.82,0,0,1-.35-.72c0-.62.41-1.16,1.28-1.68a4.34,4.34,0,0,1,1.34-.57,5.22,5.22,0,0,1,1.46-.18h.68l.37,0a1.52,1.52,0,0,1,.48.08.77.77,0,0,0,.8-.52l.06-.26a.6.6,0,0,0-.24-.5,2.07,2.07,0,0,1,.43-.11l.42,0a2,2,0,0,1,1,.24.79.79,0,0,1,.41.71"/><path class="cls-21" d="M858.61,128.65h-2.12v-9.58a1.71,1.71,0,0,0-.44-1.14,1.57,1.57,0,0,0-1.21-.53,1.46,1.46,0,0,0-.92.3.7.7,0,0,0-.36.54.76.76,0,0,0,.18.54l-.18.2-.29.16-.39.12-.33,0a1.43,1.43,0,0,1-.83-.2.77.77,0,0,1-.37-.68c0-.46.37-.88,1.07-1.31a7.56,7.56,0,0,1,1.14-.45,5.86,5.86,0,0,1,1.44-.16,4.48,4.48,0,0,1,2.56.76,2.22,2.22,0,0,1,1.06,2m-8.78-7a1.09,1.09,0,0,0-.28-.65,1,1,0,0,0-1.45,0,1.18,1.18,0,0,0-.27.65,1.3,1.3,0,0,0,.27.73,1.25,1.25,0,0,0,.72.26,1.33,1.33,0,0,0,.73-.26,1.13,1.13,0,0,0,.28-.73m1.25,0a2.28,2.28,0,0,1-2.26,2.28,2.17,2.17,0,0,1-1.55-.68,2,2,0,0,1-.7-1.6,2.39,2.39,0,0,1,.66-1.59,3,3,0,0,1,.74-.5,2.35,2.35,0,0,1,.85-.15,2.39,2.39,0,0,1,1.6.65,2.27,2.27,0,0,1,.66,1.59"/><path class="cls-21" d="M871.34,125.77a1.42,1.42,0,0,0-.29-.89l-.33-.39a2.53,2.53,0,0,0-.52-.3v2.36a.55.55,0,0,0,.49.57c.23,0,.38-.14.51-.37a3.27,3.27,0,0,0,.14-1m1.34,0a3.85,3.85,0,0,1-.52,2.1,2,2,0,0,1-1.78,1,2.37,2.37,0,0,1-1.63-.59,2,2,0,0,1-.47-.67,1.87,1.87,0,0,1-.15-.82V124.3a4.57,4.57,0,0,0-2.16,1.62,5.76,5.76,0,0,0-1.2,2.73h-2.09V118.19c0-.52-.17-.79-.52-.87h-.12a.63.63,0,0,0-.43.19.88.88,0,0,1,.39.74.86.86,0,0,1-1,1,.89.89,0,0,1-1-1,1.45,1.45,0,0,1,.26-.73c.09-.12.26-.26.49-.49l.34-.2.46-.19a3.79,3.79,0,0,1,.5-.11c.2,0,.39-.05.53-.05a2.49,2.49,0,0,1,1.55.51,1.58,1.58,0,0,1,.6,1.27v7a6.31,6.31,0,0,1,1.46-1.34,7,7,0,0,1,1-.57,3.37,3.37,0,0,1,.91-.32v-6.35h2V123a2.4,2.4,0,0,1,1.72.87,2.48,2.48,0,0,1,.77,1.9"/><path class="cls-21" d="M873.58,112.12a2.47,2.47,0,0,1-1,1.9,3.67,3.67,0,0,1-1.1.66,6.9,6.9,0,0,1-1.4.18,11.11,11.11,0,0,1-1.41-.13,3.13,3.13,0,0,1-1.19-.42,1.69,1.69,0,0,1-1.07-1.47,1.92,1.92,0,0,1,.37-1.15,1,1,0,0,1,.93-.48,1.17,1.17,0,0,1,.75.27.8.8,0,0,1,.3.65,1.14,1.14,0,0,1-.24.79,1.41,1.41,0,0,1-.73.3c.26.42.9.65,1.94.65a2.11,2.11,0,0,0,1.39-.43,1.36,1.36,0,0,0,.52-1,.92.92,0,0,0-.3-.75,4.8,4.8,0,0,1,.61-.28,2.07,2.07,0,0,1,.38-.1l.32-.05a1.69,1.69,0,0,1,.61.19.82.82,0,0,1,.34.72"/><path class="cls-21" d="M881.61,128.65h-2.1v-9.27a2,2,0,0,0-.48-1.43,1.85,1.85,0,0,0-1.38-.49,1.93,1.93,0,0,0-1.5.6,2.59,2.59,0,0,0-.59,1.08l.43.33a1.34,1.34,0,0,1,.48.32l.35.38a1.44,1.44,0,0,0-.66.48.94.94,0,0,0-.3.79v7.21h-2.09V121.5a1.76,1.76,0,0,1,.29-.92,2.23,2.23,0,0,1,.66-.5,3,3,0,0,0-1-.68.85.85,0,0,1-.34-.13,2.84,2.84,0,0,1,.61-1.18,2.78,2.78,0,0,1,1-.85,5.17,5.17,0,0,1,2.71-.78,4.82,4.82,0,0,1,2.75.8,2.58,2.58,0,0,1,1.2,2.23"/><path class="cls-21" d="M894.32,125.77a1.35,1.35,0,0,0-.27-.89l-.34-.39a1.82,1.82,0,0,0-.5-.3v2.36a.51.51,0,0,0,.47.57.64.64,0,0,0,.52-.37,2.89,2.89,0,0,0,.12-1m1.36,0a3.88,3.88,0,0,1-.53,2.1,2,2,0,0,1-1.79,1,2.3,2.3,0,0,1-1.57-.59,2.26,2.26,0,0,1-.52-.67,2.14,2.14,0,0,1-.16-.82V124.3a4.44,4.44,0,0,0-2.12,1.62,5.38,5.38,0,0,0-1.19,2.73h-2.11V118.19c0-.52-.15-.79-.51-.87H885l-.36.19a.91.91,0,0,1,.36.74.87.87,0,0,1-1,1,.86.86,0,0,1-.94-1,1.22,1.22,0,0,1,.24-.73c.09-.12.27-.26.49-.49l.32-.2.47-.19a3.61,3.61,0,0,1,.48-.11c.23,0,.41-.05.55-.05a2.38,2.38,0,0,1,1.54.51,1.56,1.56,0,0,1,.63,1.27v7a5.52,5.52,0,0,1,1.45-1.34,8.43,8.43,0,0,1,.95-.57,4.06,4.06,0,0,1,.91-.32v-6.35h2.1V123a2.4,2.4,0,0,1,1.7.87,2.53,2.53,0,0,1,.78,1.9"/><path class="cls-21" d="M903.1,128.65H901v-9.58a1.83,1.83,0,0,0-.43-1.14,1.58,1.58,0,0,0-1.21-.53,1.64,1.64,0,0,0-1,.3.75.75,0,0,0-.35.54.67.67,0,0,0,.22.54l-.19.2-.29.16a2.66,2.66,0,0,1-.42.12l-.31,0a1.43,1.43,0,0,1-.82-.2.72.72,0,0,1-.34-.68c0-.46.32-.88,1-1.31a6.9,6.9,0,0,1,1.14-.45,5.78,5.78,0,0,1,1.42-.16,4.55,4.55,0,0,1,2.57.76,2.26,2.26,0,0,1,1.05,2"/><path class="cls-21" d="M913.57,125.8A2.54,2.54,0,0,1,912.4,128a4.69,4.69,0,0,1-2.88.85,4.84,4.84,0,0,1-2.79-.73,2.58,2.58,0,0,1-1.26-2.28v-1.88a1.49,1.49,0,0,1,.41-1,2,2,0,0,1,.86-.62,1.47,1.47,0,0,1-1.26-1.56v-2.32a1.82,1.82,0,0,1,.56-1.34,2.26,2.26,0,0,1,1.56-.58,6.57,6.57,0,0,1,1.1.09,2,2,0,0,1,.77.34,1.83,1.83,0,0,1,.53.54,1.24,1.24,0,0,1,.16.65c0,.68-.31,1-1,1s-.92-.33-.92-1a.91.91,0,0,1,.35-.73c0-.09-.26-.14-.56-.14a.46.46,0,0,0-.37.25l-.05.24-.06.2v2.61a2.28,2.28,0,0,0,.06.55l.18.36a.93.93,0,0,0,.77.29c.15,0,.38,0,.6-.07,0,.14-.37.52-1.08,1.17a1.38,1.38,0,0,0-.54,1V126a1.92,1.92,0,0,0,.52,1.4,1.73,1.73,0,0,0,.58.4,4.06,4.06,0,0,0,.87.11,1.94,1.94,0,0,0,1.44-.51,1.9,1.9,0,0,0,.53-1.4v-9.32h2.08"/><path class="cls-21" d="M923.84,128.65H921.7v-9.27a2.1,2.1,0,0,0-.46-1.43,1.78,1.78,0,0,0-1.38-.49,1.92,1.92,0,0,0-1.48.6,2.37,2.37,0,0,0-.6,1.08l.46.33a1.34,1.34,0,0,1,.43.32,3.26,3.26,0,0,1,.35.38,1.37,1.37,0,0,0-.64.48.91.91,0,0,0-.32.79v7.21H916V121.5a1.7,1.7,0,0,1,.27-.92,2.84,2.84,0,0,1,.66-.5,2.57,2.57,0,0,0-1-.68l-.32-.13a2.63,2.63,0,0,1,.59-1.18,3.12,3.12,0,0,1,1-.85,5.41,5.41,0,0,1,2.76-.78,5,5,0,0,1,2.76.8,2.65,2.65,0,0,1,1.18,2.23"/><path class="cls-21" d="M933.22,116.53a3.58,3.58,0,0,1-.39,1.63,1.52,1.52,0,0,1-1.37.69l-.38-.07-.43-.16a5.91,5.91,0,0,0-.91-.4,1.26,1.26,0,0,0-.54-.16,1.73,1.73,0,0,0-1.05.33,2.18,2.18,0,0,0-.7.83,9.55,9.55,0,0,1,3.88,1,2.25,2.25,0,0,1,1.45,2.11v4.37a1.77,1.77,0,0,1-.78,1.5,3,3,0,0,1-1.89.58,3.9,3.9,0,0,1-1.89-.43,1.42,1.42,0,0,1-.73-1.25c0-.72.33-1.06,1-1.06s.94.31.94,1a1.08,1.08,0,0,1-.36.74,1.51,1.51,0,0,0,.85.15c.53,0,.81-.35.81-1v-4.33c0-.73-.49-1.37-1.54-1.79a9.85,9.85,0,0,0-1.65-.44,9.53,9.53,0,0,0-1.93-.21,4.44,4.44,0,0,1,1.48-2.49,3.84,3.84,0,0,1,2.81-1.14,2.68,2.68,0,0,1,.46.05,4.35,4.35,0,0,0,.66.24,2.31,2.31,0,0,0,1,.29h.37a1.85,1.85,0,0,1,.33-.15,1.49,1.49,0,0,0,.5-.38"/><path class="cls-21" d="M935,112.12a2.6,2.6,0,0,1-1,1.9,3.63,3.63,0,0,1-1.11.66,7.25,7.25,0,0,1-1.37.18,11.89,11.89,0,0,1-1.47-.13,3.25,3.25,0,0,1-1.16-.42,1.65,1.65,0,0,1-1.09-1.47,2.09,2.09,0,0,1,.35-1.15,1.09,1.09,0,0,1,.94-.48,1,1,0,0,1,1.12.92,1,1,0,0,1-1,1.1c.24.42.89.65,1.94.65a2.21,2.21,0,0,0,1.38-.43,1.32,1.32,0,0,0,.5-1,.89.89,0,0,0-.26-.75,3.32,3.32,0,0,1,.59-.28l.32-.1a1.92,1.92,0,0,0,.37-.05,1.93,1.93,0,0,1,.62.19.89.89,0,0,1,.34.72"/><path class="cls-21" d="M942.83,116.47a2.47,2.47,0,0,1,.21.8,2.29,2.29,0,0,1-.43,1.23,1.7,1.7,0,0,1-1.2.47,13.59,13.59,0,0,1-2.13-.46c-.28-.06-.47-.12-.67-.15a2,2,0,0,0-.62-.07,1.71,1.71,0,0,0-1.22.42,2.29,2.29,0,0,0-.66.92l1.12-.13H939l.58.13a7.16,7.16,0,0,1,1.23.33,3,3,0,0,1,1,.62,2.42,2.42,0,0,1,.9,2v6.12h-2.09a6.39,6.39,0,0,0-.37-2.24,3,3,0,0,0-1.33-1.52,1.05,1.05,0,0,1-1,.56l-.42,0-.37-.28a1.32,1.32,0,0,1-.28-.78,1.43,1.43,0,0,1,.34-.87,1.34,1.34,0,0,1,1-.37,2.43,2.43,0,0,1,.72.13,2.09,2.09,0,0,1,.67.42,3.19,3.19,0,0,1,1,1.19v-2c0-.71-.41-1.23-1.22-1.72a6.06,6.06,0,0,0-2.87-.64c-.34,0-.69,0-1,0a5.91,5.91,0,0,0-1.07.19,4.9,4.9,0,0,1,1.53-3,4.26,4.26,0,0,1,2.89-1.28,5.56,5.56,0,0,1,.76.09,3.6,3.6,0,0,1,.84.28,6.15,6.15,0,0,0,1.34.3,1.24,1.24,0,0,0,.61-.18,1.15,1.15,0,0,0,.38-.49m-6.76,14.62a2.23,2.23,0,0,0-.39-.21l-.24-.05-.35,0a.8.8,0,0,0-.48.15.46.46,0,0,0-.2.4c0,.08.07.22.28.34l.24,0h.27a1,1,0,0,0,.88-.64m6.65,1.84h-2.46l-.86-.7-.86.7-.31-.28c-.17-.13-.25-.23-.32-.28s-.22-.14-.4-.25a3.81,3.81,0,0,1-1.1.69,5.39,5.39,0,0,1-1.35.2,2.52,2.52,0,0,1-1.42-.44,1.41,1.41,0,0,1-.66-1.21,1.73,1.73,0,0,1,.69-1.34c.23-.1.49-.24.77-.34a4.42,4.42,0,0,1,1-.13,3.91,3.91,0,0,1,1.11.23l0-.29a1,1,0,0,0-.26-.68,5.78,5.78,0,0,1,.68-.08,2.1,2.1,0,0,1,.62.08l.43.22a1.09,1.09,0,0,1,.41.91,1.13,1.13,0,0,1-.29.8l.63.43.81-.63,1.43,1.21v-.67a.93.93,0,0,1-.55-.93,1.22,1.22,0,0,1,.27-.74.94.94,0,0,1,.79-.36,1.08,1.08,0,0,1,.87.34,1.34,1.34,0,0,1,.3.9Z"/><path class="cls-21" d="M947,126.65V124.3a1.5,1.5,0,0,0-.72.51l-.22.41a2.15,2.15,0,0,0-.09.56,2,2,0,0,0,.24,1,.78.78,0,0,0,.56.41c.18,0,.23-.18.23-.55m7.26,2H952.2a4.28,4.28,0,0,0-1-2.6,3.42,3.42,0,0,0-2.06-1.56v2.66a1.68,1.68,0,0,1-.45,1.26,2,2,0,0,1-1.25.39,2.59,2.59,0,0,1-1.95-.84,2.93,2.93,0,0,1-.79-2.15,2.82,2.82,0,0,1,.63-1.79,2.9,2.9,0,0,1,1.72-1v-4.79c0-.52-.13-.79-.47-.87h-.12a.68.68,0,0,0-.45.19.85.85,0,0,1,.37.74,1,1,0,1,1-1.93,0l.06-.37.18-.36.19-.19.29-.29.37-.17c.2-.09.33-.19.43-.21a1.23,1.23,0,0,1,.53-.11,4.3,4.3,0,0,1,.53-.05,2.4,2.4,0,0,1,1.52.51,1.55,1.55,0,0,1,.6,1.27V123a3.54,3.54,0,0,1,1.71.83,4.72,4.72,0,0,1,1.35,1.34v-8.58h2.11Z"/><path class="cls-21" d="M967.09,125.77a1.23,1.23,0,0,0-.34-.89l-.31-.39a1.6,1.6,0,0,0-.53-.3v2.36a.54.54,0,0,0,.48.57.59.59,0,0,0,.54-.37,2.76,2.76,0,0,0,.16-1m1.32,0a3.78,3.78,0,0,1-.5,2.1,2.06,2.06,0,0,1-1.81,1,2.23,2.23,0,0,1-1.58-.59,1.64,1.64,0,0,1-.51-.67,1.89,1.89,0,0,1-.17-.82V124.3a4.67,4.67,0,0,0-2.15,1.62,5.17,5.17,0,0,0-1.11,2.73h-2.15V118.19c0-.52-.15-.79-.5-.87h-.16a.56.56,0,0,0-.4.19,1,1,0,0,1,.37.74.86.86,0,0,1-1,1c-.65,0-.95-.34-.95-1a1.25,1.25,0,0,1,.23-.73,3.26,3.26,0,0,1,.48-.49,1.35,1.35,0,0,1,.36-.2l.45-.19a2.54,2.54,0,0,1,.5-.11c.22,0,.38-.05.54-.05a2.54,2.54,0,0,1,1.56.51,1.77,1.77,0,0,1,.65,1.27v7a4.51,4.51,0,0,1,1.39-1.34,7.17,7.17,0,0,1,1-.57,3.86,3.86,0,0,1,.89-.32v-6.35h2.07V123a2.42,2.42,0,0,1,1.72.87,2.51,2.51,0,0,1,.78,1.9"/><path class="cls-21" d="M977.6,128.65h-2.08v-9.58a1.5,1.5,0,0,0-.23-.83.74.74,0,0,0-.53-.41l-1.19,1-1.28-1a.84.84,0,0,0-.5.36,1.34,1.34,0,0,0-.21.88v6.73a4.21,4.21,0,0,1,.32-.63,3.46,3.46,0,0,0,.38-.68l.73-1.34a1,1,0,0,1-.58-1,1.09,1.09,0,0,1,.35-.79,1,1,0,0,1,.78-.33,1.19,1.19,0,0,1,1.15,1.22,3.31,3.31,0,0,1-.54,1.38l-.61,1.11-1.13,2.06-.85,1.83H969.5v-9.14a3.17,3.17,0,0,1,.19-1.15,2.84,2.84,0,0,1,.68-1,3.87,3.87,0,0,1,2.29-.93l.92.73.94-.73a3.4,3.4,0,0,1,1.2.35,2.58,2.58,0,0,1,1,.63,2.55,2.55,0,0,1,.86,2"/><path class="cls-21" d="M987,116.53a3.61,3.61,0,0,1-.35,1.63,1.5,1.5,0,0,1-1.37.69l-.41-.07-.41-.16c-.4-.17-.69-.33-.9-.4a1.23,1.23,0,0,0-.54-.16,1.77,1.77,0,0,0-1.06.33,1.88,1.88,0,0,0-.71.83,9.92,9.92,0,0,1,3.91,1,2.27,2.27,0,0,1,1.43,2.11v4.37a1.73,1.73,0,0,1-.79,1.5,2.92,2.92,0,0,1-1.88.58,3.78,3.78,0,0,1-1.89-.43,1.44,1.44,0,0,1-.74-1.25c0-.72.33-1.06,1-1.06a.87.87,0,0,1,1,1,1.13,1.13,0,0,1-.4.74,1.53,1.53,0,0,0,.86.15c.51,0,.77-.35.77-1v-4.33c0-.73-.48-1.37-1.51-1.79a10.31,10.31,0,0,0-1.64-.44,9.69,9.69,0,0,0-1.93-.21,4.43,4.43,0,0,1,1.48-2.49,3.87,3.87,0,0,1,2.79-1.14,3.51,3.51,0,0,1,.5.05,4.19,4.19,0,0,0,.62.24,2.52,2.52,0,0,0,1,.29h.38l.31-.15a1.24,1.24,0,0,0,.49-.38"/><path class="cls-21" d="M984.93,113.27a2.43,2.43,0,0,0-2.19-1.2,2.79,2.79,0,0,0-2.28.9l.92-.15.9-.07a10.91,10.91,0,0,1,1.39.13,7.67,7.67,0,0,1,1.26.4m1.84,1.9a4.78,4.78,0,0,0-2.05-1,12.47,12.47,0,0,0-1.37-.24,8.25,8.25,0,0,0-1.39-.08,8.35,8.35,0,0,0-3.65.69,4.08,4.08,0,0,1,1.44-2.57,4,4,0,0,1,2.74-1.05,4.73,4.73,0,0,1,2.05.47V110h2.08v4.09a1.65,1.65,0,0,1,.08.47,3.39,3.39,0,0,1,.07.56"/></g></g></svg>