<svg xmlns="http://www.w3.org/2000/svg" viewBox="0 0 111.53 111.53"><defs><style>.cls-1{fill:#998675;}</style></defs><title>initiate</title><g id="Layer_2" data-name="Layer 2"><g id="_Group_" data-name="&lt;Group&gt;"><path class="cls-1" d="M55.77,86.44a31.6,31.6,0,0,1-20.2-55.9,5.28,5.28,0,0,1,6.75,8.11,21,21,0,1,0,26.9,0A5.28,5.28,0,1,1,76,30.54a31.6,31.6,0,0,1-20.2,55.9M50.49,24.3A5.28,5.28,0,1,1,61,24.3V55.24a5.28,5.28,0,0,1-10.56,0Zm53.56,3.58h0A55.74,55.74,0,0,0,55.77,0h0A55.74,55.74,0,0,0,7.48,27.88h0a55.73,55.73,0,0,0,0,55.76h0a55.73,55.73,0,0,0,48.3,27.88h0a55.73,55.73,0,0,0,48.29-27.89h0a55.71,55.71,0,0,0,0-55.76"/></g></g></svg>