<svg xmlns="http://www.w3.org/2000/svg" viewBox="0 0 145.08 80.26"><defs><style>.cls-1{fill:#fff;}</style></defs><title>tcdc</title><g id="Layer_2" data-name="Layer 2"><g id="Layer_1-2" data-name="Layer 1"><g id="Layer_2-2" data-name="Layer 2"><g id="_Group_" data-name=" Group "><path class="cls-1" d="M131.06,74.84a2.85,2.85,0,0,0-.05-1.25c-.22-.82-2.79-8.6-3.7-11s-5.1-13.95-5.4-15.23c0,0-1.36-5.09-1.44-6.27s-1.69-5.1-1.91-4.75a29.76,29.76,0,0,1-.51,4.1c-.45,1.68-2.58,8.4-2.88,9.25S109,63.55,109,63.69s-1.84,3.87-2,4.13-1.68,2.9-1.25,3.77a1.65,1.65,0,0,0,1.45,1.16c.81.11,10.37,4.13,11.46,4.6,0,0,4.38,2.09,4.73,2.39l.78.46a.56.56,0,0,0,.62-.08c.35-.26,5-4,5.3-4.22a4.51,4.51,0,0,0,.56-.42,1.17,1.17,0,0,0,.42-.67"/><path class="cls-1" d="M130.8,34.44s1.52,4.94,1.71,5.92,4.6,13.57,4.82,14,4.12,9.61,3.09,15.06l4.5-3s.42-.4-.09-1.1A24.84,24.84,0,0,1,143.07,62c0-.18-2.87-6.38-3.12-7.09a21,21,0,0,0-1.1-2.29,23.3,23.3,0,0,0-.77-3.27,27.7,27.7,0,0,1-1.49-3.62,24.45,24.45,0,0,0-1.77-3.87,41.68,41.68,0,0,1-2.28-4.46,20.94,20.94,0,0,0-1.75-3"/><path class="cls-1" d="M139.34,65c-.43-2.41-3.22-10.6-3.22-10.6-.1-.35-3.67-9.12-5.13-14.92a49.34,49.34,0,0,0-3.35-9.37c-1.17-2.12-3.09-3.64-6.21-6S89.27,3.35,87.43,2.31a4.63,4.63,0,0,0-2.19-.87c-.46-.19-.94-.09-3.4-.64s-14-.8-14-.8c.32.36,38.36,23.79,38.36,23.79,14.64,6.46,15.5,18.41,15.5,18.41.77,3.8,3.77,12.52,3.9,12.88s4.47,11.95,4.92,13.08A36.29,36.29,0,0,1,132.09,74c.27,1.81-1.79,2.36-1.79,2.36h.39c.24,0,6.83-4.71,7.86-5.63s1.12-3.39.73-5.77M123.19,29.46a.88.88,0,0,1-.19.61h-.22a2.15,2.15,0,0,1-1-.66c0-.1-.68-2.32-.75-2.57h0a2.8,2.8,0,0,1,.62-1.42l.19-.18.1.26,1.31,3.92v.05Zm5.23,19.31-.18.39-.16-.41c-.11-.27-2.47-7.05-2.62-7.57a2.49,2.49,0,0,1,.27-1.71l.31-.14c.23.05.36.3.42.43s2.1,6.09,2.35,6.86a3.53,3.53,0,0,1-.4,2.15"/><path class="cls-1" d="M95.21,18.29c-2-.29-7.72-1.12-9.1-1.27a22.64,22.64,0,0,0-5.8.31,52,52,0,0,1-7.51,0s28.63,7.58,31.85,8.24A25,25,0,0,1,110.94,28a46.08,46.08,0,0,0-5.47-3.33c-1.9-.89-9.34-5.77-10.27-6.36"/><polyline class="cls-1" points="20.22 40.29 11.62 40.29 11.62 63.38 8.55 63.38 8.55 40.29 0 40.29 0 37.46 20.22 37.46"/><path class="cls-1" d="M42,42.77a8,8,0,0,0-6.48-3.14c-5.8,0-9.89,5.1-9.89,10.77,0,6,4.06,10.77,9.89,10.77A9.13,9.13,0,0,0,43,57.53l2.32,1.93C43,62.59,39.67,64,35.53,64c-7.46,0-13.18-5.74-13.18-13.61,0-7.63,5.48-13.64,13.18-13.64a11.18,11.18,0,0,1,9.16,4.07"/><path class="cls-1" d="M49.14,37.45h10c5.09,0,12.7,3.39,12.7,13s-7.61,13-12.7,13h-10m3.1-2.86h5.84c6,0,10.46-3,10.46-10.11S64,40.36,58.08,40.36H52.29Z"/><path class="cls-1" d="M95,42.77a8,8,0,0,0-6.51-3.14c-5.78,0-9.88,5.1-9.88,10.77,0,6,4.07,10.77,9.88,10.77A9.08,9.08,0,0,0,96,57.53l2.33,1.93C96,62.59,92.59,64,88.44,64,81,64,75.26,58.26,75.26,50.39c0-7.63,5.5-13.64,13.18-13.64a11.21,11.21,0,0,1,9.17,4.07"/></g></g></g></g></svg>